RecursiveSans-StrictBoldItalic.ufo
<glyph name="exclam" format="1">
  <advance width="350"/>
  <unicode hex="0021"/>
  <outline>
    <contour>
      <point x="227" y="281" type="line"/>
      <point x="256" y="355"/>
      <point x="285" y="428"/>
      <point x="314" y="502" type="curve"/>
      <point x="361" y="689" type="line" smooth="yes"/>
      <point x="362" y="696"/>
      <point x="359" y="700"/>
      <point x="353" y="700" type="curve" smooth="yes"/>
      <point x="289" y="700"/>
      <point x="240" y="700"/>
      <point x="202" y="700" type="curve"/>
      <point x="193" y="662"/>
      <point x="184" y="627"/>
      <point x="175" y="590" type="curve" smooth="yes"/>
      <point x="153" y="502" type="line"/>
      <point x="129" y="291"/>
      <point x="130" y="288"/>
      <point x="133" y="284" type="curve" smooth="yes"/>
      <point x="134" y="282"/>
      <point x="136" y="281"/>
      <point x="140" y="281" type="curve"/>
    </contour>
    <contour>
      <point x="199" y="-9" type="curve"/>
      <point x="243" y="166" type="line" smooth="yes"/>
      <point x="244" y="172"/>
      <point x="241" y="177"/>
      <point x="235" y="177" type="curve" smooth="yes"/>
      <point x="177" y="177"/>
      <point x="116" y="177"/>
      <point x="59" y="177" type="curve"/>
      <point x="15" y="2" type="line" smooth="yes"/>
      <point x="13" y="-4"/>
      <point x="17" y="-9"/>
      <point x="23" y="-9" type="curve" smooth="yes"/>
      <point x="80" y="-9"/>
      <point x="142" y="-9"/>
    </contour>
  </outline>
</glyph>
<glyph name="dollar" format="1">
  <advance width="600"/>
  <unicode hex="0024"/>
  <outline>
    <contour>
      <point x="436" y="719" type="curve" smooth="yes"/>
      <point x="279" y="719"/>
      <point x="160" y="640"/>
      <point x="132" y="528" type="curve" smooth="yes"/>
      <point x="121" y="484" type="line" smooth="yes"/>
      <point x="116" y="466"/>
      <point x="165" y="450"/>
      <point x="237" y="450" type="curve"/>
      <point x="245" y="479"/>
      <point x="250" y="500"/>
      <point x="256" y="523" type="curve" smooth="yes"/>
      <point x="265" y="560"/>
      <point x="312" y="591"/>
      <point x="394" y="591" type="curve" smooth="yes"/>
      <point x="474" y="591"/>
      <point x="525" y="578"/>
      <point x="568" y="541" type="curve"/>
      <point x="587" y="541" type="line"/>
      <point x="593" y="567"/>
      <point x="605" y="615"/>
      <point x="618" y="667" type="curve" smooth="yes"/>
      <point x="619" y="669"/>
      <point x="618" y="673"/>
      <point x="617" y="675" type="curve" smooth="yes"/>
      <point x="594" y="705"/>
      <point x="521" y="719"/>
    </contour>
    <contour>
      <point x="415" y="396" type="curve" smooth="yes"/>
      <point x="327" y="425" type="line" smooth="yes"/>
      <point x="256" y="448"/>
      <point x="240" y="463"/>
      <point x="251" y="503" type="curve" smooth="yes"/>
      <point x="256" y="525"/>
      <point x="259" y="538"/>
      <point x="268" y="572" type="curve"/>
      <point x="200" y="570"/>
      <point x="140" y="561"/>
      <point x="121" y="484" type="curve" smooth="yes"/>
      <point x="106" y="424"/>
      <point x="124" y="351"/>
      <point x="246" y="311" type="curve" smooth="yes"/>
      <point x="333" y="282" type="line" smooth="yes"/>
      <point x="408" y="257"/>
      <point x="413" y="239"/>
      <point x="404" y="202" type="curve" smooth="yes"/>
      <point x="398" y="178"/>
      <point x="387" y="134"/>
      <point x="378" y="101" type="curve"/>
      <point x="432" y="101"/>
      <point x="516" y="164"/>
      <point x="530" y="220" type="curve"/>
      <point x="550" y="299"/>
      <point x="529" y="359"/>
    </contour>
    <contour>
      <point x="210" y="-19" type="curve" smooth="yes"/>
      <point x="372" y="-19"/>
      <point x="490" y="60"/>
      <point x="518" y="172" type="curve" smooth="yes"/>
      <point x="530" y="220" type="line" smooth="yes"/>
      <point x="535" y="237"/>
      <point x="488" y="256"/>
      <point x="417" y="256" type="curve"/>
      <point x="410" y="225"/>
      <point x="404" y="203"/>
      <point x="397" y="177" type="curve" smooth="yes"/>
      <point x="388" y="140"/>
      <point x="342" y="109"/>
      <point x="252" y="109" type="curve" smooth="yes"/>
      <point x="162" y="109"/>
      <point x="107" y="129"/>
      <point x="57" y="171" type="curve"/>
      <point x="39" y="171" type="line"/>
      <point x="32" y="145"/>
      <point x="20" y="97"/>
      <point x="7" y="46" type="curve" smooth="yes"/>
      <point x="7" y="43"/>
      <point x="7" y="40"/>
      <point x="8" y="38" type="curve" smooth="yes"/>
      <point x="35" y="2"/>
      <point x="115" y="-19"/>
    </contour>
    <contour>
      <point x="411" y="470" type="line"/>
      <point x="524" y="773" type="line" smooth="yes"/>
      <point x="527" y="782"/>
      <point x="523" y="786"/>
      <point x="517" y="786" type="curve" smooth="yes"/>
      <point x="477" y="786"/>
      <point x="459" y="786"/>
      <point x="418" y="786" type="curve"/>
      <point x="410" y="754"/>
      <point x="402" y="722"/>
      <point x="394" y="690" type="curve"/>
      <point x="346" y="500" type="line" smooth="yes"/>
      <point x="344" y="492"/>
      <point x="346" y="487"/>
      <point x="353" y="485" type="curve" smooth="yes"/>
    </contour>
    <contour>
      <point x="249" y="236" type="line"/>
      <point x="132" y="-71" type="line" smooth="yes"/>
      <point x="127" y="-82"/>
      <point x="132" y="-86"/>
      <point x="138" y="-86" type="curve" smooth="yes"/>
      <point x="180" y="-86"/>
      <point x="199" y="-86"/>
      <point x="241" y="-86" type="curve"/>
      <point x="248" y="-56"/>
      <point x="257" y="-21"/>
      <point x="264" y="8" type="curve"/>
      <point x="314" y="205" type="line" smooth="yes"/>
      <point x="316" y="215"/>
      <point x="314" y="219"/>
      <point x="307" y="221" type="curve" smooth="yes"/>
    </contour>
  </outline>
</glyph>
<glyph name="quotesingle" format="1">
  <advance width="250"/>
  <unicode hex="0027"/>
  <outline>
    <contour>
      <point x="231" y="450" type="curve"/>
      <point x="326" y="737" type="line" smooth="yes"/>
      <point x="329" y="746"/>
      <point x="325" y="750"/>
      <point x="319" y="750" type="curve" smooth="yes"/>
      <point x="271" y="750"/>
      <point x="219" y="750"/>
      <point x="162" y="750" type="curve"/>
      <point x="156" y="714"/>
      <point x="150" y="683"/>
      <point x="144" y="648" type="curve" smooth="yes"/>
      <point x="113" y="461" type="line" smooth="yes"/>
      <point x="112" y="454"/>
      <point x="116" y="450"/>
      <point x="122" y="450" type="curve" smooth="yes"/>
      <point x="159" y="450"/>
      <point x="194" y="450"/>
    </contour>
  </outline>
</glyph>
<glyph name="parenleft" format="1">
  <advance width="400"/>
  <unicode hex="0028"/>
  <outline>
    <contour>
      <point x="359" y="744" type="curve" smooth="yes"/>
      <point x="214" y="628"/>
      <point x="125" y="489"/>
      <point x="83" y="320" type="curve" smooth="yes"/>
      <point x="80" y="311" type="line" smooth="yes"/>
      <point x="38" y="142"/>
      <point x="58" y="3"/>
      <point x="145" y="-113" type="curve" smooth="yes"/>
      <point x="150" y="-121"/>
      <point x="156" y="-121"/>
      <point x="163" y="-121" type="curve" smooth="yes"/>
      <point x="212" y="-121"/>
      <point x="249" y="-121"/>
      <point x="303" y="-121" type="curve"/>
      <point x="308" y="-103" type="line"/>
      <point x="208" y="15"/>
      <point x="178" y="152"/>
      <point x="217" y="311" type="curve" smooth="yes"/>
      <point x="220" y="320" type="line" smooth="yes"/>
      <point x="259" y="479"/>
      <point x="358" y="615"/>
      <point x="517" y="733" type="curve"/>
      <point x="521" y="752" type="line"/>
      <point x="468" y="752"/>
      <point x="431" y="752"/>
      <point x="381" y="752" type="curve" smooth="yes"/>
      <point x="374" y="752"/>
      <point x="368" y="751"/>
    </contour>
  </outline>
</glyph>
<glyph name="parenright" format="1">
  <advance width="400"/>
  <unicode hex="0029"/>
  <outline>
    <contour>
      <point x="64" y="-113" type="curve" smooth="yes"/>
      <point x="209" y="3"/>
      <point x="298" y="142"/>
      <point x="341" y="311" type="curve" smooth="yes"/>
      <point x="343" y="320" type="line" smooth="yes"/>
      <point x="385" y="489"/>
      <point x="365" y="628"/>
      <point x="278" y="744" type="curve" smooth="yes"/>
      <point x="273" y="751"/>
      <point x="268" y="752"/>
      <point x="260" y="752" type="curve" smooth="yes"/>
      <point x="211" y="752"/>
      <point x="174" y="752"/>
      <point x="120" y="752" type="curve"/>
      <point x="115" y="733" type="line"/>
      <point x="215" y="615"/>
      <point x="246" y="479"/>
      <point x="206" y="320" type="curve" smooth="yes"/>
      <point x="204" y="311" type="line" smooth="yes"/>
      <point x="164" y="152"/>
      <point x="65" y="15"/>
      <point x="-94" y="-103" type="curve"/>
      <point x="-98" y="-121" type="line"/>
      <point x="-45" y="-121"/>
      <point x="-7" y="-121"/>
      <point x="42" y="-121" type="curve" smooth="yes"/>
      <point x="49" y="-121"/>
      <point x="55" y="-121"/>
    </contour>
  </outline>
</glyph>
<glyph name="asterisk" format="1">
  <advance width="500"/>
  <unicode hex="002A"/>
  <outline>
    <contour>
      <point x="325" y="770" type="curve"/>
      <point x="323" y="740"/>
      <point x="321" y="711"/>
      <point x="319" y="681" type="curve" smooth="yes"/>
      <point x="310" y="563" type="line"/>
      <point x="224" y="364" type="line" smooth="yes"/>
      <point x="222" y="359"/>
      <point x="223" y="356"/>
      <point x="229" y="356" type="curve"/>
      <point x="260" y="356"/>
      <point x="292" y="356"/>
      <point x="323" y="356" type="curve"/>
      <point x="325" y="385"/>
      <point x="326" y="414"/>
      <point x="328" y="443" type="curve" smooth="yes"/>
      <point x="337" y="563" type="line"/>
      <point x="424" y="762" type="line" smooth="yes"/>
      <point x="426" y="767"/>
      <point x="424" y="770"/>
      <point x="419" y="770" type="curve" smooth="yes"/>
      <point x="388" y="770"/>
      <point x="356" y="770"/>
    </contour>
    <contour>
      <point x="515" y="711" type="curve"/>
      <point x="321" y="574" type="line"/>
      <point x="113" y="508" type="line" smooth="yes"/>
      <point x="107" y="505"/>
      <point x="105" y="501"/>
      <point x="107" y="496" type="curve"/>
      <point x="116" y="468"/>
      <point x="124" y="442"/>
      <point x="133" y="415" type="curve"/>
      <point x="328" y="551" type="line"/>
      <point x="534" y="618" type="line" smooth="yes"/>
      <point x="540" y="620"/>
      <point x="543" y="625"/>
      <point x="541" y="630" type="curve" smooth="yes"/>
      <point x="533" y="657"/>
      <point x="523" y="683"/>
    </contour>
    <contour>
      <point x="513" y="504" type="curve"/>
      <point x="333" y="574" type="line"/>
      <point x="213" y="707" type="line" smooth="yes"/>
      <point x="210" y="709"/>
      <point x="206" y="708"/>
      <point x="200" y="704" type="curve"/>
      <point x="178" y="676"/>
      <point x="156" y="650"/>
      <point x="134" y="623" type="curve"/>
      <point x="315" y="551" type="line"/>
      <point x="434" y="420" type="line" smooth="yes"/>
      <point x="438" y="417"/>
      <point x="443" y="417"/>
      <point x="448" y="423" type="curve"/>
      <point x="470" y="450"/>
      <point x="492" y="477"/>
    </contour>
  </outline>
</glyph>
<glyph name="comma" format="1">
  <advance width="350"/>
  <unicode hex="002C"/>
  <outline>
    <contour>
      <point x="57" y="-190" type="curve" smooth="yes"/>
      <point x="62" y="-190"/>
      <point x="65" y="-189"/>
      <point x="69" y="-183" type="curve"/>
      <point x="136" y="-77"/>
      <point x="214" y="45"/>
      <point x="270" y="133" type="curve"/>
      <point x="275" y="141"/>
      <point x="273" y="146"/>
      <point x="265" y="146" type="curve" smooth="yes"/>
      <point x="200" y="146"/>
      <point x="162" y="146"/>
      <point x="86" y="146" type="curve"/>
      <point x="34" y="34"/>
      <point x="-18" y="-78"/>
      <point x="-70" y="-190" type="curve"/>
      <point x="-36" y="-190"/>
      <point x="1" y="-190"/>
    </contour>
  </outline>
</glyph>
<glyph name="period" format="1">
  <advance width="300"/>
  <unicode hex="002E"/>
  <outline>
    <contour>
      <point x="174" y="-9" type="curve"/>
      <point x="218" y="166" type="line" smooth="yes"/>
      <point x="219" y="172"/>
      <point x="216" y="177"/>
      <point x="210" y="177" type="curve" smooth="yes"/>
      <point x="152" y="177"/>
      <point x="91" y="177"/>
      <point x="34" y="177" type="curve"/>
      <point x="-10" y="2" type="line" smooth="yes"/>
      <point x="-12" y="-4"/>
      <point x="-8" y="-9"/>
      <point x="-2" y="-9" type="curve" smooth="yes"/>
      <point x="55" y="-9"/>
      <point x="117" y="-9"/>
    </contour>
  </outline>
</glyph>
<glyph name="zero" format="1">
  <advance width="600"/>
  <unicode hex="0030"/>
  <outline>
    <contour>
      <point x="395" y="720" type="curve" smooth="yes"/>
      <point x="257" y="720"/>
      <point x="146" y="638"/>
      <point x="104" y="468" type="curve" smooth="yes"/>
      <point x="55" y="272" type="line" smooth="yes"/>
      <point x="10" y="88"/>
      <point x="105" y="-20"/>
      <point x="243" y="-20" type="curve"/>
      <point x="245" y="-20"/>
      <point x="257" y="-7"/>
      <point x="260" y="100" type="curve"/>
      <point x="193" y="100"/>
      <point x="157" y="145"/>
      <point x="187" y="269" type="curve" smooth="yes"/>
      <point x="234" y="459" type="line" smooth="yes"/>
      <point x="261" y="566"/>
      <point x="312" y="600"/>
      <point x="378" y="600" type="curve" smooth="yes"/>
      <point x="423" y="600"/>
      <point x="467" y="600"/>
      <point x="493" y="600" type="curve"/>
      <point x="511" y="673"/>
      <point x="475" y="720"/>
    </contour>
    <contour>
      <point x="243" y="-20" type="curve" smooth="yes"/>
      <point x="381" y="-20"/>
      <point x="491" y="58"/>
      <point x="534" y="230" type="curve" smooth="yes"/>
      <point x="583" y="427" type="line" smooth="yes"/>
      <point x="628" y="612"/>
      <point x="534" y="720"/>
      <point x="395" y="720" type="curve"/>
      <point x="393" y="720"/>
      <point x="381" y="707"/>
      <point x="378" y="600" type="curve"/>
      <point x="445" y="600"/>
      <point x="481" y="555"/>
      <point x="451" y="431" type="curve" smooth="yes"/>
      <point x="404" y="241" type="line" smooth="yes"/>
      <point x="378" y="134"/>
      <point x="326" y="100"/>
      <point x="248" y="100" type="curve" smooth="yes"/>
      <point x="193" y="100"/>
      <point x="172" y="100"/>
      <point x="145" y="100" type="curve"/>
      <point x="127" y="27"/>
      <point x="163" y="-20"/>
    </contour>
  </outline>
</glyph>
<glyph name="one" format="1">
  <advance width="600"/>
  <unicode hex="0031"/>
  <outline>
    <contour>
      <point x="343" y="35" type="curve"/>
      <point x="398" y="256"/>
      <point x="453" y="478"/>
      <point x="509" y="699" type="curve" smooth="yes"/>
      <point x="510" y="705"/>
      <point x="507" y="710"/>
      <point x="501" y="710" type="curve" smooth="yes"/>
      <point x="379" y="710" type="line"/>
      <point x="327" y="503"/>
      <point x="274" y="291"/>
      <point x="222" y="84" type="curve" smooth="yes"/>
      <point x="212" y="45"/>
      <point x="267" y="35"/>
    </contour>
    <contour>
      <point x="44" y="121" type="line"/>
      <point x="35" y="84"/>
      <point x="28" y="53"/>
      <point x="17" y="11" type="curve" smooth="yes"/>
      <point x="16" y="7"/>
      <point x="16" y="5"/>
      <point x="18" y="3" type="curve" smooth="yes"/>
      <point x="19" y="1"/>
      <point x="21" y="0"/>
      <point x="25" y="0" type="curve" smooth="yes"/>
      <point x="481" y="0" type="line"/>
      <point x="489" y="33"/>
      <point x="497" y="68"/>
      <point x="509" y="110" type="curve" smooth="yes"/>
      <point x="511" y="118"/>
      <point x="507" y="121"/>
      <point x="500" y="121" type="curve" smooth="yes"/>
    </contour>
    <contour>
      <point x="147" y="433" type="curve" smooth="yes"/>
      <point x="151" y="433"/>
      <point x="156" y="435"/>
      <point x="382" y="577" type="curve" smooth="yes"/>
      <point x="423" y="603"/>
      <point x="465" y="630"/>
      <point x="466" y="635" type="curve" smooth="yes"/>
      <point x="473" y="664"/>
      <point x="469" y="710"/>
      <point x="392" y="710" type="curve"/>
      <point x="370" y="710" type="line"/>
      <point x="338" y="691"/>
      <point x="306" y="670"/>
      <point x="276" y="651" type="curve"/>
      <point x="244" y="631"/>
      <point x="212" y="611"/>
      <point x="180" y="592" type="curve"/>
      <point x="142" y="440" type="line" smooth="yes"/>
      <point x="141" y="436"/>
      <point x="143" y="433"/>
    </contour>
  </outline>
</glyph>
<glyph name="two" format="1">
  <advance width="600"/>
  <unicode hex="0032"/>
  <outline>
    <contour>
      <point x="479" y="593" type="curve"/>
      <point x="474" y="571"/>
      <point x="469" y="554"/>
      <point x="459" y="516" type="curve" smooth="yes"/>
      <point x="449" y="475"/>
      <point x="426" y="455"/>
      <point x="295" y="381" type="curve" smooth="yes"/>
      <point x="117" y="281"/>
      <point x="45" y="201"/>
      <point x="18" y="96" type="curve" smooth="yes"/>
      <point x="15" y="83"/>
      <point x="54" y="81"/>
      <point x="149" y="81" type="curve"/>
      <point x="172" y="172"/>
      <point x="201" y="200"/>
      <point x="339" y="276" type="curve" smooth="yes"/>
      <point x="503" y="367"/>
      <point x="567" y="414"/>
      <point x="590" y="507" type="curve" smooth="yes"/>
      <point x="597" y="536" type="line" smooth="yes"/>
      <point x="605" y="566"/>
      <point x="573" y="593"/>
    </contour>
    <contour>
      <point x="479" y="0" type="line"/>
      <point x="487" y="33"/>
      <point x="496" y="68"/>
      <point x="507" y="110" type="curve" smooth="yes"/>
      <point x="509" y="118"/>
      <point x="506" y="121"/>
      <point x="498" y="121" type="curve" smooth="yes"/>
      <point x="139" y="121" type="line" smooth="yes"/>
      <point x="100" y="121"/>
      <point x="57" y="116"/>
      <point x="18" y="96" type="curve"/>
      <point x="11" y="66"/>
      <point x="8" y="52"/>
      <point x="-3" y="11" type="curve" smooth="yes"/>
      <point x="-5" y="3"/>
      <point x="-3" y="0"/>
      <point x="5" y="0" type="curve" smooth="yes"/>
    </contour>
    <contour>
      <point x="403" y="720" type="curve" smooth="yes"/>
      <point x="297" y="720"/>
      <point x="213" y="692"/>
      <point x="184" y="669" type="curve" smooth="yes"/>
      <point x="182" y="666"/>
      <point x="180" y="663"/>
      <point x="179" y="658" type="curve" smooth="yes"/>
      <point x="166" y="610"/>
      <point x="158" y="577"/>
      <point x="149" y="542" type="curve"/>
      <point x="168" y="542" type="line"/>
      <point x="235" y="577"/>
      <point x="301" y="592"/>
      <point x="379" y="592" type="curve" smooth="yes"/>
      <point x="449" y="592"/>
      <point x="473" y="570"/>
      <point x="464" y="533" type="curve" smooth="yes"/>
      <point x="457" y="507"/>
      <point x="452" y="486"/>
      <point x="449" y="471" type="curve"/>
      <point x="537" y="472"/>
      <point x="589" y="500"/>
      <point x="597" y="536" type="curve" smooth="yes"/>
      <point x="624" y="643"/>
      <point x="549" y="720"/>
    </contour>
  </outline>
</glyph>
<glyph name="three" format="1">
  <advance width="600"/>
  <unicode hex="0033"/>
  <outline>
    <contour>
      <point x="358" y="592" type="curve" smooth="yes"/>
      <point x="455" y="592"/>
      <point x="475" y="557"/>
      <point x="464" y="515" type="curve" smooth="yes"/>
      <point x="457" y="489"/>
      <point x="454" y="475"/>
      <point x="449" y="454" type="curve"/>
      <point x="518" y="454"/>
      <point x="582" y="461"/>
      <point x="596" y="515" type="curve" smooth="yes"/>
      <point x="603" y="541" type="line" smooth="yes"/>
      <point x="628" y="640"/>
      <point x="544" y="720"/>
      <point x="398" y="720" type="curve" smooth="yes"/>
      <point x="293" y="720"/>
      <point x="200" y="697"/>
      <point x="181" y="682" type="curve" smooth="yes"/>
      <point x="179" y="680"/>
      <point x="177" y="678"/>
      <point x="176" y="674" type="curve" smooth="yes"/>
      <point x="166" y="628"/>
      <point x="155" y="589"/>
      <point x="148" y="559" type="curve"/>
      <point x="167" y="559" type="line"/>
      <point x="230" y="582"/>
      <point x="277" y="592"/>
    </contour>
    <contour>
      <point x="182" y="339" type="curve" smooth="yes"/>
      <point x="403" y="339"/>
      <point x="560" y="370"/>
      <point x="596" y="515" type="curve" smooth="yes"/>
      <point x="603" y="544"/>
      <point x="544" y="586"/>
      <point x="482" y="586" type="curve"/>
      <point x="475" y="561"/>
      <point x="469" y="537"/>
      <point x="463" y="513" type="curve" smooth="yes"/>
      <point x="449" y="456"/>
      <point x="406" y="417"/>
      <point x="191" y="417" type="curve"/>
      <point x="186" y="398"/>
      <point x="179" y="368"/>
      <point x="174" y="350" type="curve" smooth="yes"/>
      <point x="172" y="344"/>
      <point x="176" y="339"/>
    </contour>
    <contour>
      <point x="172" y="298" type="curve" smooth="yes"/>
      <point x="366" y="298"/>
      <point x="411" y="264"/>
      <point x="395" y="200" type="curve" smooth="yes"/>
      <point x="388" y="176"/>
      <point x="386" y="165"/>
      <point x="377" y="131" type="curve"/>
      <point x="459" y="131"/>
      <point x="514" y="146"/>
      <point x="527" y="197" type="curve" smooth="yes"/>
      <point x="559" y="326"/>
      <point x="422" y="379"/>
      <point x="182" y="379" type="curve"/>
      <point x="176" y="356"/>
      <point x="169" y="330"/>
      <point x="164" y="309" type="curve" smooth="yes"/>
      <point x="162" y="301"/>
      <point x="165" y="298"/>
    </contour>
    <contour>
      <point x="232" y="108" type="curve" smooth="yes"/>
      <point x="148" y="108"/>
      <point x="104" y="118"/>
      <point x="45" y="145" type="curve"/>
      <point x="26" y="145" type="line"/>
      <point x="17" y="111"/>
      <point x="9" y="77"/>
      <point x="-3" y="31" type="curve" smooth="yes"/>
      <point x="-4" y="27"/>
      <point x="-4" y="25"/>
      <point x="-3" y="23" type="curve" smooth="yes"/>
      <point x="9" y="7"/>
      <point x="96" y="-20"/>
      <point x="212" y="-20" type="curve" smooth="yes"/>
      <point x="379" y="-20"/>
      <point x="487" y="41"/>
      <point x="518" y="163" type="curve" smooth="yes"/>
      <point x="527" y="197" type="line" smooth="yes"/>
      <point x="538" y="240"/>
      <point x="481" y="266"/>
      <point x="411" y="265" type="curve"/>
      <point x="405" y="239"/>
      <point x="400" y="224"/>
      <point x="394" y="198" type="curve" smooth="yes"/>
      <point x="382" y="149"/>
      <point x="341" y="108"/>
    </contour>
  </outline>
</glyph>
<glyph name="four" format="1">
  <advance width="600"/>
  <unicode hex="0034"/>
  <outline>
    <contour>
      <point x="154" y="227" type="curve"/>
      <point x="286" y="379"/>
      <point x="417" y="530"/>
      <point x="549" y="682" type="curve"/>
      <point x="554" y="700" type="line"/>
      <point x="476" y="700"/>
      <point x="426" y="700"/>
      <point x="417" y="700" type="curve" smooth="yes"/>
      <point x="411" y="700"/>
      <point x="406" y="699"/>
      <point x="399" y="690" type="curve" smooth="yes"/>
      <point x="250" y="516"/>
      <point x="41" y="267"/>
      <point x="40" y="259" type="curve" smooth="yes"/>
      <point x="34" y="238"/>
      <point x="104" y="227"/>
    </contour>
    <contour>
      <point x="531" y="151" type="line"/>
      <point x="540" y="189"/>
      <point x="548" y="222"/>
      <point x="558" y="261" type="curve" smooth="yes"/>
      <point x="560" y="267"/>
      <point x="556" y="272"/>
      <point x="550" y="272" type="curve" smooth="yes"/>
      <point x="386" y="272" type="line"/>
      <point x="359" y="272"/>
      <point x="189" y="265"/>
      <point x="40" y="259" type="curve"/>
      <point x="15" y="162" type="line" smooth="yes"/>
      <point x="15" y="159"/>
      <point x="15" y="156"/>
      <point x="16" y="154" type="curve" smooth="yes"/>
      <point x="18" y="152"/>
      <point x="21" y="151"/>
      <point x="24" y="151" type="curve" smooth="yes"/>
    </contour>
    <contour>
      <point x="427" y="0" type="curve"/>
      <point x="434" y="29"/>
      <point x="443" y="63"/>
      <point x="452" y="98" type="curve" smooth="yes"/>
      <point x="523" y="384" type="line" smooth="yes"/>
      <point x="525" y="391"/>
      <point x="522" y="395"/>
      <point x="515" y="395" type="curve" smooth="yes"/>
      <point x="420" y="395" type="line"/>
      <point x="399" y="347"/>
      <point x="379" y="301"/>
      <point x="358" y="253" type="curve"/>
      <point x="297" y="11" type="line" smooth="yes"/>
      <point x="295" y="5"/>
      <point x="299" y="0"/>
      <point x="305" y="0" type="curve" smooth="yes"/>
      <point x="346" y="0"/>
      <point x="387" y="0"/>
    </contour>
  </outline>
</glyph>
<glyph name="five" format="1">
  <advance width="600"/>
  <unicode hex="0035"/>
  <outline>
    <contour>
      <point x="264" y="700" type="line"/>
      <point x="254" y="660"/>
      <point x="246" y="630"/>
      <point x="236" y="590" type="curve" smooth="yes"/>
      <point x="236" y="587"/>
      <point x="236" y="584"/>
      <point x="237" y="582" type="curve" smooth="yes"/>
      <point x="239" y="580"/>
      <point x="242" y="579"/>
      <point x="245" y="579" type="curve" smooth="yes"/>
      <point x="594" y="579" type="line"/>
      <point x="600" y="606"/>
      <point x="610" y="642"/>
      <point x="621" y="689" type="curve" smooth="yes"/>
      <point x="623" y="695"/>
      <point x="619" y="700"/>
      <point x="613" y="700" type="curve" smooth="yes"/>
    </contour>
    <contour>
      <point x="217" y="301" type="line"/>
      <point x="356" y="676" type="line" smooth="yes"/>
      <point x="362" y="691"/>
      <point x="344" y="700"/>
      <point x="278" y="700" type="curve" smooth="yes"/>
      <point x="231" y="700" type="line"/>
      <point x="94" y="320" type="line" smooth="yes"/>
      <point x="90" y="309"/>
      <point x="90" y="301"/>
      <point x="101" y="301" type="curve" smooth="yes"/>
    </contour>
    <contour>
      <point x="208" y="371" type="curve"/>
      <point x="176" y="340"/>
      <point x="182" y="301"/>
      <point x="217" y="301" type="curve"/>
      <point x="247" y="315"/>
      <point x="284" y="326"/>
      <point x="322" y="326" type="curve" smooth="yes"/>
      <point x="403" y="326"/>
      <point x="412" y="270"/>
      <point x="400" y="218" type="curve" smooth="yes"/>
      <point x="396" y="203"/>
      <point x="392" y="189"/>
      <point x="387" y="171" type="curve"/>
      <point x="429" y="171"/>
      <point x="525" y="188"/>
      <point x="535" y="227" type="curve" smooth="yes"/>
      <point x="566" y="353"/>
      <point x="502" y="435"/>
      <point x="392" y="435" type="curve" smooth="yes"/>
      <point x="312" y="435"/>
      <point x="260" y="410"/>
    </contour>
    <contour>
      <point x="219" y="-20" type="curve" smooth="yes"/>
      <point x="397" y="-20"/>
      <point x="493" y="56"/>
      <point x="524" y="184" type="curve" smooth="yes"/>
      <point x="535" y="227" type="line" smooth="yes"/>
      <point x="546" y="273"/>
      <point x="485" y="316"/>
      <point x="420" y="299" type="curve"/>
      <point x="413" y="270"/>
      <point x="407" y="248"/>
      <point x="400" y="219" type="curve" smooth="yes"/>
      <point x="394" y="196" type="line" smooth="yes"/>
      <point x="380" y="138"/>
      <point x="331" y="108"/>
      <point x="236" y="108" type="curve" smooth="yes"/>
      <point x="153" y="108"/>
      <point x="112" y="118"/>
      <point x="61" y="145" type="curve"/>
      <point x="43" y="145" type="line"/>
      <point x="34" y="110"/>
      <point x="25" y="74"/>
      <point x="13" y="27" type="curve" smooth="yes"/>
      <point x="12" y="23"/>
      <point x="12" y="21"/>
      <point x="13" y="19" type="curve" smooth="yes"/>
      <point x="26" y="3"/>
      <point x="107" y="-20"/>
    </contour>
  </outline>
</glyph>
<glyph name="six" format="1">
  <advance width="600"/>
  <unicode hex="0036"/>
  <outline>
    <contour>
      <point x="150" y="99" type="curve"/>
      <point x="127" y="5"/>
      <point x="203" y="-21"/>
      <point x="263" y="-21" type="curve"/>
      <point x="429" y="-21"/>
      <point x="495" y="55"/>
      <point x="525" y="176" type="curve" smooth="yes"/>
      <point x="541" y="237" type="line" smooth="yes"/>
      <point x="551" y="279"/>
      <point x="496" y="310"/>
      <point x="429" y="310" type="curve"/>
      <point x="421" y="277"/>
      <point x="417" y="261"/>
      <point x="407" y="225" type="curve" smooth="yes"/>
      <point x="399" y="194" type="line" smooth="yes"/>
      <point x="382" y="133"/>
      <point x="349" y="99"/>
      <point x="271" y="99" type="curve" smooth="yes"/>
      <point x="223" y="99"/>
      <point x="178" y="99"/>
    </contour>
    <contour>
      <point x="314" y="594" type="curve"/>
      <point x="348" y="594"/>
      <point x="367" y="594"/>
      <point x="414" y="594" type="curve" smooth="yes"/>
      <point x="487" y="594"/>
      <point x="521" y="582"/>
      <point x="568" y="558" type="curve"/>
      <point x="586" y="558" type="line"/>
      <point x="595" y="593"/>
      <point x="603" y="624"/>
      <point x="615" y="672" type="curve" smooth="yes"/>
      <point x="616" y="676"/>
      <point x="615" y="679"/>
      <point x="614" y="681" type="curve" smooth="yes"/>
      <point x="601" y="694"/>
      <point x="523" y="720"/>
      <point x="446" y="720" type="curve" smooth="yes"/>
      <point x="339" y="720"/>
      <point x="330" y="658"/>
    </contour>
    <contour>
      <point x="93" y="425" type="curve" smooth="yes"/>
      <point x="58" y="279" type="line" smooth="yes"/>
      <point x="12" y="93"/>
      <point x="102" y="-21"/>
      <point x="263" y="-21" type="curve" smooth="yes"/>
      <point x="276" y="-21"/>
      <point x="275" y="-5"/>
      <point x="271" y="99" type="curve"/>
      <point x="193" y="99"/>
      <point x="160" y="150"/>
      <point x="187" y="258" type="curve" smooth="yes"/>
      <point x="226" y="411" type="line" smooth="yes"/>
      <point x="258" y="539"/>
      <point x="315" y="594"/>
      <point x="414" y="594" type="curve"/>
      <point x="487" y="706"/>
      <point x="465" y="720"/>
      <point x="446" y="720" type="curve" smooth="yes"/>
      <point x="311" y="720"/>
      <point x="157" y="683"/>
    </contour>
    <contour>
      <point x="391" y="439" type="curve" smooth="yes"/>
      <point x="325" y="439"/>
      <point x="260" y="412"/>
      <point x="217" y="378" type="curve" smooth="yes"/>
      <point x="202" y="366"/>
      <point x="196" y="355"/>
      <point x="176" y="276" type="curve"/>
      <point x="226" y="310"/>
      <point x="275" y="326"/>
      <point x="327" y="326" type="curve" smooth="yes"/>
      <point x="401" y="326"/>
      <point x="422" y="286"/>
      <point x="407" y="225" type="curve" smooth="yes"/>
      <point x="403" y="209"/>
      <point x="399" y="194"/>
      <point x="396" y="185" type="curve"/>
      <point x="508" y="186"/>
      <point x="536" y="218"/>
      <point x="541" y="237" type="curve" smooth="yes"/>
      <point x="570" y="355"/>
      <point x="502" y="439"/>
    </contour>
  </outline>
</glyph>
<glyph name="seven" format="1">
  <advance width="600"/>
  <unicode hex="0037"/>
  <outline>
    <contour>
      <point x="532" y="580" type="line" smooth="yes"/>
      <point x="565" y="580"/>
      <point x="598" y="583"/>
      <point x="632" y="588" type="curve"/>
      <point x="657" y="689" type="line"/>
      <point x="659" y="695"/>
      <point x="655" y="700"/>
      <point x="649" y="700" type="curve"/>
      <point x="162" y="700" type="line"/>
      <point x="150" y="650" type="line" smooth="yes"/>
      <point x="138" y="600"/>
      <point x="147" y="580"/>
      <point x="170" y="580" type="curve" smooth="yes"/>
    </contour>
    <contour>
      <point x="249" y="0" type="line"/>
      <point x="481" y="359"/>
      <point x="630" y="580"/>
      <point x="632" y="588" type="curve" smooth="yes"/>
      <point x="640" y="622"/>
      <point x="594" y="630"/>
      <point x="513" y="629" type="curve"/>
      <point x="249" y="233"/>
      <point x="109" y="23"/>
      <point x="106" y="11" type="curve" smooth="yes"/>
      <point x="104" y="5"/>
      <point x="108" y="0"/>
      <point x="114" y="0" type="curve" smooth="yes"/>
    </contour>
    <contour>
      <point x="243" y="488" type="curve"/>
      <point x="254" y="533"/>
      <point x="274" y="616"/>
      <point x="286" y="662" type="curve"/>
      <point x="293" y="690"/>
      <point x="263" y="700"/>
      <point x="175" y="700" type="curve" smooth="yes"/>
      <point x="162" y="700" type="line"/>
      <point x="149" y="646"/>
      <point x="126" y="552"/>
      <point x="112" y="499" type="curve"/>
      <point x="111" y="493"/>
      <point x="115" y="488"/>
      <point x="121" y="488" type="curve" smooth="yes"/>
      <point x="161" y="488"/>
      <point x="203" y="488"/>
    </contour>
  </outline>
</glyph>
<glyph name="eight" format="1">
  <advance width="600"/>
  <unicode hex="0038"/>
  <outline>
    <contour>
      <point x="410" y="370" type="curve" smooth="yes"/>
      <point x="300" y="414" type="line" smooth="yes"/>
      <point x="259" y="430"/>
      <point x="245" y="467"/>
      <point x="255" y="506" type="curve" smooth="yes"/>
      <point x="260" y="527"/>
      <point x="265" y="549"/>
      <point x="273" y="581" type="curve"/>
      <point x="206" y="580"/>
      <point x="145" y="568"/>
      <point x="133" y="517" type="curve" smooth="yes"/>
      <point x="110" y="426"/>
      <point x="140" y="363"/>
      <point x="248" y="319" type="curve" smooth="yes"/>
      <point x="352" y="276" type="line" smooth="yes"/>
      <point x="402" y="256"/>
      <point x="412" y="229"/>
      <point x="403" y="188" type="curve" smooth="yes"/>
      <point x="390" y="140"/>
      <point x="387" y="128"/>
      <point x="381" y="104" type="curve"/>
      <point x="450" y="105"/>
      <point x="512" y="133"/>
      <point x="526" y="185" type="curve"/>
      <point x="547" y="267"/>
      <point x="513" y="330"/>
    </contour>
    <contour>
      <point x="238" y="-20" type="curve" smooth="yes"/>
      <point x="426" y="-20"/>
      <point x="495" y="60"/>
      <point x="517" y="151" type="curve" smooth="yes"/>
      <point x="526" y="185" type="line" smooth="yes"/>
      <point x="535" y="222"/>
      <point x="491" y="253"/>
      <point x="419" y="255" type="curve"/>
      <point x="417" y="249"/>
      <point x="410" y="220"/>
      <point x="400" y="177" type="curve" smooth="yes"/>
      <point x="389" y="132"/>
      <point x="342" y="99"/>
      <point x="259" y="99" type="curve" smooth="yes"/>
      <point x="201" y="99"/>
      <point x="173" y="99"/>
      <point x="141" y="99" type="curve"/>
      <point x="125" y="37"/>
      <point x="173" y="-20"/>
    </contour>
    <contour>
      <point x="411" y="720" type="curve" smooth="yes"/>
      <point x="266" y="720"/>
      <point x="167" y="649"/>
      <point x="140" y="546" type="curve" smooth="yes"/>
      <point x="133" y="517" type="line" smooth="yes"/>
      <point x="122" y="477"/>
      <point x="150" y="439"/>
      <point x="238" y="439" type="curve"/>
      <point x="243" y="459"/>
      <point x="248" y="481"/>
      <point x="258" y="520" type="curve" smooth="yes"/>
      <point x="270" y="566"/>
      <point x="312" y="601"/>
      <point x="381" y="601" type="curve" smooth="yes"/>
      <point x="447" y="601"/>
      <point x="469" y="601"/>
      <point x="500" y="601" type="curve"/>
      <point x="519" y="677"/>
      <point x="479" y="720"/>
    </contour>
    <contour>
      <point x="398" y="348" type="curve" smooth="yes"/>
      <point x="460" y="348"/>
      <point x="565" y="422"/>
      <point x="585" y="500" type="curve" smooth="yes"/>
      <point x="593" y="530" type="line" smooth="yes"/>
      <point x="620" y="637"/>
      <point x="549" y="720"/>
      <point x="411" y="720" type="curve" smooth="yes"/>
      <point x="389" y="720"/>
      <point x="383" y="712"/>
      <point x="381" y="601" type="curve"/>
      <point x="457" y="601"/>
      <point x="477" y="566"/>
      <point x="464" y="515" type="curve" smooth="yes"/>
      <point x="461" y="500" type="line" smooth="yes"/>
      <point x="449" y="455"/>
      <point x="414" y="411"/>
      <point x="320" y="387" type="curve"/>
      <point x="336" y="363"/>
      <point x="365" y="348"/>
    </contour>
    <contour>
      <point x="259" y="99" type="curve"/>
      <point x="174" y="99"/>
      <point x="144" y="136"/>
      <point x="155" y="183" type="curve" smooth="yes"/>
      <point x="158" y="193" type="line" smooth="yes"/>
      <point x="169" y="240"/>
      <point x="214" y="290"/>
      <point x="320" y="309" type="curve"/>
      <point x="304" y="336"/>
      <point x="287" y="350"/>
      <point x="233" y="350" type="curve" smooth="yes"/>
      <point x="163" y="350"/>
      <point x="57" y="284"/>
      <point x="35" y="200" type="curve" smooth="yes"/>
      <point x="26" y="162" type="line" smooth="yes"/>
      <point x="-1" y="55"/>
      <point x="85" y="-20"/>
      <point x="238" y="-20" type="curve" smooth="yes"/>
      <point x="251" y="-20"/>
      <point x="271" y="6"/>
    </contour>
  </outline>
</glyph>
<glyph name="nine" format="1">
  <advance width="600"/>
  <unicode hex="0039"/>
  <outline>
    <contour>
      <point x="489" y="601" type="curve"/>
      <point x="508" y="679"/>
      <point x="469" y="721"/>
      <point x="393" y="721" type="curve"/>
      <point x="252" y="721"/>
      <point x="146" y="650"/>
      <point x="115" y="524" type="curve" smooth="yes"/>
      <point x="98" y="457" type="line" smooth="yes"/>
      <point x="88" y="416"/>
      <point x="128" y="368"/>
      <point x="207" y="368" type="curve"/>
      <point x="216" y="404"/>
      <point x="224" y="431"/>
      <point x="232" y="467" type="curve" smooth="yes"/>
      <point x="242" y="507" type="line" smooth="yes"/>
      <point x="259" y="573"/>
      <point x="297" y="601"/>
      <point x="370" y="601" type="curve" smooth="yes"/>
      <point x="418" y="601"/>
      <point x="460" y="601"/>
    </contour>
    <contour>
      <point x="326" y="106" type="curve"/>
      <point x="290" y="106"/>
      <point x="270" y="106"/>
      <point x="221" y="106" type="curve" smooth="yes"/>
      <point x="158" y="106"/>
      <point x="123" y="115"/>
      <point x="70" y="140" type="curve"/>
      <point x="52" y="140" type="line"/>
      <point x="43" y="106"/>
      <point x="35" y="71"/>
      <point x="23" y="23" type="curve" smooth="yes"/>
      <point x="22" y="19"/>
      <point x="22" y="18"/>
      <point x="23" y="16" type="curve" smooth="yes"/>
      <point x="36" y="-1"/>
      <point x="130" y="-20"/>
      <point x="197" y="-20" type="curve" smooth="yes"/>
      <point x="273" y="-20"/>
      <point x="304" y="15"/>
    </contour>
    <contour>
      <point x="542" y="260" type="curve" smooth="yes"/>
      <point x="584" y="425" type="line" smooth="yes"/>
      <point x="632" y="617"/>
      <point x="558" y="721"/>
      <point x="393" y="721" type="curve" smooth="yes"/>
      <point x="374" y="721"/>
      <point x="366" y="680"/>
      <point x="370" y="601" type="curve"/>
      <point x="449" y="601"/>
      <point x="479" y="553"/>
      <point x="452" y="443" type="curve" smooth="yes"/>
      <point x="411" y="280" type="line" smooth="yes"/>
      <point x="380" y="158"/>
      <point x="326" y="106"/>
      <point x="221" y="106" type="curve"/>
      <point x="184" y="48"/>
      <point x="177" y="-20"/>
      <point x="197" y="-20" type="curve" smooth="yes"/>
      <point x="392" y="-20"/>
      <point x="490" y="51"/>
    </contour>
    <contour>
      <point x="242" y="251" type="curve" smooth="yes"/>
      <point x="306" y="251"/>
      <point x="372" y="275"/>
      <point x="419" y="312" type="curve" smooth="yes"/>
      <point x="434" y="325"/>
      <point x="443" y="342"/>
      <point x="461" y="416" type="curve"/>
      <point x="409" y="381"/>
      <point x="357" y="366"/>
      <point x="300" y="366" type="curve" smooth="yes"/>
      <point x="232" y="366"/>
      <point x="218" y="405"/>
      <point x="232" y="467" type="curve" smooth="yes"/>
      <point x="237" y="489"/>
      <point x="243" y="511"/>
      <point x="246" y="522" type="curve"/>
      <point x="161" y="522"/>
      <point x="107" y="494"/>
      <point x="98" y="457" type="curve" smooth="yes"/>
      <point x="68" y="338"/>
      <point x="123" y="251"/>
    </contour>
  </outline>
</glyph>
<glyph name="colon" format="1">
  <advance width="300"/>
  <unicode hex="003A"/>
  <outline>
    <contour>
      <point x="267" y="360" type="curve"/>
      <point x="310" y="536" type="line" smooth="yes"/>
      <point x="312" y="542"/>
      <point x="308" y="547"/>
      <point x="302" y="547" type="curve" smooth="yes"/>
      <point x="245" y="547"/>
      <point x="184" y="547"/>
      <point x="126" y="547" type="curve"/>
      <point x="82" y="371" type="line" smooth="yes"/>
      <point x="81" y="365"/>
      <point x="85" y="360"/>
      <point x="91" y="360" type="curve" smooth="yes"/>
      <point x="148" y="360"/>
      <point x="209" y="360"/>
    </contour>
    <contour>
      <point x="174" y="-9" type="curve"/>
      <point x="218" y="166" type="line" smooth="yes"/>
      <point x="219" y="172"/>
      <point x="215" y="177"/>
      <point x="209" y="177" type="curve" smooth="yes"/>
      <point x="152" y="177"/>
      <point x="91" y="177"/>
      <point x="33" y="177" type="curve"/>
      <point x="-10" y="2" type="line" smooth="yes"/>
      <point x="-12" y="-4"/>
      <point x="-8" y="-9"/>
      <point x="-2" y="-9" type="curve" smooth="yes"/>
      <point x="55" y="-9"/>
      <point x="116" y="-9"/>
    </contour>
  </outline>
</glyph>
<glyph name="semicolon" format="1">
  <advance width="350"/>
  <unicode hex="003B"/>
  <outline>
    <contour>
      <point x="291" y="360" type="curve"/>
      <point x="335" y="536" type="line" smooth="yes"/>
      <point x="337" y="542"/>
      <point x="333" y="547"/>
      <point x="327" y="547" type="curve" smooth="yes"/>
      <point x="270" y="547"/>
      <point x="208" y="547"/>
      <point x="151" y="547" type="curve"/>
      <point x="107" y="371" type="line" smooth="yes"/>
      <point x="106" y="365"/>
      <point x="109" y="360"/>
      <point x="115" y="360" type="curve" smooth="yes"/>
      <point x="173" y="360"/>
      <point x="234" y="360"/>
    </contour>
    <contour>
      <point x="25" y="-231" type="curve" smooth="yes"/>
      <point x="30" y="-231"/>
      <point x="34" y="-230"/>
      <point x="38" y="-224" type="curve"/>
      <point x="105" y="-118"/>
      <point x="182" y="4"/>
      <point x="239" y="91" type="curve"/>
      <point x="244" y="99"/>
      <point x="242" y="104"/>
      <point x="234" y="104" type="curve" smooth="yes"/>
      <point x="169" y="104"/>
      <point x="131" y="104"/>
      <point x="55" y="104" type="curve"/>
      <point x="3" y="-7"/>
      <point x="-49" y="-120"/>
      <point x="-101" y="-231" type="curve"/>
      <point x="-67" y="-231"/>
      <point x="-30" y="-231"/>
    </contour>
  </outline>
</glyph>
<glyph name="equal" format="1">
  <advance width="600"/>
  <unicode hex="003D"/>
  <outline>
    <contour>
      <point x="118" y="491" type="line"/>
      <point x="108" y="451"/>
      <point x="100" y="417"/>
      <point x="90" y="376" type="curve" smooth="yes"/>
      <point x="89" y="373"/>
      <point x="89" y="370"/>
      <point x="91" y="368" type="curve" smooth="yes"/>
      <point x="92" y="366"/>
      <point x="95" y="365"/>
      <point x="98" y="365" type="curve"/>
      <point x="561" y="365" type="line"/>
      <point x="571" y="406"/>
      <point x="580" y="440"/>
      <point x="590" y="480" type="curve" smooth="yes"/>
      <point x="592" y="486"/>
      <point x="588" y="491"/>
      <point x="582" y="491" type="curve"/>
    </contour>
    <contour>
      <point x="497" y="107" type="line"/>
      <point x="507" y="147"/>
      <point x="515" y="182"/>
      <point x="526" y="222" type="curve" smooth="yes"/>
      <point x="526" y="225"/>
      <point x="526" y="228"/>
      <point x="525" y="230" type="curve" smooth="yes"/>
      <point x="523" y="232"/>
      <point x="520" y="233"/>
      <point x="517" y="233" type="curve"/>
      <point x="54" y="233" type="line"/>
      <point x="44" y="193"/>
      <point x="35" y="158"/>
      <point x="25" y="118" type="curve" smooth="yes"/>
      <point x="24" y="112"/>
      <point x="27" y="107"/>
      <point x="33" y="107" type="curve"/>
    </contour>
  </outline>
</glyph>
<glyph name="greater" format="1">
  <advance width="591"/>
  <unicode hex="003E"/>
  <outline>
    <contour>
      <point x="49" y="145" type="curve"/>
      <point x="19" y="23" type="line"/>
      <point x="17" y="18"/>
      <point x="19" y="14"/>
      <point x="25" y="14" type="curve" smooth="yes"/>
      <point x="29" y="14"/>
      <point x="33" y="15"/>
      <point x="49" y="21" type="curve" smooth="yes"/>
      <point x="98" y="41"/>
      <point x="349" y="143"/>
      <point x="505" y="207" type="curve"/>
      <point x="545" y="366" type="line"/>
      <point x="524" y="343"/>
      <point x="502" y="326"/>
      <point x="441" y="303" type="curve"/>
      <point x="311" y="250"/>
      <point x="180" y="198"/>
    </contour>
    <contour>
      <point x="162" y="591" type="curve"/>
      <point x="151" y="549"/>
      <point x="141" y="511"/>
      <point x="131" y="468" type="curve" smooth="yes"/>
      <point x="128" y="459"/>
      <point x="129" y="456"/>
      <point x="138" y="451" type="curve" smooth="yes"/>
      <point x="221" y="409"/>
      <point x="308" y="364"/>
      <point x="393" y="322" type="curve" smooth="yes"/>
      <point x="401" y="318"/>
      <point x="402" y="313"/>
      <point x="400" y="304" type="curve" smooth="yes"/>
      <point x="395" y="284"/>
      <point x="389" y="260"/>
      <point x="380" y="225" type="curve"/>
      <point x="475" y="226"/>
      <point x="528" y="299"/>
      <point x="543" y="356" type="curve" smooth="yes"/>
      <point x="549" y="383" type="line" smooth="yes"/>
      <point x="552" y="392"/>
      <point x="549" y="399"/>
      <point x="540" y="403" type="curve" smooth="yes"/>
      <point x="414" y="466"/>
      <point x="288" y="529"/>
    </contour>
  </outline>
</glyph>
<glyph name="question" format="1">
  <advance width="600"/>
  <unicode hex="003F"/>
  <outline>
    <contour>
      <point x="408" y="720" type="curve" smooth="yes"/>
      <point x="308" y="720"/>
      <point x="216" y="696"/>
      <point x="186" y="672" type="curve" smooth="yes"/>
      <point x="182" y="669"/>
      <point x="180" y="666"/>
      <point x="179" y="661" type="curve" smooth="yes"/>
      <point x="167" y="611"/>
      <point x="154" y="561"/>
      <point x="148" y="538" type="curve"/>
      <point x="167" y="538" type="line"/>
      <point x="235" y="574"/>
      <point x="300" y="588"/>
      <point x="374" y="588" type="curve" smooth="yes"/>
      <point x="464" y="588"/>
      <point x="472" y="564"/>
      <point x="464" y="532" type="curve" smooth="yes"/>
      <point x="458" y="508"/>
      <point x="453" y="490"/>
      <point x="446" y="463" type="curve"/>
      <point x="545" y="464"/>
      <point x="590" y="505"/>
      <point x="602" y="554" type="curve" smooth="yes"/>
      <point x="623" y="640"/>
      <point x="574" y="720"/>
    </contour>
    <contour>
      <point x="485" y="616" type="curve"/>
      <point x="479" y="594"/>
      <point x="471" y="560"/>
      <point x="463" y="528" type="curve" smooth="yes"/>
      <point x="454" y="491"/>
      <point x="442" y="481"/>
      <point x="377" y="443" type="curve" smooth="yes"/>
      <point x="346" y="424" type="line" smooth="yes"/>
      <point x="257" y="372"/>
      <point x="228" y="340"/>
      <point x="214" y="283" type="curve" smooth="yes"/>
      <point x="208" y="260" type="line" smooth="yes"/>
      <point x="206" y="251"/>
      <point x="208" y="249"/>
      <point x="216" y="249" type="curve" smooth="yes"/>
      <point x="340" y="249" type="line"/>
      <point x="341" y="256" type="line" smooth="yes"/>
      <point x="350" y="292"/>
      <point x="363" y="304"/>
      <point x="415" y="333" type="curve" smooth="yes"/>
      <point x="454" y="355" type="line" smooth="yes"/>
      <point x="545" y="407"/>
      <point x="576" y="450"/>
      <point x="594" y="524" type="curve" smooth="yes"/>
      <point x="602" y="554" type="line" smooth="yes"/>
      <point x="612" y="592"/>
      <point x="595" y="616"/>
    </contour>
    <contour>
      <point x="305" y="-9" type="curve"/>
      <point x="346" y="158" type="line" smooth="yes"/>
      <point x="348" y="164"/>
      <point x="344" y="169"/>
      <point x="338" y="169" type="curve" smooth="yes"/>
      <point x="281" y="169"/>
      <point x="220" y="169"/>
      <point x="162" y="169" type="curve"/>
      <point x="120" y="2" type="line" smooth="yes"/>
      <point x="119" y="-4"/>
      <point x="123" y="-9"/>
      <point x="129" y="-9" type="curve" smooth="yes"/>
      <point x="186" y="-9"/>
      <point x="247" y="-9"/>
    </contour>
  </outline>
</glyph>
<glyph name="B" format="1">
  <advance width="600"/>
  <unicode hex="0042"/>
  <outline>
    <contour>
      <point x="151" y="10" type="curve"/>
      <point x="311" y="650" type="line" smooth="yes"/>
      <point x="314" y="660"/>
      <point x="266" y="665"/>
      <point x="178" y="665" type="curve"/>
      <point x="15" y="11" type="line"/>
      <point x="14" y="11"/>
      <point x="76" y="10"/>
    </contour>
    <contour>
      <point x="137" y="700" type="curve"/>
      <point x="130" y="671"/>
      <point x="120" y="628"/>
      <point x="110" y="590" type="curve" smooth="yes"/>
      <point x="109" y="587"/>
      <point x="109" y="584"/>
      <point x="111" y="582" type="curve" smooth="yes"/>
      <point x="112" y="580"/>
      <point x="115" y="579"/>
      <point x="118" y="579" type="curve" smooth="yes"/>
      <point x="134" y="579"/>
      <point x="160" y="579"/>
      <point x="178" y="579" type="curve" smooth="yes"/>
      <point x="246" y="579"/>
      <point x="321" y="579"/>
      <point x="387" y="579" type="curve" smooth="yes"/>
      <point x="464" y="579"/>
      <point x="479" y="579"/>
      <point x="524" y="579" type="curve"/>
      <point x="541" y="647"/>
      <point x="509" y="700"/>
      <point x="407" y="700" type="curve" smooth="yes"/>
      <point x="328" y="700"/>
      <point x="220" y="700"/>
    </contour>
    <contour>
      <point x="587" y="494" type="curve" smooth="yes"/>
      <point x="594" y="522" type="line" smooth="yes"/>
      <point x="615" y="608"/>
      <point x="579" y="700"/>
      <point x="407" y="700" type="curve" smooth="yes"/>
      <point x="389" y="700"/>
      <point x="386" y="685"/>
      <point x="387" y="579" type="curve"/>
      <point x="445" y="579"/>
      <point x="465" y="556"/>
      <point x="453" y="509" type="curve" smooth="yes"/>
      <point x="445" y="473" type="line" smooth="yes"/>
      <point x="433" y="426"/>
      <point x="402" y="400"/>
      <point x="337" y="400" type="curve" smooth="yes"/>
      <point x="288" y="400"/>
      <point x="257" y="400"/>
      <point x="210" y="400" type="curve"/>
      <point x="207" y="387"/>
      <point x="202" y="369"/>
      <point x="199" y="355" type="curve" smooth="yes"/>
      <point x="197" y="349"/>
      <point x="202" y="344"/>
      <point x="211" y="344" type="curve" smooth="yes"/>
      <point x="357" y="344" type="line" smooth="yes"/>
      <point x="473" y="344"/>
      <point x="564" y="402"/>
    </contour>
    <contour>
      <point x="516" y="171" type="curve" smooth="yes"/>
      <point x="525" y="205" type="line" smooth="yes"/>
      <point x="550" y="299"/>
      <point x="477" y="367"/>
      <point x="361" y="367" type="curve" smooth="yes"/>
      <point x="217" y="367" type="line" smooth="yes"/>
      <point x="211" y="367"/>
      <point x="200" y="362"/>
      <point x="199" y="357" type="curve"/>
      <point x="186" y="307" type="line"/>
      <point x="315" y="307" type="line"/>
      <point x="386" y="307"/>
      <point x="406" y="276"/>
      <point x="394" y="228" type="curve" smooth="yes"/>
      <point x="384" y="188" type="line" smooth="yes"/>
      <point x="372" y="145"/>
      <point x="339" y="121"/>
      <point x="280" y="121" type="curve" smooth="yes"/>
      <point x="235" y="121"/>
      <point x="172" y="121"/>
      <point x="109" y="121" type="curve"/>
      <point x="24" y="29"/>
      <point x="15" y="15"/>
      <point x="15" y="11" type="curve" smooth="yes"/>
      <point x="13" y="4"/>
      <point x="16" y="0"/>
      <point x="23" y="0" type="curve" smooth="yes"/>
      <point x="259" y="0" type="line" smooth="yes"/>
      <point x="388" y="0"/>
      <point x="486" y="54"/>
    </contour>
  </outline>
</glyph>
<glyph name="C" format="1">
  <advance width="600"/>
  <unicode hex="0043"/>
  <outline>
    <contour>
      <point x="410" y="598" type="curve" smooth="yes"/>
      <point x="477" y="598"/>
      <point x="511" y="577"/>
      <point x="539" y="546" type="curve"/>
      <point x="613" y="606"/>
      <point x="627" y="620"/>
      <point x="630" y="634" type="curve" smooth="yes"/>
      <point x="633" y="645"/>
      <point x="633" y="648"/>
      <point x="629" y="653" type="curve" smooth="yes"/>
      <point x="603" y="686"/>
      <point x="536" y="720"/>
      <point x="424" y="720" type="curve" smooth="yes"/>
      <point x="259" y="720"/>
      <point x="146" y="636"/>
      <point x="105" y="475" type="curve" smooth="yes"/>
      <point x="54" y="271" type="line" smooth="yes"/>
      <point x="30" y="177"/>
      <point x="70" y="109"/>
      <point x="155" y="110" type="curve"/>
      <point x="165" y="152"/>
      <point x="175" y="189"/>
      <point x="193" y="260" type="curve" smooth="yes"/>
      <point x="243" y="461" type="line" smooth="yes"/>
      <point x="268" y="558"/>
      <point x="327" y="598"/>
    </contour>
    <contour>
      <point x="280" y="-20" type="curve" smooth="yes"/>
      <point x="367" y="-20"/>
      <point x="449" y="4"/>
      <point x="483" y="32" type="curve" smooth="yes"/>
      <point x="485" y="34"/>
      <point x="487" y="37"/>
      <point x="488" y="40" type="curve" smooth="yes"/>
      <point x="498" y="79"/>
      <point x="508" y="120"/>
      <point x="517" y="159" type="curve"/>
      <point x="499" y="159" type="line"/>
      <point x="436" y="124"/>
      <point x="378" y="108"/>
      <point x="299" y="108" type="curve" smooth="yes"/>
      <point x="200" y="108"/>
      <point x="166" y="151"/>
      <point x="193" y="260" type="curve"/>
      <point x="69" y="284"/>
      <point x="58" y="285"/>
      <point x="54" y="271" type="curve" smooth="yes"/>
      <point x="8" y="84"/>
      <point x="81" y="-20"/>
    </contour>
    <contour>
      <point x="588" y="465" type="curve"/>
      <point x="630" y="634" type="line" smooth="yes"/>
      <point x="633" y="647"/>
      <point x="602" y="654"/>
      <point x="511" y="654" type="curve"/>
      <point x="507" y="639"/>
      <point x="502" y="620"/>
      <point x="499" y="608" type="curve" smooth="yes"/>
      <point x="466" y="476" type="line"/>
      <point x="465" y="473"/>
      <point x="465" y="470"/>
      <point x="467" y="468" type="curve" smooth="yes"/>
      <point x="469" y="466"/>
      <point x="471" y="465"/>
      <point x="474" y="465" type="curve"/>
      <point x="512" y="465"/>
      <point x="550" y="465"/>
    </contour>
    <contour>
      <point x="416" y="711" type="move" name="top"/>
    </contour>
    <contour>
      <point x="255" y="0" type="move" name="bottom"/>
    </contour>
  </outline>
</glyph>
<glyph name="D" format="1">
  <advance width="650"/>
  <unicode hex="0044"/>
  <outline>
    <contour>
      <point x="163" y="42" type="curve"/>
      <point x="314" y="644" type="line" smooth="yes"/>
      <point x="315" y="650"/>
      <point x="312" y="655"/>
      <point x="175" y="655" type="curve"/>
      <point x="25" y="52" type="line" smooth="yes"/>
      <point x="23" y="46"/>
      <point x="27" y="42"/>
    </contour>
    <contour>
      <point x="137" y="700" type="curve"/>
      <point x="128" y="662"/>
      <point x="118" y="623"/>
      <point x="109" y="585" type="curve"/>
      <point x="108" y="582"/>
      <point x="108" y="579"/>
      <point x="110" y="577" type="curve" smooth="yes"/>
      <point x="111" y="575"/>
      <point x="114" y="574"/>
      <point x="117" y="574" type="curve" smooth="yes"/>
      <point x="131" y="574"/>
      <point x="156" y="574"/>
      <point x="170" y="574" type="curve" smooth="yes"/>
      <point x="229" y="574"/>
      <point x="319" y="574"/>
      <point x="378" y="574" type="curve"/>
      <point x="440" y="574"/>
      <point x="464" y="574"/>
      <point x="501" y="574" type="curve"/>
      <point x="519" y="648"/>
      <point x="507" y="700"/>
      <point x="396" y="700" type="curve" smooth="yes"/>
      <point x="325" y="700"/>
      <point x="212" y="700"/>
    </contour>
    <contour>
      <point x="586" y="251" type="curve" smooth="yes"/>
      <point x="628" y="416" type="line" smooth="yes"/>
      <point x="675" y="603"/>
      <point x="573" y="700"/>
      <point x="396" y="700" type="curve" smooth="yes"/>
      <point x="386" y="700"/>
      <point x="384" y="690"/>
      <point x="378" y="574" type="curve"/>
      <point x="489" y="574"/>
      <point x="521" y="520"/>
      <point x="497" y="425" type="curve" smooth="yes"/>
      <point x="456" y="263" type="line" smooth="yes"/>
      <point x="431" y="164"/>
      <point x="366" y="126"/>
      <point x="273" y="126" type="curve" smooth="yes"/>
      <point x="223" y="126"/>
      <point x="87" y="126"/>
      <point x="45" y="126" type="curve"/>
      <point x="34" y="85"/>
      <point x="27" y="60"/>
      <point x="14" y="11" type="curve" smooth="yes"/>
      <point x="13" y="5"/>
      <point x="17" y="0"/>
      <point x="23" y="0" type="curve" smooth="yes"/>
      <point x="246" y="0" type="line" smooth="yes"/>
      <point x="432" y="0"/>
      <point x="542" y="75"/>
    </contour>
    <contour>
      <point x="420" y="711" type="move" name="top"/>
    </contour>
  </outline>
</glyph>
<glyph name="E" format="1">
  <advance width="550"/>
  <unicode hex="0045"/>
  <outline>
    <contour>
      <point x="136" y="700" type="line"/>
      <point x="126" y="662"/>
      <point x="117" y="623"/>
      <point x="107" y="585" type="curve" smooth="yes"/>
      <point x="106" y="582"/>
      <point x="106" y="579"/>
      <point x="108" y="577" type="curve" smooth="yes"/>
      <point x="109" y="575"/>
      <point x="112" y="574"/>
      <point x="115" y="574" type="curve" smooth="yes"/>
      <point x="574" y="574" type="line"/>
      <point x="584" y="612"/>
      <point x="593" y="651"/>
      <point x="603" y="689" type="curve" smooth="yes"/>
      <point x="604" y="692"/>
      <point x="603" y="695"/>
      <point x="602" y="697" type="curve" smooth="yes"/>
      <point x="600" y="699"/>
      <point x="598" y="700"/>
      <point x="595" y="700" type="curve" smooth="yes"/>
    </contour>
    <contour>
      <point x="173" y="87" type="curve"/>
      <point x="313" y="646" type="line" smooth="yes"/>
      <point x="314" y="652"/>
      <point x="310" y="657"/>
      <point x="174" y="657" type="curve"/>
      <point x="35" y="98" type="line"/>
      <point x="33" y="92"/>
      <point x="37" y="87"/>
    </contour>
    <contour>
      <point x="41" y="126" type="line"/>
      <point x="13" y="11" type="line" smooth="yes"/>
      <point x="11" y="5"/>
      <point x="15" y="0"/>
      <point x="21" y="0" type="curve" smooth="yes"/>
      <point x="431" y="0" type="line"/>
      <point x="440" y="38"/>
      <point x="450" y="77"/>
      <point x="459" y="115" type="curve" smooth="yes"/>
      <point x="461" y="121"/>
      <point x="457" y="126"/>
      <point x="451" y="126" type="curve" smooth="yes"/>
    </contour>
    <contour>
      <point x="175" y="413" type="line"/>
      <point x="146" y="299"/>
      <point x="149" y="291"/>
      <point x="155" y="291" type="curve" smooth="yes"/>
      <point x="445" y="291" type="line"/>
      <point x="453" y="324"/>
      <point x="463" y="362"/>
      <point x="473" y="402" type="curve" smooth="yes"/>
      <point x="474" y="405"/>
      <point x="473" y="408"/>
      <point x="472" y="410" type="curve" smooth="yes"/>
      <point x="470" y="412"/>
      <point x="468" y="413"/>
      <point x="465" y="413" type="curve" smooth="yes"/>
    </contour>
    <contour>
      <point x="369" y="711" type="move" name="top"/>
    </contour>
    <contour>
      <point x="422" y="-1" type="move" name="ogonek"/>
    </contour>
    <contour>
      <point x="191" y="-1" type="move" name="bottom"/>
    </contour>
  </outline>
</glyph>
<glyph name="F" format="1">
  <advance width="550"/>
  <unicode hex="0046"/>
  <outline>
    <contour>
      <point x="171" y="0" type="curve"/>
      <point x="178" y="29"/>
      <point x="187" y="63"/>
      <point x="196" y="98" type="curve" smooth="yes"/>
      <point x="331" y="640" type="line"/>
      <point x="333" y="650"/>
      <point x="323" y="656"/>
      <point x="194" y="656" type="curve"/>
      <point x="33" y="11" type="line" smooth="yes"/>
      <point x="31" y="5"/>
      <point x="35" y="0"/>
      <point x="41" y="0" type="curve" smooth="yes"/>
      <point x="85" y="0"/>
      <point x="127" y="0"/>
    </contour>
    <contour>
      <point x="156" y="700" type="line"/>
      <point x="146" y="662"/>
      <point x="137" y="623"/>
      <point x="127" y="585" type="curve" smooth="yes"/>
      <point x="126" y="582"/>
      <point x="126" y="579"/>
      <point x="128" y="577" type="curve" smooth="yes"/>
      <point x="129" y="575"/>
      <point x="132" y="574"/>
      <point x="135" y="574" type="curve"/>
      <point x="566" y="574" type="line"/>
      <point x="576" y="612"/>
      <point x="585" y="651"/>
      <point x="595" y="689" type="curve" smooth="yes"/>
      <point x="595" y="692"/>
      <point x="595" y="695"/>
      <point x="594" y="697" type="curve" smooth="yes"/>
      <point x="592" y="699"/>
      <point x="589" y="700"/>
      <point x="586" y="700" type="curve"/>
    </contour>
    <contour>
      <point x="188" y="385" type="line"/>
      <point x="161" y="280"/>
      <point x="159" y="259"/>
      <point x="167" y="259" type="curve"/>
      <point x="454" y="259" type="line"/>
      <point x="463" y="297"/>
      <point x="473" y="336"/>
      <point x="482" y="374" type="curve"/>
      <point x="483" y="377"/>
      <point x="483" y="380"/>
      <point x="481" y="382" type="curve" smooth="yes"/>
      <point x="480" y="384"/>
      <point x="477" y="385"/>
      <point x="474" y="385" type="curve"/>
    </contour>
  </outline>
</glyph>
<glyph name="G" format="1">
  <advance width="650"/>
  <unicode hex="0047"/>
  <outline>
    <contour>
      <point x="418" y="597" type="curve" smooth="yes"/>
      <point x="498" y="597"/>
      <point x="535" y="585"/>
      <point x="571" y="548" type="curve"/>
      <point x="655" y="620"/>
      <point x="662" y="630"/>
      <point x="664" y="638" type="curve" smooth="yes"/>
      <point x="666" y="648"/>
      <point x="666" y="652"/>
      <point x="663" y="657" type="curve" smooth="yes"/>
      <point x="640" y="686"/>
      <point x="566" y="720"/>
      <point x="444" y="720" type="curve" smooth="yes"/>
      <point x="264" y="720"/>
      <point x="145" y="633"/>
      <point x="99" y="449" type="curve" smooth="yes"/>
      <point x="51" y="256" type="line" smooth="yes"/>
      <point x="32" y="181"/>
      <point x="69" y="107"/>
      <point x="147" y="107" type="curve"/>
      <point x="159" y="153"/>
      <point x="168" y="190"/>
      <point x="184" y="253" type="curve" smooth="yes"/>
      <point x="232" y="450" type="line" smooth="yes"/>
      <point x="257" y="548"/>
      <point x="321" y="597"/>
    </contour>
    <contour>
      <point x="301" y="104" type="curve" smooth="yes"/>
      <point x="208" y="104"/>
      <point x="157" y="147"/>
      <point x="184" y="253" type="curve"/>
      <point x="64" y="274"/>
      <point x="55" y="272"/>
      <point x="51" y="256" type="curve" smooth="yes"/>
      <point x="8" y="85"/>
      <point x="95" y="-20"/>
      <point x="276" y="-20" type="curve" smooth="yes"/>
      <point x="453" y="-20"/>
      <point x="522" y="62"/>
      <point x="527" y="78" type="curve" smooth="yes"/>
      <point x="579" y="283" type="line" smooth="yes"/>
      <point x="583" y="301"/>
      <point x="498" y="308"/>
      <point x="460" y="308" type="curve"/>
      <point x="446" y="256"/>
      <point x="431" y="198"/>
      <point x="418" y="145" type="curve" smooth="yes"/>
      <point x="415" y="135"/>
      <point x="382" y="104"/>
    </contour>
    <contour>
      <point x="364" y="381" type="line"/>
      <point x="355" y="346"/>
      <point x="347" y="312"/>
      <point x="338" y="277" type="curve" smooth="yes"/>
      <point x="337" y="274"/>
      <point x="337" y="271"/>
      <point x="339" y="269" type="curve" smooth="yes"/>
      <point x="340" y="267"/>
      <point x="343" y="266"/>
      <point x="346" y="266" type="curve"/>
      <point x="611" y="266" type="line"/>
      <point x="637" y="370" type="line" smooth="yes"/>
      <point x="638" y="376"/>
      <point x="635" y="381"/>
      <point x="629" y="381" type="curve" smooth="yes"/>
    </contour>
    <contour>
      <point x="628" y="495" type="curve"/>
      <point x="664" y="638" type="line" smooth="yes"/>
      <point x="666" y="649"/>
      <point x="657" y="655"/>
      <point x="543" y="655" type="curve"/>
      <point x="539" y="641"/>
      <point x="534" y="621"/>
      <point x="532" y="608" type="curve" smooth="yes"/>
      <point x="506" y="506" type="line" smooth="yes"/>
      <point x="504" y="499"/>
      <point x="507" y="495"/>
      <point x="514" y="495" type="curve" smooth="yes"/>
      <point x="552" y="495"/>
      <point x="590" y="495"/>
    </contour>
    <contour>
      <point x="443" y="711" type="move" name="top"/>
    </contour>
    <contour>
      <point x="265" y="-1" type="move" name="bottom"/>
    </contour>
  </outline>
</glyph>
<glyph name="H" format="1">
  <advance width="650"/>
  <unicode hex="0048"/>
  <outline>
    <contour>
      <point x="181" y="700" type="curve"/>
      <point x="172" y="665"/>
      <point x="163" y="630"/>
      <point x="154" y="594" type="curve" smooth="yes"/>
      <point x="9" y="11" type="line" smooth="yes"/>
      <point x="7" y="5"/>
      <point x="11" y="0"/>
      <point x="17" y="0" type="curve" smooth="yes"/>
      <point x="60" y="0"/>
      <point x="103" y="0"/>
      <point x="147" y="0" type="curve"/>
      <point x="319" y="689" type="line" smooth="yes"/>
      <point x="320" y="692"/>
      <point x="320" y="695"/>
      <point x="318" y="697" type="curve" smooth="yes"/>
      <point x="317" y="699"/>
      <point x="314" y="700"/>
      <point x="311" y="700" type="curve" smooth="yes"/>
      <point x="267" y="700"/>
      <point x="224" y="700"/>
    </contour>
    <contour>
      <point x="509" y="0" type="curve"/>
      <point x="517" y="32"/>
      <point x="526" y="69"/>
      <point x="536" y="108" type="curve" smooth="yes"/>
      <point x="681" y="689" type="line" smooth="yes"/>
      <point x="683" y="695"/>
      <point x="679" y="700"/>
      <point x="673" y="700" type="curve" smooth="yes"/>
      <point x="629" y="700"/>
      <point x="586" y="700"/>
      <point x="543" y="700" type="curve"/>
      <point x="371" y="11" type="line" smooth="yes"/>
      <point x="370" y="8"/>
      <point x="370" y="5"/>
      <point x="372" y="3" type="curve" smooth="yes"/>
      <point x="373" y="1"/>
      <point x="376" y="0"/>
      <point x="379" y="0" type="curve" smooth="yes"/>
      <point x="422" y="0"/>
      <point x="465" y="0"/>
    </contour>
    <contour>
      <point x="169" y="413" type="line"/>
      <point x="140" y="298" type="line" smooth="yes"/>
      <point x="140" y="295"/>
      <point x="140" y="292"/>
      <point x="141" y="290" type="curve" smooth="yes"/>
      <point x="143" y="288"/>
      <point x="146" y="287"/>
      <point x="149" y="287" type="curve"/>
      <point x="519" y="287" type="line"/>
      <point x="549" y="407"/>
      <point x="546" y="413"/>
      <point x="540" y="413" type="curve" smooth="yes"/>
    </contour>
    <contour>
      <point x="435" y="711" type="move" name="top"/>
    </contour>
  </outline>
</glyph>
<glyph name="I" format="1">
  <advance width="500"/>
  <unicode hex="0049"/>
  <outline>
    <contour>
      <point x="264" y="45" type="curve"/>
      <point x="414" y="645" type="line" smooth="yes"/>
      <point x="416" y="651"/>
      <point x="412" y="655"/>
      <point x="276" y="655" type="curve"/>
      <point x="126" y="56" type="line" smooth="yes"/>
      <point x="124" y="50"/>
      <point x="128" y="45"/>
    </contour>
    <contour>
      <point x="179" y="700" type="line"/>
      <point x="170" y="662"/>
      <point x="160" y="623"/>
      <point x="150" y="585" type="curve"/>
      <point x="150" y="582"/>
      <point x="150" y="579"/>
      <point x="151" y="577" type="curve" smooth="yes"/>
      <point x="153" y="575"/>
      <point x="156" y="574"/>
      <point x="159" y="574" type="curve" smooth="yes"/>
      <point x="504" y="574" type="line"/>
      <point x="514" y="612"/>
      <point x="523" y="651"/>
      <point x="533" y="689" type="curve" smooth="yes"/>
      <point x="534" y="695"/>
      <point x="531" y="700"/>
      <point x="525" y="700" type="curve" smooth="yes"/>
    </contour>
    <contour>
      <point x="35" y="126" type="line"/>
      <point x="26" y="88"/>
      <point x="16" y="49"/>
      <point x="7" y="11" type="curve"/>
      <point x="6" y="8"/>
      <point x="6" y="5"/>
      <point x="8" y="3" type="curve" smooth="yes"/>
      <point x="9" y="1"/>
      <point x="12" y="0"/>
      <point x="15" y="0" type="curve" smooth="yes"/>
      <point x="361" y="0" type="line"/>
      <point x="370" y="38"/>
      <point x="380" y="77"/>
      <point x="389" y="115" type="curve" smooth="yes"/>
      <point x="391" y="121"/>
      <point x="387" y="126"/>
      <point x="381" y="126" type="curve" smooth="yes"/>
    </contour>
    <contour>
      <point x="360" y="711" type="move" name="top"/>
    </contour>
    <contour>
      <point x="360" y="-1" type="move" name="ogonek"/>
    </contour>
    <contour>
      <point x="182" y="-1" type="move" name="bottom"/>
    </contour>
  </outline>
</glyph>
<glyph name="J" format="1">
  <advance width="500"/>
  <unicode hex="004A"/>
  <outline>
    <contour>
      <point x="198" y="700" type="line"/>
      <point x="189" y="662"/>
      <point x="179" y="623"/>
      <point x="170" y="585" type="curve" smooth="yes"/>
      <point x="169" y="582"/>
      <point x="169" y="579"/>
      <point x="171" y="577" type="curve" smooth="yes"/>
      <point x="172" y="575"/>
      <point x="175" y="574"/>
      <point x="178" y="574" type="curve" smooth="yes"/>
      <point x="466" y="574" type="line"/>
      <point x="480" y="627"/>
      <point x="479" y="700"/>
      <point x="434" y="700" type="curve"/>
    </contour>
    <contour>
      <point x="413" y="204" type="curve" smooth="yes"/>
      <point x="534" y="689" type="line" smooth="yes"/>
      <point x="536" y="695"/>
      <point x="533" y="700"/>
      <point x="526" y="700" type="curve" smooth="yes"/>
      <point x="405" y="700" type="line"/>
      <point x="286" y="226" type="line" smooth="yes"/>
      <point x="268" y="154"/>
      <point x="262" y="131"/>
      <point x="249" y="80" type="curve"/>
      <point x="315" y="80"/>
      <point x="386" y="97"/>
    </contour>
    <contour>
      <point x="154" y="112" type="curve" smooth="yes"/>
      <point x="107" y="112"/>
      <point x="70" y="124"/>
      <point x="31" y="145" type="curve"/>
      <point x="12" y="145" type="line"/>
      <point x="3" y="107"/>
      <point x="-5" y="74"/>
      <point x="-15" y="36" type="curve"/>
      <point x="-16" y="32"/>
      <point x="-16" y="30"/>
      <point x="-14" y="27" type="curve" smooth="yes"/>
      <point x="-1" y="12"/>
      <point x="66" y="-13"/>
      <point x="124" y="-13" type="curve" smooth="yes"/>
      <point x="145" y="-13" type="line" smooth="yes"/>
      <point x="290" y="-13"/>
      <point x="375" y="51"/>
      <point x="413" y="204" type="curve"/>
      <point x="416" y="214"/>
      <point x="413" y="242"/>
      <point x="286" y="226" type="curve"/>
      <point x="263" y="134"/>
      <point x="227" y="112"/>
    </contour>
    <contour>
      <point x="365" y="711" type="move" name="top"/>
    </contour>
  </outline>
</glyph>
<glyph name="K" format="1">
  <advance width="600"/>
  <unicode hex="004B"/>
  <outline>
    <contour>
      <point x="181" y="700" type="curve"/>
      <point x="172" y="665"/>
      <point x="163" y="630"/>
      <point x="154" y="594" type="curve" smooth="yes"/>
      <point x="9" y="11" type="line" smooth="yes"/>
      <point x="7" y="5"/>
      <point x="11" y="0"/>
      <point x="17" y="0" type="curve" smooth="yes"/>
      <point x="60" y="0"/>
      <point x="103" y="0"/>
      <point x="147" y="0" type="curve"/>
      <point x="319" y="689" type="line" smooth="yes"/>
      <point x="320" y="692"/>
      <point x="320" y="695"/>
      <point x="318" y="697" type="curve" smooth="yes"/>
      <point x="317" y="699"/>
      <point x="314" y="700"/>
      <point x="311" y="700" type="curve" smooth="yes"/>
      <point x="267" y="700"/>
      <point x="224" y="700"/>
    </contour>
    <contour>
      <point x="661" y="700" type="curve"/>
      <point x="512" y="700" type="line"/>
      <point x="387" y="558"/>
      <point x="257" y="412"/>
      <point x="134" y="271" type="curve"/>
      <point x="123" y="259"/>
      <point x="123" y="242"/>
      <point x="154" y="141" type="curve"/>
      <point x="348" y="346"/>
      <point x="499" y="506"/>
      <point x="614" y="629" type="curve" smooth="yes"/>
      <point x="664" y="684"/>
      <point x="667" y="688"/>
      <point x="668" y="693" type="curve" smooth="yes"/>
      <point x="669" y="696"/>
      <point x="666" y="700"/>
    </contour>
    <contour>
      <point x="353" y="414" type="line"/>
      <point x="250" y="309"/>
      <point x="252" y="291"/>
      <point x="256" y="280" type="curve" smooth="yes"/>
      <point x="339" y="64" type="line" smooth="yes"/>
      <point x="360" y="10"/>
      <point x="382" y="-8"/>
      <point x="446" y="-8" type="curve" smooth="yes"/>
      <point x="487" y="-8" type="line" smooth="yes"/>
      <point x="494" y="-8"/>
      <point x="499" y="-4"/>
      <point x="501" y="3" type="curve" smooth="yes"/>
      <point x="512" y="43"/>
      <point x="522" y="84"/>
      <point x="532" y="124" type="curve"/>
      <point x="526" y="124" type="line"/>
      <point x="517" y="124"/>
      <point x="512" y="124"/>
      <point x="501" y="124" type="curve" smooth="yes"/>
      <point x="469" y="124"/>
      <point x="461" y="129"/>
      <point x="451" y="154" type="curve" smooth="yes"/>
    </contour>
    <contour>
      <point x="253" y="-1" type="move" name="bottom"/>
    </contour>
  </outline>
</glyph>
<glyph name="L" format="1">
  <advance width="550"/>
  <unicode hex="004C"/>
  <outline>
    <contour>
      <point x="169" y="87" type="curve"/>
      <point x="319" y="689" type="line" smooth="yes"/>
      <point x="320" y="692"/>
      <point x="320" y="695"/>
      <point x="318" y="697" type="curve" smooth="yes"/>
      <point x="317" y="699"/>
      <point x="314" y="700"/>
      <point x="311" y="700" type="curve" smooth="yes"/>
      <point x="267" y="700"/>
      <point x="224" y="700"/>
      <point x="181" y="700" type="curve"/>
      <point x="173" y="667"/>
      <point x="164" y="633"/>
      <point x="156" y="600" type="curve" smooth="yes"/>
      <point x="30" y="98" type="line" smooth="yes"/>
      <point x="29" y="92"/>
      <point x="33" y="87"/>
    </contour>
    <contour>
      <point x="37" y="126" type="line"/>
      <point x="9" y="11" type="line" smooth="yes"/>
      <point x="7" y="5"/>
      <point x="11" y="0"/>
      <point x="17" y="0" type="curve" smooth="yes"/>
      <point x="431" y="0" type="line"/>
      <point x="440" y="38"/>
      <point x="450" y="77"/>
      <point x="459" y="115" type="curve" smooth="yes"/>
      <point x="461" y="121"/>
      <point x="457" y="126"/>
      <point x="451" y="126" type="curve" smooth="yes"/>
    </contour>
    <contour>
      <point x="479" y="550" type="move" name="caronslovak"/>
    </contour>
    <contour>
      <point x="254" y="711" type="move" name="top"/>
    </contour>
    <contour>
      <point x="468" y="400" type="move" name="dot"/>
    </contour>
    <contour>
      <point x="218" y="-1" type="move" name="bottom"/>
    </contour>
  </outline>
</glyph>
<glyph name="M" format="1">
  <advance width="800"/>
  <unicode hex="004D"/>
  <outline>
    <contour>
      <point x="135" y="0" type="curve"/>
      <point x="152" y="68"/>
      <point x="169" y="135"/>
      <point x="186" y="202" type="curve" smooth="yes"/>
      <point x="222" y="366"/>
      <point x="258" y="529"/>
      <point x="293" y="689" type="curve" smooth="yes"/>
      <point x="293" y="692"/>
      <point x="293" y="695"/>
      <point x="292" y="697" type="curve" smooth="yes"/>
      <point x="290" y="699"/>
      <point x="287" y="700"/>
      <point x="284" y="700" type="curve" smooth="yes"/>
      <point x="250" y="700"/>
      <point x="216" y="700"/>
      <point x="181" y="700" type="curve"/>
      <point x="172" y="662"/>
      <point x="162" y="625"/>
      <point x="153" y="587" type="curve" smooth="yes"/>
      <point x="105" y="395"/>
      <point x="57" y="203"/>
      <point x="9" y="11" type="curve" smooth="yes"/>
      <point x="8" y="8"/>
      <point x="8" y="5"/>
      <point x="10" y="3" type="curve" smooth="yes"/>
      <point x="11" y="1"/>
      <point x="14" y="0"/>
      <point x="17" y="0" type="curve" smooth="yes"/>
      <point x="56" y="0"/>
      <point x="96" y="0"/>
    </contour>
    <contour>
      <point x="659" y="0" type="curve"/>
      <point x="668" y="37"/>
      <point x="678" y="75"/>
      <point x="687" y="112" type="curve" smooth="yes"/>
      <point x="735" y="304"/>
      <point x="783" y="497"/>
      <point x="831" y="689" type="curve"/>
      <point x="832" y="692"/>
      <point x="832" y="695"/>
      <point x="830" y="697" type="curve" smooth="yes"/>
      <point x="829" y="699"/>
      <point x="826" y="700"/>
      <point x="823" y="700" type="curve" smooth="yes"/>
      <point x="718" y="700" type="line"/>
      <point x="715" y="686"/>
      <point x="711" y="670"/>
      <point x="706" y="656" type="curve"/>
      <point x="664" y="504"/>
      <point x="620" y="353"/>
      <point x="578" y="203" type="curve" smooth="yes"/>
      <point x="562" y="142"/>
      <point x="547" y="80"/>
      <point x="531" y="18" type="curve" smooth="yes"/>
      <point x="529" y="8"/>
      <point x="530" y="5"/>
      <point x="531" y="3" type="curve" smooth="yes"/>
      <point x="533" y="1"/>
      <point x="535" y="0"/>
      <point x="539" y="0" type="curve" smooth="yes"/>
      <point x="579" y="0"/>
      <point x="619" y="0"/>
    </contour>
    <contour>
      <point x="359" y="687" type="curve" smooth="yes"/>
      <point x="357" y="697"/>
      <point x="354" y="700"/>
      <point x="346" y="700" type="curve"/>
      <point x="234" y="700" type="line"/>
      <point x="237" y="676"/>
      <point x="246" y="653"/>
      <point x="249" y="628" type="curve" smooth="yes"/>
      <point x="269" y="467"/>
      <point x="290" y="305"/>
      <point x="311" y="144" type="curve"/>
      <point x="311" y="140"/>
      <point x="316" y="137"/>
      <point x="320" y="137" type="curve" smooth="yes"/>
      <point x="328" y="137"/>
      <point x="334" y="142"/>
      <point x="419" y="227" type="curve"/>
      <point x="399" y="380"/>
      <point x="379" y="534"/>
    </contour>
    <contour>
      <point x="648" y="700" type="curve"/>
      <point x="550" y="543"/>
      <point x="449" y="384"/>
      <point x="351" y="227" type="curve"/>
      <point x="311" y="152"/>
      <point x="323" y="142"/>
      <point x="320" y="137" type="curve"/>
      <point x="419" y="137" type="line"/>
      <point x="533" y="318"/>
      <point x="648" y="501"/>
      <point x="762" y="683" type="curve" smooth="yes"/>
      <point x="771" y="696"/>
      <point x="768" y="700"/>
      <point x="761" y="700" type="curve" smooth="yes"/>
      <point x="746" y="700"/>
      <point x="656" y="700"/>
    </contour>
  </outline>
</glyph>
<glyph name="N" format="1">
  <advance width="700"/>
  <unicode hex="004E"/>
  <outline>
    <contour>
      <point x="139" y="0" type="curve"/>
      <point x="202" y="253" type="line"/>
      <point x="264" y="561"/>
      <point x="288" y="693"/>
      <point x="285" y="697" type="curve" smooth="yes"/>
      <point x="284" y="699"/>
      <point x="281" y="700"/>
      <point x="278" y="700" type="curve"/>
      <point x="249" y="700"/>
      <point x="187" y="700"/>
      <point x="181" y="700" type="curve"/>
      <point x="169" y="653"/>
      <point x="158" y="607"/>
      <point x="146" y="560" type="curve" smooth="yes"/>
      <point x="9" y="11" type="line"/>
      <point x="7" y="5"/>
      <point x="11" y="0"/>
      <point x="17" y="0" type="curve"/>
      <point x="57" y="0"/>
      <point x="98" y="0"/>
    </contour>
    <contour>
      <point x="559" y="0" type="line"/>
      <point x="731" y="689" type="line"/>
      <point x="733" y="695"/>
      <point x="729" y="700"/>
      <point x="723" y="700" type="curve"/>
      <point x="601" y="700" type="line"/>
      <point x="529" y="411" type="line"/>
      <point x="485" y="162"/>
      <point x="460" y="5"/>
      <point x="461" y="3" type="curve" smooth="yes"/>
      <point x="463" y="1"/>
      <point x="466" y="0"/>
      <point x="469" y="0" type="curve"/>
    </contour>
    <contour>
      <point x="270" y="700" type="line"/>
      <point x="257" y="697"/>
      <point x="253" y="694"/>
      <point x="190" y="633" type="curve"/>
      <point x="271" y="425"/>
      <point x="350" y="216"/>
      <point x="431" y="8" type="curve"/>
      <point x="432" y="1"/>
      <point x="436" y="0"/>
      <point x="441" y="0" type="curve" smooth="yes"/>
      <point x="449" y="0"/>
      <point x="474" y="0"/>
      <point x="481" y="0" type="curve"/>
      <point x="493" y="2"/>
      <point x="514" y="87"/>
      <point x="524" y="135" type="curve"/>
      <point x="453" y="320"/>
      <point x="381" y="505"/>
      <point x="310" y="690" type="curve"/>
      <point x="307" y="699"/>
      <point x="305" y="700"/>
      <point x="294" y="700" type="curve"/>
    </contour>
    <contour>
      <point x="460" y="711" type="move" name="top"/>
    </contour>
    <contour>
      <point x="282" y="-1" type="move" name="bottom"/>
    </contour>
  </outline>
</glyph>
<glyph name="O" format="1">
  <advance width="650"/>
  <unicode hex="004F"/>
  <outline>
    <contour>
      <point x="418" y="720" type="curve" smooth="yes"/>
      <point x="250" y="720"/>
      <point x="147" y="618"/>
      <point x="105" y="450" type="curve" smooth="yes"/>
      <point x="56" y="258" type="line" smooth="yes"/>
      <point x="11" y="77"/>
      <point x="114" y="-20"/>
      <point x="271" y="-20" type="curve" smooth="yes"/>
      <point x="278" y="-20"/>
      <point x="291" y="-3"/>
      <point x="290" y="106" type="curve"/>
      <point x="203" y="106"/>
      <point x="165" y="159"/>
      <point x="189" y="254" type="curve" smooth="yes"/>
      <point x="237" y="446" type="line" smooth="yes"/>
      <point x="261" y="544"/>
      <point x="317" y="594"/>
      <point x="400" y="594" type="curve" smooth="yes"/>
      <point x="461" y="594"/>
      <point x="500" y="594"/>
      <point x="529" y="594" type="curve"/>
      <point x="542" y="650"/>
      <point x="522" y="720"/>
    </contour>
    <contour>
      <point x="271" y="-20" type="curve" smooth="yes"/>
      <point x="433" y="-20"/>
      <point x="540" y="66"/>
      <point x="583" y="237" type="curve" smooth="yes"/>
      <point x="632" y="434" type="line" smooth="yes"/>
      <point x="678" y="619"/>
      <point x="575" y="720"/>
      <point x="418" y="720" type="curve" smooth="yes"/>
      <point x="411" y="720"/>
      <point x="399" y="708"/>
      <point x="400" y="594" type="curve"/>
      <point x="488" y="594"/>
      <point x="526" y="540"/>
      <point x="501" y="446" type="curve" smooth="yes"/>
      <point x="454" y="258" type="line" smooth="yes"/>
      <point x="430" y="161"/>
      <point x="374" y="106"/>
      <point x="290" y="106" type="curve" smooth="yes"/>
      <point x="229" y="106"/>
      <point x="190" y="106"/>
      <point x="161" y="106" type="curve"/>
      <point x="147" y="50"/>
      <point x="167" y="-20"/>
    </contour>
    <contour>
      <point x="435" y="711" type="move" name="top"/>
    </contour>
    <contour>
      <point x="357" y="-1" type="move" name="ogonek"/>
    </contour>
    <contour>
      <point x="257" y="-1" type="move" name="bottom"/>
    </contour>
  </outline>
</glyph>
<glyph name="P" format="1">
  <advance width="600"/>
  <unicode hex="0050"/>
  <outline>
    <contour>
      <point x="149" y="0" type="curve"/>
      <point x="157" y="33"/>
      <point x="165" y="67"/>
      <point x="174" y="100" type="curve" smooth="yes"/>
      <point x="310" y="644" type="line" smooth="yes"/>
      <point x="311" y="650"/>
      <point x="308" y="655"/>
      <point x="176" y="655" type="curve"/>
      <point x="15" y="11" type="line" smooth="yes"/>
      <point x="14" y="8"/>
      <point x="14" y="5"/>
      <point x="16" y="3" type="curve" smooth="yes"/>
      <point x="17" y="1"/>
      <point x="20" y="0"/>
      <point x="23" y="0" type="curve" smooth="yes"/>
      <point x="65" y="0"/>
      <point x="107" y="0"/>
    </contour>
    <contour>
      <point x="146" y="700" type="curve"/>
      <point x="136" y="661"/>
      <point x="128" y="628"/>
      <point x="119" y="590" type="curve"/>
      <point x="118" y="587"/>
      <point x="118" y="584"/>
      <point x="120" y="582" type="curve" smooth="yes"/>
      <point x="121" y="580"/>
      <point x="124" y="579"/>
      <point x="127" y="579" type="curve" smooth="yes"/>
      <point x="146" y="579"/>
      <point x="168" y="579"/>
      <point x="191" y="579" type="curve" smooth="yes"/>
      <point x="254" y="579"/>
      <point x="332" y="579"/>
      <point x="387" y="579" type="curve" smooth="yes"/>
      <point x="438" y="579"/>
      <point x="460" y="579"/>
      <point x="487" y="579" type="curve"/>
      <point x="504" y="650"/>
      <point x="480" y="700"/>
      <point x="413" y="700" type="curve" smooth="yes"/>
      <point x="340" y="700"/>
      <point x="223" y="700"/>
    </contour>
    <contour>
      <point x="578" y="406" type="curve" smooth="yes"/>
      <point x="595" y="476" type="line" smooth="yes"/>
      <point x="629" y="613"/>
      <point x="578" y="700"/>
      <point x="413" y="700" type="curve"/>
      <point x="408" y="700"/>
      <point x="390" y="685"/>
      <point x="387" y="579" type="curve"/>
      <point x="454" y="579"/>
      <point x="473" y="555"/>
      <point x="457" y="492" type="curve" smooth="yes"/>
      <point x="440" y="421" type="line" smooth="yes"/>
      <point x="427" y="372"/>
      <point x="390" y="341"/>
      <point x="341" y="341" type="curve" smooth="yes"/>
      <point x="314" y="341"/>
      <point x="236" y="341"/>
      <point x="194" y="341" type="curve"/>
      <point x="183" y="301"/>
      <point x="178" y="278"/>
      <point x="166" y="231" type="curve" smooth="yes"/>
      <point x="165" y="225"/>
      <point x="169" y="220"/>
      <point x="175" y="220" type="curve" smooth="yes"/>
      <point x="319" y="220" type="line" smooth="yes"/>
      <point x="451" y="220"/>
      <point x="544" y="274"/>
    </contour>
  </outline>
</glyph>
<glyph name="Q" format="1">
  <advance width="650"/>
  <unicode hex="0051"/>
  <outline>
    <contour>
      <point x="418" y="720" type="curve" smooth="yes"/>
      <point x="250" y="720"/>
      <point x="147" y="618"/>
      <point x="105" y="450" type="curve" smooth="yes"/>
      <point x="56" y="258" type="line" smooth="yes"/>
      <point x="11" y="77"/>
      <point x="114" y="-20"/>
      <point x="271" y="-20" type="curve" smooth="yes"/>
      <point x="278" y="-20"/>
      <point x="291" y="-3"/>
      <point x="290" y="106" type="curve"/>
      <point x="203" y="106"/>
      <point x="165" y="159"/>
      <point x="189" y="254" type="curve" smooth="yes"/>
      <point x="237" y="446" type="line" smooth="yes"/>
      <point x="261" y="544"/>
      <point x="317" y="594"/>
      <point x="400" y="594" type="curve" smooth="yes"/>
      <point x="461" y="594"/>
      <point x="500" y="594"/>
      <point x="529" y="594" type="curve"/>
      <point x="543" y="650"/>
      <point x="522" y="720"/>
    </contour>
    <contour>
      <point x="271" y="-20" type="curve" smooth="yes"/>
      <point x="433" y="-20"/>
      <point x="540" y="66"/>
      <point x="583" y="237" type="curve" smooth="yes"/>
      <point x="632" y="434" type="line" smooth="yes"/>
      <point x="678" y="619"/>
      <point x="575" y="720"/>
      <point x="418" y="720" type="curve" smooth="yes"/>
      <point x="411" y="720"/>
      <point x="399" y="708"/>
      <point x="400" y="594" type="curve"/>
      <point x="488" y="594"/>
      <point x="526" y="540"/>
      <point x="501" y="446" type="curve" smooth="yes"/>
      <point x="454" y="258" type="line" smooth="yes"/>
      <point x="430" y="161"/>
      <point x="374" y="106"/>
      <point x="290" y="106" type="curve" smooth="yes"/>
      <point x="229" y="106"/>
      <point x="190" y="106"/>
      <point x="162" y="106" type="curve"/>
      <point x="147" y="50"/>
      <point x="167" y="-20"/>
    </contour>
    <contour>
      <point x="442" y="112" type="line"/>
      <point x="320" y="68"/>
      <point x="312" y="59"/>
      <point x="320" y="39" type="curve" smooth="yes"/>
      <point x="365" y="-81" type="line" smooth="yes"/>
      <point x="385" y="-137"/>
      <point x="408" y="-158"/>
      <point x="477" y="-158" type="curve" smooth="yes"/>
      <point x="500" y="-158" type="line" smooth="yes"/>
      <point x="507" y="-158"/>
      <point x="512" y="-154"/>
      <point x="514" y="-147" type="curve" smooth="yes"/>
      <point x="524" y="-104"/>
      <point x="535" y="-61"/>
      <point x="546" y="-17" type="curve"/>
      <point x="540" y="-17" type="line"/>
      <point x="535" y="-17"/>
      <point x="530" y="-17"/>
      <point x="524" y="-17" type="curve" smooth="yes"/>
      <point x="495" y="-17"/>
      <point x="485" y="-14"/>
      <point x="478" y="10" type="curve" smooth="yes"/>
    </contour>
  </outline>
</glyph>
<glyph name="R" format="1">
  <advance width="600"/>
  <unicode hex="0052"/>
  <outline>
    <contour>
      <point x="149" y="0" type="curve"/>
      <point x="157" y="33"/>
      <point x="165" y="67"/>
      <point x="174" y="100" type="curve" smooth="yes"/>
      <point x="310" y="644" type="line" smooth="yes"/>
      <point x="311" y="650"/>
      <point x="308" y="655"/>
      <point x="176" y="655" type="curve"/>
      <point x="15" y="11" type="line" smooth="yes"/>
      <point x="14" y="8"/>
      <point x="14" y="5"/>
      <point x="16" y="3" type="curve" smooth="yes"/>
      <point x="17" y="1"/>
      <point x="20" y="0"/>
      <point x="23" y="0" type="curve" smooth="yes"/>
      <point x="65" y="0"/>
      <point x="107" y="0"/>
    </contour>
    <contour>
      <point x="146" y="700" type="curve"/>
      <point x="136" y="661"/>
      <point x="128" y="628"/>
      <point x="119" y="590" type="curve"/>
      <point x="118" y="587"/>
      <point x="118" y="584"/>
      <point x="120" y="582" type="curve" smooth="yes"/>
      <point x="121" y="580"/>
      <point x="124" y="579"/>
      <point x="127" y="579" type="curve" smooth="yes"/>
      <point x="146" y="579"/>
      <point x="168" y="579"/>
      <point x="191" y="579" type="curve" smooth="yes"/>
      <point x="253" y="579"/>
      <point x="331" y="579"/>
      <point x="385" y="579" type="curve" smooth="yes"/>
      <point x="436" y="579"/>
      <point x="459" y="579"/>
      <point x="487" y="579" type="curve"/>
      <point x="504" y="650"/>
      <point x="471" y="700"/>
      <point x="404" y="700" type="curve" smooth="yes"/>
      <point x="332" y="700"/>
      <point x="223" y="700"/>
    </contour>
    <contour>
      <point x="568" y="418" type="curve" smooth="yes"/>
      <point x="584" y="478" type="line" smooth="yes"/>
      <point x="619" y="618"/>
      <point x="560" y="700"/>
      <point x="404" y="700" type="curve"/>
      <point x="402" y="700"/>
      <point x="388" y="685"/>
      <point x="385" y="579" type="curve"/>
      <point x="444" y="579"/>
      <point x="462" y="551"/>
      <point x="449" y="497" type="curve" smooth="yes"/>
      <point x="433" y="432" type="line" smooth="yes"/>
      <point x="419" y="379"/>
      <point x="387" y="356"/>
      <point x="330" y="356" type="curve" smooth="yes"/>
      <point x="304" y="356"/>
      <point x="236" y="356"/>
      <point x="197" y="356" type="curve"/>
      <point x="188" y="320"/>
      <point x="182" y="298"/>
      <point x="172" y="254" type="curve" smooth="yes"/>
      <point x="171" y="248"/>
      <point x="174" y="243"/>
      <point x="180" y="243" type="curve" smooth="yes"/>
      <point x="320" y="243" type="line" smooth="yes"/>
      <point x="447" y="243"/>
      <point x="536" y="287"/>
    </contour>
    <contour>
      <point x="403" y="332" type="line"/>
      <point x="288" y="292"/>
      <point x="287" y="281"/>
      <point x="293" y="261" type="curve" smooth="yes"/>
      <point x="351" y="67" type="line" smooth="yes"/>
      <point x="367" y="10"/>
      <point x="394" y="-8"/>
      <point x="462" y="-8" type="curve" smooth="yes"/>
      <point x="479" y="-8" type="line" smooth="yes"/>
      <point x="486" y="-8"/>
      <point x="491" y="-4"/>
      <point x="493" y="3" type="curve" smooth="yes"/>
      <point x="502" y="41"/>
      <point x="513" y="81"/>
      <point x="523" y="120" type="curve"/>
      <point x="517" y="120" type="line"/>
      <point x="512" y="120"/>
      <point x="507" y="120"/>
      <point x="502" y="120" type="curve" smooth="yes"/>
      <point x="472" y="120"/>
      <point x="465" y="127"/>
      <point x="456" y="156" type="curve" smooth="yes"/>
    </contour>
    <contour>
      <point x="409" y="711" type="move" name="top"/>
    </contour>
    <contour>
      <point x="231" y="-1" type="move" name="bottom"/>
    </contour>
  </outline>
</glyph>
<glyph name="T" format="1">
  <advance width="600"/>
  <unicode hex="0054"/>
  <outline>
    <contour>
      <point x="159" y="700" type="line"/>
      <point x="150" y="663"/>
      <point x="141" y="626"/>
      <point x="132" y="590" type="curve" smooth="yes"/>
      <point x="131" y="587"/>
      <point x="131" y="584"/>
      <point x="133" y="582" type="curve" smooth="yes"/>
      <point x="134" y="580"/>
      <point x="137" y="579"/>
      <point x="140" y="579" type="curve" smooth="yes"/>
      <point x="626" y="579" type="line"/>
      <point x="634" y="615"/>
      <point x="644" y="653"/>
      <point x="653" y="689" type="curve" smooth="yes"/>
      <point x="655" y="695"/>
      <point x="651" y="700"/>
      <point x="645" y="700" type="curve" smooth="yes"/>
    </contour>
    <contour>
      <point x="303" y="0" type="curve"/>
      <point x="311" y="33"/>
      <point x="320" y="67"/>
      <point x="328" y="100" type="curve" smooth="yes"/>
      <point x="464" y="644" type="line" smooth="yes"/>
      <point x="465" y="650"/>
      <point x="462" y="655"/>
      <point x="326" y="655" type="curve"/>
      <point x="165" y="11" type="line" smooth="yes"/>
      <point x="164" y="8"/>
      <point x="164" y="5"/>
      <point x="166" y="3" type="curve" smooth="yes"/>
      <point x="167" y="1"/>
      <point x="170" y="0"/>
      <point x="173" y="0" type="curve" smooth="yes"/>
      <point x="216" y="0"/>
      <point x="259" y="0"/>
    </contour>
    <contour>
      <point x="410" y="711" type="move" name="top"/>
    </contour>
    <contour>
      <point x="232" y="-1" type="move" name="bottom"/>
    </contour>
  </outline>
</glyph>
<glyph name="U" format="1">
  <advance width="650"/>
  <unicode hex="0055"/>
  <outline>
    <contour>
      <point x="180" y="700" type="curve"/>
      <point x="172" y="667"/>
      <point x="163" y="633"/>
      <point x="155" y="600" type="curve" smooth="yes"/>
      <point x="50" y="178" type="line"/>
      <point x="34" y="117"/>
      <point x="84" y="109"/>
      <point x="173" y="108" type="curve"/>
      <point x="182" y="143"/>
      <point x="185" y="156"/>
      <point x="195" y="196" type="curve"/>
      <point x="318" y="689" type="line"/>
      <point x="320" y="695"/>
      <point x="316" y="700"/>
      <point x="310" y="700" type="curve"/>
      <point x="266" y="700"/>
      <point x="224" y="700"/>
    </contour>
    <contour>
      <point x="183" y="-12" type="curve" smooth="yes"/>
      <point x="257" y="-12"/>
      <point x="333" y="28"/>
      <point x="404" y="113" type="curve" smooth="yes"/>
      <point x="435" y="149"/>
      <point x="459" y="203"/>
      <point x="444" y="251" type="curve"/>
      <point x="365" y="164"/>
      <point x="301" y="122"/>
      <point x="243" y="122" type="curve" smooth="yes"/>
      <point x="195" y="122"/>
      <point x="182" y="145"/>
      <point x="195" y="196" type="curve"/>
      <point x="105" y="196"/>
      <point x="51" y="186"/>
      <point x="50" y="178" type="curve" smooth="yes"/>
      <point x="21" y="65"/>
      <point x="59" y="-12"/>
    </contour>
    <contour>
      <point x="509" y="0" type="curve"/>
      <point x="517" y="32"/>
      <point x="526" y="69"/>
      <point x="536" y="108" type="curve" smooth="yes"/>
      <point x="681" y="689" type="line" smooth="yes"/>
      <point x="683" y="695"/>
      <point x="679" y="700"/>
      <point x="673" y="700" type="curve" smooth="yes"/>
      <point x="629" y="700"/>
      <point x="586" y="700"/>
      <point x="543" y="700" type="curve"/>
      <point x="371" y="11" type="line" smooth="yes"/>
      <point x="370" y="8"/>
      <point x="370" y="5"/>
      <point x="372" y="3" type="curve" smooth="yes"/>
      <point x="373" y="1"/>
      <point x="376" y="0"/>
      <point x="379" y="0" type="curve" smooth="yes"/>
      <point x="422" y="0"/>
      <point x="465" y="0"/>
    </contour>
    <contour>
      <point x="435" y="711" type="move" name="top"/>
    </contour>
    <contour>
      <point x="509" y="-1" type="move" name="ogonek"/>
    </contour>
    <contour>
      <point x="435" y="711" type="move" name="ring"/>
    </contour>
    <contour>
      <point x="257" y="-1" type="move" name="bottom"/>
    </contour>
  </outline>
</glyph>
<glyph name="V" format="1">
  <advance width="650"/>
  <unicode hex="0056"/>
  <outline>
    <contour>
      <point x="264" y="700" type="curve"/>
      <point x="142" y="700" type="line"/>
      <point x="143" y="471"/>
      <point x="143" y="241"/>
      <point x="145" y="13" type="curve"/>
      <point x="144" y="3"/>
      <point x="152" y="-2"/>
      <point x="161" y="-2" type="curve"/>
      <point x="218" y="-2"/>
      <point x="310" y="22"/>
      <point x="339" y="119" type="curve"/>
      <point x="314" y="119"/>
      <point x="300" y="119"/>
      <point x="280" y="119" type="curve" smooth="yes"/>
      <point x="274" y="119"/>
      <point x="273" y="120"/>
      <point x="273" y="129" type="curve"/>
      <point x="274" y="314"/>
      <point x="275" y="500"/>
      <point x="276" y="685" type="curve"/>
      <point x="277" y="695"/>
      <point x="272" y="700"/>
    </contour>
    <contour>
      <point x="707" y="700" type="curve"/>
      <point x="583" y="700" type="line"/>
      <point x="482" y="496"/>
      <point x="381" y="290"/>
      <point x="280" y="86" type="curve"/>
      <point x="254" y="27"/>
      <point x="209" y="8"/>
      <point x="161" y="-2" type="curve"/>
      <point x="369" y="-2" type="line"/>
      <point x="484" y="226"/>
      <point x="599" y="454"/>
      <point x="714" y="682" type="curve"/>
      <point x="719" y="692"/>
      <point x="717" y="700"/>
    </contour>
  </outline>
</glyph>
<glyph name="W" format="1">
  <advance width="900"/>
  <unicode hex="0057"/>
  <outline>
    <contour>
      <point x="136" y="700" type="curve"/>
      <point x="123" y="472"/>
      <point x="110" y="242"/>
      <point x="97" y="14" type="curve"/>
      <point x="95" y="5"/>
      <point x="104" y="0"/>
      <point x="113" y="0" type="curve"/>
      <point x="135" y="0" type="line" smooth="yes"/>
      <point x="162" y="0"/>
      <point x="210" y="18"/>
      <point x="224" y="33" type="curve"/>
      <point x="240" y="249"/>
      <point x="256" y="467"/>
      <point x="272" y="683" type="curve"/>
      <point x="272" y="693"/>
      <point x="272" y="695"/>
      <point x="271" y="697" type="curve" smooth="yes"/>
      <point x="270" y="699"/>
      <point x="267" y="700"/>
      <point x="263" y="700" type="curve"/>
      <point x="219" y="700"/>
      <point x="181" y="700"/>
    </contour>
    <contour>
      <point x="836" y="700" type="curve"/>
      <point x="749" y="497"/>
      <point x="661" y="291"/>
      <point x="574" y="88" type="curve"/>
      <point x="555" y="34"/>
      <point x="544" y="11"/>
      <point x="522" y="0" type="curve"/>
      <point x="669" y="0" type="line"/>
      <point x="771" y="229"/>
      <point x="872" y="458"/>
      <point x="973" y="687" type="curve" smooth="yes"/>
      <point x="975" y="693"/>
      <point x="975" y="695"/>
      <point x="974" y="697" type="curve" smooth="yes"/>
      <point x="972" y="699"/>
      <point x="971" y="700"/>
      <point x="967" y="700" type="curve"/>
      <point x="924" y="700"/>
      <point x="880" y="700"/>
    </contour>
    <contour>
      <point x="569" y="620" type="curve"/>
      <point x="469" y="620" type="line"/>
      <point x="381" y="443"/>
      <point x="292" y="265"/>
      <point x="203" y="88" type="curve"/>
      <point x="174" y="29"/>
      <point x="144" y="13"/>
      <point x="113" y="0" type="curve"/>
      <point x="277" y="0" type="line"/>
      <point x="377" y="200"/>
      <point x="477" y="401"/>
      <point x="576" y="601" type="curve" smooth="yes"/>
      <point x="582" y="612"/>
      <point x="579" y="620"/>
    </contour>
    <contour>
      <point x="589" y="620" type="curve"/>
      <point x="488" y="620" type="line"/>
      <point x="488" y="418"/>
      <point x="488" y="216"/>
      <point x="488" y="14" type="curve" smooth="yes"/>
      <point x="488" y="5"/>
      <point x="495" y="0"/>
      <point x="504" y="0" type="curve"/>
      <point x="565" y="0" type="line"/>
      <point x="576" y="0"/>
      <point x="600" y="10"/>
      <point x="599" y="24" type="curve"/>
      <point x="599" y="219"/>
      <point x="599" y="414"/>
      <point x="599" y="609" type="curve" smooth="yes"/>
      <point x="599" y="616"/>
      <point x="594" y="620"/>
    </contour>
    <contour>
      <point x="559" y="711" type="move" name="top"/>
    </contour>
  </outline>
</glyph>
<glyph name="X" format="1">
  <advance width="650"/>
  <unicode hex="0058"/>
  <outline>
    <contour>
      <point x="427" y="0" type="curve" smooth="yes"/>
      <point x="471" y="0"/>
      <point x="513" y="0"/>
      <point x="558" y="0" type="curve"/>
      <point x="508" y="127"/>
      <point x="457" y="254"/>
      <point x="407" y="381" type="curve" smooth="yes"/>
      <point x="400" y="403"/>
      <point x="385" y="411"/>
      <point x="378" y="431" type="curve" smooth="yes"/>
      <point x="346" y="518"/>
      <point x="315" y="604"/>
      <point x="283" y="690" type="curve" smooth="yes"/>
      <point x="280" y="697"/>
      <point x="275" y="700"/>
      <point x="266" y="700" type="curve" smooth="yes"/>
      <point x="138" y="700" type="line"/>
      <point x="183" y="575"/>
      <point x="229" y="450"/>
      <point x="275" y="325" type="curve" smooth="yes"/>
      <point x="281" y="304"/>
      <point x="299" y="293"/>
      <point x="306" y="272" type="curve" smooth="yes"/>
      <point x="340" y="185"/>
      <point x="376" y="96"/>
      <point x="411" y="10" type="curve" smooth="yes"/>
      <point x="414" y="2"/>
      <point x="419" y="0"/>
    </contour>
    <contour>
      <point x="721" y="700" type="curve" smooth="yes"/>
      <point x="576" y="700" type="line"/>
      <point x="486" y="594"/>
      <point x="396" y="487"/>
      <point x="306" y="381" type="curve"/>
      <point x="292" y="364"/>
      <point x="315" y="351"/>
      <point x="399" y="309" type="curve"/>
      <point x="508" y="433"/>
      <point x="616" y="557"/>
      <point x="725" y="682" type="curve"/>
      <point x="731" y="689"/>
      <point x="732" y="693"/>
      <point x="729" y="697" type="curve" smooth="yes"/>
      <point x="728" y="699"/>
      <point x="725" y="700"/>
    </contour>
    <contour>
      <point x="-40" y="0" type="curve"/>
      <point x="106" y="0" type="line"/>
      <point x="199" y="107"/>
      <point x="290" y="213"/>
      <point x="380" y="320" type="curve"/>
      <point x="393" y="335"/>
      <point x="370" y="350"/>
      <point x="288" y="391" type="curve"/>
      <point x="178" y="267"/>
      <point x="66" y="142"/>
      <point x="-44" y="18" type="curve" smooth="yes"/>
      <point x="-50" y="12"/>
      <point x="-51" y="7"/>
      <point x="-48" y="3" type="curve" smooth="yes"/>
      <point x="-47" y="1"/>
      <point x="-44" y="0"/>
    </contour>
  </outline>
</glyph>
<glyph name="Y" format="1">
  <advance width="600"/>
  <unicode hex="0059"/>
  <outline>
    <contour>
      <point x="127" y="700" type="line"/>
      <point x="161" y="549"/>
      <point x="198" y="396"/>
      <point x="231" y="245" type="curve"/>
      <point x="232" y="236"/>
      <point x="238" y="232"/>
      <point x="247" y="232" type="curve"/>
      <point x="303" y="232"/>
      <point x="340" y="301"/>
      <point x="332" y="332" type="curve"/>
      <point x="312" y="449"/>
      <point x="290" y="567"/>
      <point x="270" y="684" type="curve"/>
      <point x="270" y="694"/>
      <point x="266" y="700"/>
      <point x="257" y="700" type="curve" smooth="yes"/>
    </contour>
    <contour>
      <point x="532" y="700" type="line"/>
      <point x="452" y="577"/>
      <point x="371" y="455"/>
      <point x="291" y="332" type="curve"/>
      <point x="256" y="278"/>
      <point x="261" y="254"/>
      <point x="247" y="232" type="curve"/>
      <point x="347" y="232" type="line"/>
      <point x="456" y="382"/>
      <point x="567" y="533"/>
      <point x="677" y="682" type="curve"/>
      <point x="682" y="692"/>
      <point x="679" y="700"/>
      <point x="669" y="700" type="curve"/>
    </contour>
    <contour>
      <point x="302" y="0" type="curve"/>
      <point x="310" y="33"/>
      <point x="319" y="67"/>
      <point x="327" y="100" type="curve" smooth="yes"/>
      <point x="375" y="292" type="line" smooth="yes"/>
      <point x="377" y="298"/>
      <point x="373" y="303"/>
      <point x="237" y="303" type="curve"/>
      <point x="164" y="11" type="line" smooth="yes"/>
      <point x="163" y="8"/>
      <point x="163" y="5"/>
      <point x="165" y="3" type="curve" smooth="yes"/>
      <point x="166" y="1"/>
      <point x="169" y="0"/>
      <point x="172" y="0" type="curve" smooth="yes"/>
      <point x="216" y="0"/>
      <point x="259" y="0"/>
    </contour>
    <contour>
      <point x="410" y="711" type="move" name="top"/>
    </contour>
  </outline>
</glyph>
<glyph name="Z" format="1">
  <advance width="600"/>
  <unicode hex="005A"/>
  <outline>
    <contour>
      <point x="206" y="700" type="line"/>
      <point x="196" y="661"/>
      <point x="188" y="628"/>
      <point x="179" y="590" type="curve" smooth="yes"/>
      <point x="178" y="587"/>
      <point x="178" y="584"/>
      <point x="180" y="582" type="curve" smooth="yes"/>
      <point x="181" y="580"/>
      <point x="184" y="579"/>
      <point x="187" y="579" type="curve" smooth="yes"/>
      <point x="462" y="579" type="line" smooth="yes"/>
      <point x="506" y="579"/>
      <point x="567" y="581"/>
      <point x="614" y="590" type="curve" smooth="yes"/>
      <point x="620" y="590"/>
      <point x="625" y="590"/>
      <point x="629" y="591" type="curve"/>
      <point x="653" y="689" type="line" smooth="yes"/>
      <point x="655" y="695"/>
      <point x="651" y="700"/>
      <point x="645" y="700" type="curve" smooth="yes"/>
    </contour>
    <contour>
      <point x="494" y="627" type="curve"/>
      <point x="334" y="455"/>
      <point x="171" y="280"/>
      <point x="11" y="108" type="curve"/>
      <point x="122" y="67"/>
      <point x="142" y="65"/>
      <point x="153" y="76" type="curve" smooth="yes"/>
      <point x="421" y="366"/>
      <point x="628" y="589"/>
      <point x="629" y="591" type="curve"/>
      <point x="525" y="635"/>
      <point x="505" y="638"/>
    </contour>
    <contour>
      <point x="485" y="0" type="line"/>
      <point x="494" y="39"/>
      <point x="503" y="71"/>
      <point x="513" y="110" type="curve" smooth="yes"/>
      <point x="514" y="113"/>
      <point x="513" y="116"/>
      <point x="512" y="118" type="curve" smooth="yes"/>
      <point x="510" y="120"/>
      <point x="508" y="121"/>
      <point x="505" y="121" type="curve" smooth="yes"/>
      <point x="182" y="121" type="line" smooth="yes"/>
      <point x="132" y="121"/>
      <point x="63" y="120"/>
      <point x="11" y="108" type="curve"/>
      <point x="-13" y="11" type="line" smooth="yes"/>
      <point x="-14" y="5"/>
      <point x="-11" y="0"/>
      <point x="-5" y="0" type="curve" smooth="yes"/>
    </contour>
    <contour>
      <point x="249" y="517" type="curve"/>
      <point x="264" y="576"/>
      <point x="277" y="626"/>
      <point x="292" y="686" type="curve"/>
      <point x="295" y="696"/>
      <point x="291" y="700"/>
      <point x="281" y="700" type="curve" smooth="yes"/>
      <point x="162" y="700" type="line"/>
      <point x="147" y="639"/>
      <point x="135" y="588"/>
      <point x="119" y="528" type="curve"/>
      <point x="117" y="522"/>
      <point x="121" y="517"/>
      <point x="127" y="517" type="curve" smooth="yes"/>
      <point x="168" y="517"/>
      <point x="209" y="517"/>
    </contour>
    <contour>
      <point x="410" y="711" type="move" name="top"/>
    </contour>
  </outline>
</glyph>
<glyph name="bracketleft" format="1">
  <advance width="400"/>
  <unicode hex="005B"/>
  <outline>
    <contour>
      <point x="140" y="645" type="curve" smooth="yes"/>
      <point x="-24" y="-10" type="line" smooth="yes"/>
      <point x="-26" y="-20"/>
      <point x="5" y="-21"/>
      <point x="115" y="-21" type="curve"/>
      <point x="305" y="741" type="line" smooth="yes"/>
      <point x="307" y="747"/>
      <point x="300" y="752"/>
      <point x="273" y="752" type="curve" smooth="yes"/>
      <point x="231" y="752"/>
      <point x="209" y="752"/>
      <point x="167" y="752" type="curve"/>
      <point x="158" y="716"/>
      <point x="149" y="681"/>
    </contour>
    <contour>
      <point x="451" y="626" type="line"/>
      <point x="461" y="666"/>
      <point x="469" y="700"/>
      <point x="479" y="741" type="curve" smooth="yes"/>
      <point x="480" y="744"/>
      <point x="480" y="747"/>
      <point x="478" y="749" type="curve" smooth="yes"/>
      <point x="477" y="751"/>
      <point x="474" y="752"/>
      <point x="471" y="752" type="curve" smooth="yes"/>
      <point x="273" y="752" type="line"/>
      <point x="243" y="630"/>
      <point x="248" y="626"/>
      <point x="253" y="626" type="curve"/>
    </contour>
    <contour>
      <point x="260" y="-135" type="line"/>
      <point x="270" y="-95"/>
      <point x="279" y="-61"/>
      <point x="289" y="-20" type="curve" smooth="yes"/>
      <point x="291" y="-14"/>
      <point x="287" y="-9"/>
      <point x="281" y="-9" type="curve" smooth="yes"/>
      <point x="-23" y="-9" type="line"/>
      <point x="-52" y="-124" type="line" smooth="yes"/>
      <point x="-54" y="-130"/>
      <point x="-50" y="-135"/>
      <point x="-44" y="-135" type="curve" smooth="yes"/>
    </contour>
  </outline>
</glyph>
<glyph name="bracketright" format="1">
  <advance width="400"/>
  <unicode hex="005D"/>
  <outline>
    <contour>
      <point x="280" y="-28" type="curve" smooth="yes"/>
      <point x="443" y="627" type="line" smooth="yes"/>
      <point x="446" y="637"/>
      <point x="415" y="638"/>
      <point x="305" y="638" type="curve"/>
      <point x="114" y="-124" type="line" smooth="yes"/>
      <point x="113" y="-130"/>
      <point x="120" y="-135"/>
      <point x="147" y="-135" type="curve" smooth="yes"/>
      <point x="189" y="-135"/>
      <point x="210" y="-135"/>
      <point x="253" y="-135" type="curve"/>
      <point x="262" y="-99"/>
      <point x="271" y="-64"/>
    </contour>
    <contour>
      <point x="-31" y="-9" type="line"/>
      <point x="-41" y="-49"/>
      <point x="-50" y="-84"/>
      <point x="-60" y="-124" type="curve" smooth="yes"/>
      <point x="-60" y="-127"/>
      <point x="-60" y="-130"/>
      <point x="-58" y="-132" type="curve" smooth="yes"/>
      <point x="-57" y="-134"/>
      <point x="-54" y="-135"/>
      <point x="-51" y="-135" type="curve" smooth="yes"/>
      <point x="147" y="-135" type="line"/>
      <point x="177" y="-13"/>
      <point x="172" y="-9"/>
      <point x="167" y="-9" type="curve"/>
    </contour>
    <contour>
      <point x="159" y="752" type="line"/>
      <point x="149" y="711"/>
      <point x="141" y="677"/>
      <point x="131" y="637" type="curve" smooth="yes"/>
      <point x="129" y="631"/>
      <point x="133" y="626"/>
      <point x="139" y="626" type="curve" smooth="yes"/>
      <point x="443" y="626" type="line"/>
      <point x="472" y="741" type="line" smooth="yes"/>
      <point x="473" y="747"/>
      <point x="469" y="752"/>
      <point x="463" y="752" type="curve" smooth="yes"/>
    </contour>
  </outline>
</glyph>
<glyph name="asciicircum" format="1">
  <advance width="600"/>
  <unicode hex="005E"/>
  <outline>
    <contour>
      <point x="188" y="359" type="line"/>
      <point x="270" y="476"/>
      <point x="317" y="545"/>
      <point x="399" y="662" type="curve"/>
      <point x="437" y="717"/>
      <point x="451" y="731"/>
      <point x="480" y="750" type="curve"/>
      <point x="325" y="750" type="line"/>
      <point x="227" y="610"/>
      <point x="103" y="434"/>
      <point x="72" y="390" type="curve" smooth="yes"/>
      <point x="62" y="375"/>
      <point x="60" y="371"/>
      <point x="59" y="367" type="curve" smooth="yes"/>
      <point x="57" y="361"/>
      <point x="60" y="359"/>
      <point x="66" y="359" type="curve"/>
    </contour>
    <contour>
      <point x="589" y="359" type="curve"/>
      <point x="562" y="502"/>
      <point x="545" y="594"/>
      <point x="518" y="736" type="curve" smooth="yes"/>
      <point x="517" y="746"/>
      <point x="511" y="750"/>
      <point x="501" y="750" type="curve" smooth="yes"/>
      <point x="471" y="750" type="line" smooth="yes"/>
      <point x="414" y="750"/>
      <point x="335" y="712"/>
      <point x="312" y="620" type="curve"/>
      <point x="346" y="620"/>
      <point x="370" y="620"/>
      <point x="390" y="620" type="curve" smooth="yes"/>
      <point x="400" y="620"/>
      <point x="403" y="618"/>
      <point x="405" y="609" type="curve" smooth="yes"/>
      <point x="424" y="514"/>
      <point x="433" y="465"/>
      <point x="451" y="371" type="curve" smooth="yes"/>
      <point x="453" y="360"/>
      <point x="456" y="359"/>
      <point x="466" y="359" type="curve" smooth="yes"/>
      <point x="508" y="359"/>
      <point x="546" y="359"/>
    </contour>
  </outline>
</glyph>
<glyph name="underscore" format="1">
  <advance width="600"/>
  <unicode hex="005F"/>
  <outline>
    <contour>
      <point x="-27" y="-59" type="line"/>
      <point x="-37" y="-99"/>
      <point x="-46" y="-133"/>
      <point x="-56" y="-174" type="curve" smooth="yes"/>
      <point x="-57" y="-177"/>
      <point x="-57" y="-180"/>
      <point x="-55" y="-182" type="curve" smooth="yes"/>
      <point x="-54" y="-184"/>
      <point x="-51" y="-185"/>
      <point x="-48" y="-185" type="curve"/>
      <point x="432" y="-185" type="line"/>
      <point x="442" y="-144"/>
      <point x="451" y="-110"/>
      <point x="461" y="-70" type="curve" smooth="yes"/>
      <point x="462" y="-64"/>
      <point x="459" y="-59"/>
      <point x="453" y="-59" type="curve"/>
    </contour>
  </outline>
</glyph>
<glyph name="grave" format="1">
  <advance width="557"/>
  <unicode hex="0060"/>
  <outline>
    <contour>
      <point x="423" y="377" type="curve"/>
      <point x="427" y="489"/>
      <point x="431" y="601"/>
      <point x="435" y="713" type="curve"/>
      <point x="359" y="713"/>
      <point x="321" y="713"/>
      <point x="256" y="713" type="curve" smooth="yes"/>
      <point x="248" y="713"/>
      <point x="244" y="708"/>
      <point x="245" y="700" type="curve" smooth="yes"/>
      <point x="257" y="612"/>
      <point x="273" y="490"/>
      <point x="288" y="384" type="curve" smooth="yes"/>
      <point x="288" y="378"/>
      <point x="291" y="377"/>
      <point x="296" y="377" type="curve" smooth="yes"/>
      <point x="351" y="377"/>
      <point x="389" y="377"/>
    </contour>
  </outline>
</glyph>
<glyph name="b" format="1">
  <advance width="600"/>
  <unicode hex="0062"/>
  <outline>
    <contour>
      <point x="9" y="0" type="line"/>
      <point x="32" y="0"/>
      <point x="54" y="0"/>
      <point x="77" y="0" type="curve" smooth="yes"/>
      <point x="91" y="0"/>
      <point x="167" y="84"/>
      <point x="173" y="107" type="curve" smooth="yes"/>
      <point x="332" y="739" type="line"/>
      <point x="333" y="745"/>
      <point x="329" y="750"/>
      <point x="323" y="750" type="curve" smooth="yes"/>
      <point x="281" y="750"/>
      <point x="239" y="750"/>
      <point x="197" y="750" type="curve"/>
      <point x="186" y="704"/>
      <point x="174" y="657"/>
      <point x="162" y="611" type="curve" smooth="yes"/>
    </contour>
    <contour>
      <point x="425" y="549" type="curve" smooth="yes"/>
      <point x="369" y="549"/>
      <point x="313" y="522"/>
      <point x="259" y="470" type="curve" smooth="yes"/>
      <point x="206" y="418"/>
      <point x="180" y="378"/>
      <point x="190" y="345" type="curve"/>
      <point x="270" y="399"/>
      <point x="320" y="422"/>
      <point x="375" y="422" type="curve" smooth="yes"/>
      <point x="417" y="422"/>
      <point x="438" y="402"/>
      <point x="423" y="343" type="curve"/>
      <point x="536" y="325"/>
      <point x="555" y="327"/>
      <point x="558" y="337" type="curve" smooth="yes"/>
      <point x="588" y="454"/>
      <point x="538" y="549"/>
    </contour>
    <contour>
      <point x="309" y="-10" type="curve" smooth="yes"/>
      <point x="416" y="-10"/>
      <point x="486" y="45"/>
      <point x="524" y="201" type="curve" smooth="yes"/>
      <point x="558" y="337" type="line" smooth="yes"/>
      <point x="575" y="403"/>
      <point x="538" y="477"/>
      <point x="468" y="477" type="curve"/>
      <point x="439" y="477"/>
      <point x="420" y="466"/>
      <point x="414" y="444" type="curve"/>
      <point x="430" y="412"/>
      <point x="439" y="402"/>
      <point x="423" y="343" type="curve" smooth="yes"/>
      <point x="390" y="208" type="line" smooth="yes"/>
      <point x="373" y="141"/>
      <point x="340" y="114"/>
      <point x="291" y="114" type="curve" smooth="yes"/>
      <point x="245" y="114"/>
      <point x="204" y="128"/>
      <point x="161" y="187" type="curve"/>
      <point x="145" y="169"/>
      <point x="135" y="146"/>
      <point x="134" y="135" type="curve" smooth="yes"/>
      <point x="127" y="83"/>
      <point x="197" y="-10"/>
    </contour>
  </outline>
</glyph>
<glyph name="c" format="1">
  <advance width="500"/>
  <unicode hex="0063"/>
  <outline>
    <contour>
      <point x="373" y="549" type="curve" smooth="yes"/>
      <point x="211" y="549"/>
      <point x="108" y="473"/>
      <point x="71" y="321" type="curve" smooth="yes"/>
      <point x="53" y="245" type="line" smooth="yes"/>
      <point x="15" y="86"/>
      <point x="84" y="-12"/>
      <point x="250" y="-12" type="curve" smooth="yes"/>
      <point x="280" y="-12"/>
      <point x="278" y="6"/>
      <point x="271" y="114" type="curve"/>
      <point x="195" y="114"/>
      <point x="170" y="164"/>
      <point x="190" y="246" type="curve" smooth="yes"/>
      <point x="206" y="310" type="line" smooth="yes"/>
      <point x="228" y="396"/>
      <point x="280" y="424"/>
      <point x="349" y="424" type="curve" smooth="yes"/>
      <point x="395" y="424"/>
      <point x="430" y="415"/>
      <point x="463" y="400" type="curve"/>
      <point x="482" y="400" type="line"/>
      <point x="491" y="439"/>
      <point x="500" y="473"/>
      <point x="510" y="512" type="curve"/>
      <point x="511" y="516"/>
      <point x="510" y="519"/>
      <point x="508" y="521" type="curve" smooth="yes"/>
      <point x="500" y="533"/>
      <point x="447" y="549"/>
    </contour>
    <contour>
      <point x="250" y="-12" type="curve" smooth="yes"/>
      <point x="326" y="-12"/>
      <point x="369" y="7"/>
      <point x="383" y="18" type="curve" smooth="yes"/>
      <point x="386" y="21"/>
      <point x="388" y="23"/>
      <point x="389" y="27" type="curve"/>
      <point x="398" y="64"/>
      <point x="408" y="104"/>
      <point x="418" y="142" type="curve"/>
      <point x="399" y="142" type="line"/>
      <point x="358" y="125"/>
      <point x="317" y="114"/>
      <point x="271" y="114" type="curve" smooth="yes"/>
      <point x="199" y="114"/>
      <point x="157" y="138"/>
      <point x="114" y="180" type="curve"/>
      <point x="62" y="90"/>
      <point x="98" y="-12"/>
    </contour>
    <contour>
      <point x="355" y="549" type="move" name="top"/>
    </contour>
    <contour>
      <point x="218" y="-1" type="move" name="bottom"/>
    </contour>
  </outline>
</glyph>
<glyph name="d" format="1">
  <advance width="600"/>
  <unicode hex="0064"/>
  <outline>
    <contour>
      <point x="291" y="549" type="curve" smooth="yes"/>
      <point x="187" y="549"/>
      <point x="113" y="492"/>
      <point x="79" y="351" type="curve" smooth="yes"/>
      <point x="36" y="184" type="line" smooth="yes"/>
      <point x="21" y="118"/>
      <point x="62" y="62"/>
      <point x="133" y="62" type="curve" smooth="yes"/>
      <point x="161" y="62"/>
      <point x="182" y="74"/>
      <point x="187" y="96" type="curve"/>
      <point x="173" y="124"/>
      <point x="162" y="138"/>
      <point x="175" y="187" type="curve" smooth="yes"/>
      <point x="213" y="339" type="line" smooth="yes"/>
      <point x="227" y="396"/>
      <point x="261" y="421"/>
      <point x="309" y="421" type="curve" smooth="yes"/>
      <point x="349" y="421"/>
      <point x="396" y="401"/>
      <point x="427" y="355" type="curve"/>
      <point x="442" y="365"/>
      <point x="450" y="382"/>
      <point x="453" y="397" type="curve" smooth="yes"/>
      <point x="460" y="457"/>
      <point x="390" y="549"/>
    </contour>
    <contour>
      <point x="151" y="-10" type="curve" smooth="yes"/>
      <point x="214" y="-10"/>
      <point x="276" y="19"/>
      <point x="340" y="80" type="curve" smooth="yes"/>
      <point x="395" y="131"/>
      <point x="411" y="178"/>
      <point x="400" y="208" type="curve"/>
      <point x="314" y="141"/>
      <point x="265" y="116"/>
      <point x="218" y="116" type="curve" smooth="yes"/>
      <point x="177" y="116"/>
      <point x="162" y="137"/>
      <point x="175" y="187" type="curve"/>
      <point x="111" y="211"/>
      <point x="38" y="187"/>
      <point x="36" y="184" type="curve" smooth="yes"/>
      <point x="8" y="68"/>
      <point x="53" y="-10"/>
    </contour>
    <contour>
      <point x="506" y="750" type="curve"/>
      <point x="498" y="717"/>
      <point x="490" y="683"/>
      <point x="481" y="650" type="curve" smooth="yes"/>
      <point x="321" y="11" type="line"/>
      <point x="321" y="8"/>
      <point x="321" y="5"/>
      <point x="322" y="3" type="curve" smooth="yes"/>
      <point x="324" y="1"/>
      <point x="326" y="0"/>
      <point x="329" y="0" type="curve" smooth="yes"/>
      <point x="371" y="0"/>
      <point x="413" y="0"/>
      <point x="455" y="0" type="curve"/>
      <point x="467" y="45"/>
      <point x="478" y="92"/>
      <point x="491" y="141" type="curve" smooth="yes"/>
      <point x="641" y="739" type="line"/>
      <point x="641" y="742"/>
      <point x="641" y="745"/>
      <point x="640" y="747" type="curve" smooth="yes"/>
      <point x="638" y="749"/>
      <point x="635" y="750"/>
      <point x="632" y="750" type="curve" smooth="yes"/>
      <point x="590" y="750"/>
      <point x="548" y="750"/>
    </contour>
    <contour>
      <point x="667" y="711" type="move" name="caronslovak"/>
    </contour>
  </outline>
</glyph>
<glyph name="f" format="1">
  <advance width="450"/>
  <unicode hex="0066"/>
  <outline>
    <contour>
      <point x="190" y="0" type="curve"/>
      <point x="198" y="33"/>
      <point x="206" y="67"/>
      <point x="215" y="100" type="curve" smooth="yes"/>
      <point x="324" y="538" type="line" smooth="yes"/>
      <point x="327" y="550"/>
      <point x="330" y="562"/>
      <point x="334" y="579" type="curve" smooth="yes"/>
      <point x="347" y="629"/>
      <point x="377" y="652"/>
      <point x="421" y="652" type="curve"/>
      <point x="460" y="760"/>
      <point x="448" y="768"/>
      <point x="433" y="768" type="curve" smooth="yes"/>
      <point x="314" y="768"/>
      <point x="233" y="709"/>
      <point x="203" y="585" type="curve" smooth="yes"/>
      <point x="60" y="11" type="line" smooth="yes"/>
      <point x="58" y="5"/>
      <point x="62" y="0"/>
      <point x="68" y="0" type="curve" smooth="yes"/>
      <point x="110" y="0"/>
      <point x="151" y="0"/>
    </contour>
    <contour>
      <point x="315" y="633" type="curve"/>
      <point x="351" y="649"/>
      <point x="375" y="652"/>
      <point x="421" y="652" type="curve" smooth="yes"/>
      <point x="458" y="652"/>
      <point x="484" y="646"/>
      <point x="512" y="634" type="curve"/>
      <point x="531" y="634" type="line"/>
      <point x="540" y="670"/>
      <point x="547" y="698"/>
      <point x="556" y="733" type="curve"/>
      <point x="557" y="737"/>
      <point x="557" y="739"/>
      <point x="555" y="741" type="curve" smooth="yes"/>
      <point x="545" y="752"/>
      <point x="486" y="768"/>
      <point x="433" y="768" type="curve" smooth="yes"/>
      <point x="339" y="768"/>
      <point x="295" y="689"/>
    </contour>
    <contour>
      <point x="108" y="538" type="curve"/>
      <point x="99" y="498"/>
      <point x="90" y="464"/>
      <point x="80" y="425" type="curve" smooth="yes"/>
      <point x="79" y="422"/>
      <point x="80" y="419"/>
      <point x="81" y="417" type="curve" smooth="yes"/>
      <point x="83" y="415"/>
      <point x="85" y="414"/>
      <point x="88" y="414" type="curve" smooth="yes"/>
      <point x="206" y="414"/>
      <point x="331" y="414"/>
      <point x="451" y="414" type="curve"/>
      <point x="460" y="453"/>
      <point x="469" y="487"/>
      <point x="479" y="527" type="curve" smooth="yes"/>
      <point x="480" y="533"/>
      <point x="477" y="538"/>
      <point x="471" y="538" type="curve" smooth="yes"/>
      <point x="359" y="538"/>
      <point x="219" y="538"/>
    </contour>
  </outline>
</glyph>
<glyph name="g" format="1">
  <advance width="600"/>
  <unicode hex="0067"/>
  <outline>
    <contour>
      <point x="340" y="436" type="curve" smooth="yes"/>
      <point x="428" y="436"/>
      <point x="521" y="436"/>
      <point x="604" y="436" type="curve" smooth="yes"/>
      <point x="610" y="436"/>
      <point x="616" y="441"/>
      <point x="617" y="447" type="curve" smooth="yes"/>
      <point x="626" y="480"/>
      <point x="634" y="513"/>
      <point x="642" y="547" type="curve"/>
      <point x="548" y="547"/>
      <point x="454" y="547"/>
      <point x="359" y="547" type="curve" smooth="yes"/>
      <point x="218" y="547"/>
      <point x="122" y="499"/>
      <point x="93" y="383" type="curve" smooth="yes"/>
      <point x="87" y="359" type="line" smooth="yes"/>
      <point x="60" y="251"/>
      <point x="131" y="176"/>
      <point x="279" y="174" type="curve"/>
      <point x="291" y="174"/>
      <point x="315" y="204"/>
      <point x="296" y="277" type="curve"/>
      <point x="245" y="277"/>
      <point x="204" y="299"/>
      <point x="215" y="341" type="curve" smooth="yes"/>
      <point x="222" y="368" type="line" smooth="yes"/>
      <point x="233" y="414"/>
      <point x="279" y="436"/>
    </contour>
    <contour>
      <point x="296" y="277" type="curve" smooth="yes"/>
      <point x="240" y="277"/>
      <point x="195" y="290"/>
      <point x="162" y="310" type="curve"/>
      <point x="129" y="269"/>
      <point x="165" y="174"/>
      <point x="279" y="174" type="curve" smooth="yes"/>
      <point x="406" y="174"/>
      <point x="501" y="226"/>
      <point x="524" y="320" type="curve" smooth="yes"/>
      <point x="529" y="340" type="line" smooth="yes"/>
      <point x="544" y="398"/>
      <point x="503" y="454"/>
      <point x="424" y="454" type="curve" smooth="yes"/>
      <point x="409" y="454"/>
      <point x="398" y="451"/>
      <point x="384" y="444" type="curve"/>
      <point x="407" y="419"/>
      <point x="410" y="391"/>
      <point x="403" y="362" type="curve" smooth="yes"/>
      <point x="397" y="339" type="line" smooth="yes"/>
      <point x="387" y="302"/>
      <point x="352" y="277"/>
    </contour>
    <contour>
      <point x="75" y="91" type="curve" smooth="yes"/>
      <point x="74" y="85" type="line" smooth="yes"/>
      <point x="58" y="23"/>
      <point x="100" y="-17"/>
      <point x="179" y="-17" type="curve" smooth="yes"/>
      <point x="297" y="-17" type="line" smooth="yes"/>
      <point x="346" y="-17"/>
      <point x="360" y="-35"/>
      <point x="350" y="-75" type="curve" smooth="yes"/>
      <point x="344" y="-98" type="line" smooth="yes"/>
      <point x="336" y="-132"/>
      <point x="304" y="-151"/>
      <point x="257" y="-151" type="curve"/>
      <point x="223" y="-238"/>
      <point x="223" y="-250"/>
      <point x="233" y="-250" type="curve" smooth="yes"/>
      <point x="355" y="-250"/>
      <point x="451" y="-214"/>
      <point x="484" y="-82" type="curve" smooth="yes"/>
      <point x="488" y="-66" type="line" smooth="yes"/>
      <point x="511" y="27"/>
      <point x="457" y="96"/>
      <point x="329" y="96" type="curve" smooth="yes"/>
      <point x="225" y="96" type="line" smooth="yes"/>
      <point x="210" y="96"/>
      <point x="206" y="101"/>
      <point x="210" y="117" type="curve" smooth="yes"/>
      <point x="213" y="129" type="line" smooth="yes"/>
      <point x="217" y="146"/>
      <point x="225" y="171"/>
      <point x="234" y="189" type="curve"/>
      <point x="235" y="193"/>
      <point x="236" y="203"/>
      <point x="233" y="205" type="curve" smooth="yes"/>
      <point x="151" y="205"/>
      <point x="88" y="142"/>
    </contour>
    <contour>
      <point x="356" y="-144" type="curve"/>
      <point x="324" y="-150"/>
      <point x="290" y="-151"/>
      <point x="257" y="-151" type="curve" smooth="yes"/>
      <point x="150" y="-151" type="line" smooth="yes"/>
      <point x="89" y="-151"/>
      <point x="75" y="-133"/>
      <point x="86" y="-89" type="curve" smooth="yes"/>
      <point x="92" y="-63" type="line" smooth="yes"/>
      <point x="99" y="-35"/>
      <point x="114" y="-14"/>
      <point x="153" y="4" type="curve"/>
      <point x="157" y="22"/>
      <point x="148" y="37"/>
      <point x="111" y="37" type="curve" smooth="yes"/>
      <point x="32" y="34"/>
      <point x="-35" y="-22"/>
      <point x="-51" y="-90" type="curve" smooth="yes"/>
      <point x="-54" y="-105" type="line" smooth="yes"/>
      <point x="-75" y="-194"/>
      <point x="-7" y="-250"/>
      <point x="96" y="-250" type="curve" smooth="yes"/>
      <point x="233" y="-250" type="line" smooth="yes"/>
      <point x="286" y="-250"/>
      <point x="339" y="-218"/>
    </contour>
  </outline>
</glyph>
<glyph name="h" format="1">
  <advance width="600"/>
  <unicode hex="0068"/>
  <outline>
    <contour>
      <point x="150" y="0" type="curve"/>
      <point x="338" y="739" type="line" smooth="yes"/>
      <point x="338" y="742"/>
      <point x="338" y="745"/>
      <point x="337" y="747" type="curve" smooth="yes"/>
      <point x="335" y="749"/>
      <point x="332" y="750"/>
      <point x="329" y="750" type="curve" smooth="yes"/>
      <point x="290" y="750"/>
      <point x="247" y="750"/>
      <point x="199" y="750" type="curve"/>
      <point x="193" y="724"/>
      <point x="185" y="690"/>
      <point x="174" y="652" type="curve" smooth="yes"/>
      <point x="12" y="11" type="line" smooth="yes"/>
      <point x="10" y="5"/>
      <point x="14" y="0"/>
      <point x="20" y="0" type="curve" smooth="yes"/>
      <point x="64" y="0"/>
      <point x="107" y="0"/>
    </contour>
    <contour>
      <point x="451" y="549" type="curve" smooth="yes"/>
      <point x="387" y="549"/>
      <point x="330" y="525"/>
      <point x="258" y="458" type="curve" smooth="yes"/>
      <point x="224" y="428"/>
      <point x="211" y="401"/>
      <point x="193" y="316" type="curve"/>
      <point x="279" y="390"/>
      <point x="331" y="419"/>
      <point x="381" y="419" type="curve" smooth="yes"/>
      <point x="422" y="419"/>
      <point x="449" y="399"/>
      <point x="449" y="338" type="curve"/>
      <point x="517" y="347"/>
      <point x="547" y="364"/>
      <point x="556" y="395" type="curve" smooth="yes"/>
      <point x="576" y="474"/>
      <point x="539" y="549"/>
    </contour>
    <contour>
      <point x="456" y="0" type="curve"/>
      <point x="464" y="29"/>
      <point x="473" y="63"/>
      <point x="482" y="98" type="curve" smooth="yes"/>
      <point x="556" y="395" type="line"/>
      <point x="576" y="464"/>
      <point x="491" y="479"/>
      <point x="411" y="434" type="curve"/>
      <point x="417" y="415"/>
      <point x="418" y="398"/>
      <point x="409" y="366" type="curve" smooth="yes"/>
      <point x="318" y="11" type="line" smooth="yes"/>
      <point x="316" y="5"/>
      <point x="320" y="0"/>
      <point x="326" y="0" type="curve" smooth="yes"/>
      <point x="370" y="0"/>
      <point x="413" y="0"/>
    </contour>
    <contour>
      <point x="255" y="730" type="move" name="top"/>
    </contour>
  </outline>
</glyph>
<glyph name="i" format="1">
  <advance width="350"/>
  <unicode hex="0069"/>
  <outline>
    <contour>
      <point x="111" y="538" type="curve"/>
      <point x="103" y="502"/>
      <point x="94" y="453"/>
      <point x="85" y="418" type="curve" smooth="yes"/>
      <point x="83" y="412"/>
      <point x="87" y="407"/>
      <point x="93" y="407" type="curve" smooth="yes"/>
      <point x="134" y="407"/>
      <point x="181" y="407"/>
      <point x="219" y="407" type="curve"/>
      <point x="245" y="498"/>
      <point x="241" y="538"/>
      <point x="222" y="538" type="curve" smooth="yes"/>
      <point x="183" y="538"/>
      <point x="150" y="538"/>
    </contour>
    <contour>
      <point x="207" y="0" type="curve"/>
      <point x="216" y="40"/>
      <point x="224" y="79"/>
      <point x="235" y="119" type="curve" smooth="yes"/>
      <point x="340" y="527" type="line" smooth="yes"/>
      <point x="342" y="533"/>
      <point x="338" y="538"/>
      <point x="332" y="538" type="curve" smooth="yes"/>
      <point x="195" y="538" type="line"/>
      <point x="62" y="11" type="line" smooth="yes"/>
      <point x="61" y="5"/>
      <point x="65" y="0"/>
      <point x="71" y="0" type="curve" smooth="yes"/>
      <point x="124" y="0"/>
      <point x="159" y="0"/>
    </contour>
    <contour>
      <point x="383" y="648" type="curve"/>
      <point x="415" y="776" type="line" smooth="yes"/>
      <point x="416" y="782"/>
      <point x="413" y="787"/>
      <point x="407" y="787" type="curve" smooth="yes"/>
      <point x="356" y="787"/>
      <point x="291" y="787"/>
      <point x="241" y="787" type="curve"/>
      <point x="209" y="659" type="line" smooth="yes"/>
      <point x="207" y="653"/>
      <point x="211" y="648"/>
      <point x="217" y="648" type="curve" smooth="yes"/>
      <point x="267" y="648"/>
      <point x="332" y="648"/>
    </contour>
    <contour>
      <point x="388" y="-1" type="move" name="ogonek"/>
    </contour>
    <contour>
      <point x="238" y="-1" type="move" name="bottom"/>
    </contour>
  </outline>
</glyph>
<glyph name="j" format="1">
  <advance width="350"/>
  <unicode hex="006A"/>
  <outline>
    <contour>
      <point x="122" y="538" type="curve"/>
      <point x="112" y="499"/>
      <point x="104" y="452"/>
      <point x="94" y="413" type="curve" smooth="yes"/>
      <point x="93" y="407"/>
      <point x="96" y="402"/>
      <point x="102" y="402" type="curve" smooth="yes"/>
      <point x="176" y="402"/>
      <point x="202" y="402"/>
      <point x="275" y="402" type="curve"/>
      <point x="288" y="455"/>
      <point x="286" y="538"/>
      <point x="241" y="538" type="curve" smooth="yes"/>
      <point x="185" y="538"/>
      <point x="179" y="538"/>
    </contour>
    <contour>
      <point x="207" y="-44" type="curve" smooth="yes"/>
      <point x="350" y="525" type="line" smooth="yes"/>
      <point x="351" y="528"/>
      <point x="351" y="531"/>
      <point x="349" y="534" type="curve" smooth="yes"/>
      <point x="348" y="536"/>
      <point x="344" y="538"/>
      <point x="339" y="538" type="curve" smooth="yes"/>
      <point x="206" y="538" type="line"/>
      <point x="59" y="-45" type="line" smooth="yes"/>
      <point x="43" y="-108"/>
      <point x="26" y="-141"/>
      <point x="-13" y="-176" type="curve"/>
      <point x="62" y="-215"/>
      <point x="177" y="-161"/>
    </contour>
    <contour>
      <point x="-10" y="-114" type="curve" smooth="yes"/>
      <point x="-37" y="-114"/>
      <point x="-52" y="-111"/>
      <point x="-69" y="-100" type="curve"/>
      <point x="-88" y="-100" type="line"/>
      <point x="-96" y="-138"/>
      <point x="-104" y="-176"/>
      <point x="-113" y="-216" type="curve" smooth="yes"/>
      <point x="-114" y="-219"/>
      <point x="-114" y="-222"/>
      <point x="-112" y="-225" type="curve" smooth="yes"/>
      <point x="-107" y="-232"/>
      <point x="-81" y="-250"/>
      <point x="-27" y="-250" type="curve" smooth="yes"/>
      <point x="102" y="-250"/>
      <point x="169" y="-195"/>
      <point x="207" y="-44" type="curve" smooth="yes"/>
      <point x="210" y="-29"/>
      <point x="185" y="-22"/>
      <point x="122" y="-27" type="curve"/>
      <point x="79" y="-90"/>
      <point x="37" y="-114"/>
    </contour>
    <contour>
      <point x="399" y="648" type="curve"/>
      <point x="431" y="776" type="line" smooth="yes"/>
      <point x="433" y="782"/>
      <point x="429" y="787"/>
      <point x="423" y="787" type="curve" smooth="yes"/>
      <point x="373" y="787"/>
      <point x="308" y="787"/>
      <point x="257" y="787" type="curve"/>
      <point x="225" y="659" type="line" smooth="yes"/>
      <point x="224" y="653"/>
      <point x="227" y="648"/>
      <point x="233" y="648" type="curve" smooth="yes"/>
      <point x="284" y="648"/>
      <point x="349" y="648"/>
    </contour>
  </outline>
</glyph>
<glyph name="k" format="1">
  <advance width="600"/>
  <unicode hex="006B"/>
  <outline>
    <contour>
      <point x="142" y="0" type="curve"/>
      <point x="330" y="739" type="line" smooth="yes"/>
      <point x="330" y="742"/>
      <point x="330" y="745"/>
      <point x="329" y="747" type="curve" smooth="yes"/>
      <point x="327" y="749"/>
      <point x="324" y="750"/>
      <point x="321" y="750" type="curve" smooth="yes"/>
      <point x="282" y="750"/>
      <point x="247" y="750"/>
      <point x="199" y="750" type="curve"/>
      <point x="193" y="724"/>
      <point x="185" y="690"/>
      <point x="174" y="652" type="curve" smooth="yes"/>
      <point x="12" y="11" type="line" smooth="yes"/>
      <point x="10" y="5"/>
      <point x="14" y="0"/>
      <point x="20" y="0" type="curve" smooth="yes"/>
      <point x="64" y="0"/>
      <point x="98" y="0"/>
    </contour>
    <contour>
      <point x="443" y="538" type="line"/>
      <point x="316" y="423"/>
      <point x="217" y="334"/>
      <point x="91" y="220" type="curve"/>
      <point x="74" y="151"/>
      <point x="128" y="110"/>
      <point x="160" y="138" type="curve" smooth="yes"/>
      <point x="314" y="271"/>
      <point x="440" y="378"/>
      <point x="599" y="515" type="curve" smooth="yes"/>
      <point x="609" y="524"/>
      <point x="611" y="527"/>
      <point x="612" y="530" type="curve" smooth="yes"/>
      <point x="613" y="534"/>
      <point x="610" y="538"/>
      <point x="605" y="538" type="curve"/>
    </contour>
    <contour>
      <point x="378" y="0" type="curve" smooth="yes"/>
      <point x="452" y="0"/>
      <point x="468" y="0"/>
      <point x="512" y="0" type="curve"/>
      <point x="455" y="110"/>
      <point x="397" y="226"/>
      <point x="340" y="338" type="curve"/>
      <point x="246" y="258"/>
      <point x="246" y="246"/>
      <point x="253" y="229" type="curve" smooth="yes"/>
      <point x="273" y="187"/>
      <point x="350" y="31"/>
      <point x="360" y="10" type="curve" smooth="yes"/>
      <point x="364" y="3"/>
      <point x="368" y="0"/>
    </contour>
    <contour>
      <point x="260" y="-1" type="move" name="bottom"/>
    </contour>
  </outline>
</glyph>
<glyph name="l" format="1">
  <advance width="300"/>
  <unicode hex="006C"/>
  <outline>
    <contour>
      <point x="159" y="639" type="curve"/>
      <point x="35" y="144" type="line" smooth="yes"/>
      <point x="18" y="74"/>
      <point x="67" y="22"/>
      <point x="150" y="62" type="curve"/>
      <point x="156" y="93"/>
      <point x="164" y="126"/>
      <point x="171" y="157" type="curve" smooth="yes"/>
      <point x="317" y="739" type="line" smooth="yes"/>
      <point x="318" y="742"/>
      <point x="317" y="745"/>
      <point x="316" y="747" type="curve" smooth="yes"/>
      <point x="314" y="749"/>
      <point x="312" y="750"/>
      <point x="309" y="750" type="curve" smooth="yes"/>
      <point x="268" y="750"/>
      <point x="227" y="750"/>
      <point x="187" y="750" type="curve"/>
      <point x="178" y="713"/>
      <point x="168" y="676"/>
    </contour>
    <contour>
      <point x="246" y="126" type="curve"/>
      <point x="228" y="126" type="line"/>
      <point x="216" y="126"/>
      <point x="205" y="126"/>
      <point x="193" y="126" type="curve" smooth="yes"/>
      <point x="173" y="126"/>
      <point x="166" y="134"/>
      <point x="171" y="157" type="curve"/>
      <point x="68" y="159"/>
      <point x="38" y="155"/>
      <point x="35" y="144" type="curve" smooth="yes"/>
      <point x="9" y="40"/>
      <point x="61" y="0"/>
      <point x="145" y="0" type="curve" smooth="yes"/>
      <point x="204" y="0" type="line" smooth="yes"/>
      <point x="207" y="0"/>
      <point x="210" y="1"/>
      <point x="213" y="3" type="curve" smooth="yes"/>
      <point x="215" y="5"/>
      <point x="217" y="8"/>
      <point x="218" y="11" type="curve" smooth="yes"/>
      <point x="228" y="51"/>
      <point x="236" y="85"/>
    </contour>
    <contour>
      <point x="434" y="711" type="move" name="caronslovak"/>
    </contour>
    <contour>
      <point x="250" y="730" type="move" name="top"/>
    </contour>
    <contour>
      <point x="357" y="400" type="move" name="dot"/>
    </contour>
    <contour>
      <point x="106" y="-1" type="move" name="bottom"/>
    </contour>
  </outline>
</glyph>
<glyph name="m" format="1">
  <advance width="850"/>
  <unicode hex="006D"/>
  <outline>
    <contour>
      <point x="156" y="0" type="curve"/>
      <point x="289" y="527" type="line" smooth="yes"/>
      <point x="290" y="530"/>
      <point x="290" y="533"/>
      <point x="288" y="535" type="curve" smooth="yes"/>
      <point x="287" y="537"/>
      <point x="284" y="538"/>
      <point x="281" y="538" type="curve" smooth="yes"/>
      <point x="242" y="538"/>
      <point x="198" y="538"/>
      <point x="150" y="538" type="curve"/>
      <point x="144" y="512"/>
      <point x="135" y="477"/>
      <point x="126" y="439" type="curve" smooth="yes"/>
      <point x="17" y="11" type="line" smooth="yes"/>
      <point x="16" y="5"/>
      <point x="19" y="0"/>
      <point x="25" y="0" type="curve" smooth="yes"/>
      <point x="68" y="0"/>
      <point x="112" y="0"/>
    </contour>
    <contour>
      <point x="451" y="549" type="curve" smooth="yes"/>
      <point x="389" y="549"/>
      <point x="326" y="520"/>
      <point x="265" y="454" type="curve" smooth="yes"/>
      <point x="236" y="422"/>
      <point x="217" y="390"/>
      <point x="229" y="318" type="curve"/>
      <point x="284" y="391"/>
      <point x="333" y="412"/>
      <point x="365" y="412" type="curve" smooth="yes"/>
      <point x="387" y="412"/>
      <point x="399" y="394"/>
      <point x="389" y="354" type="curve"/>
      <point x="460" y="352"/>
      <point x="534" y="377"/>
      <point x="540" y="398" type="curve" smooth="yes"/>
      <point x="560" y="482"/>
      <point x="530" y="549"/>
    </contour>
    <contour>
      <point x="439" y="0" type="curve"/>
      <point x="540" y="398" type="line"/>
      <point x="544" y="414"/>
      <point x="517" y="440"/>
      <point x="412" y="448" type="curve"/>
      <point x="405" y="417"/>
      <point x="397" y="385"/>
      <point x="389" y="354" type="curve" smooth="yes"/>
      <point x="300" y="11" type="line" smooth="yes"/>
      <point x="298" y="5"/>
      <point x="303" y="0"/>
      <point x="309" y="0" type="curve" smooth="yes"/>
      <point x="354" y="0"/>
      <point x="393" y="0"/>
    </contour>
    <contour>
      <point x="720" y="549" type="curve" smooth="yes"/>
      <point x="656" y="549"/>
      <point x="594" y="516"/>
      <point x="537" y="453" type="curve" smooth="yes"/>
      <point x="511" y="425"/>
      <point x="494" y="393"/>
      <point x="505" y="319" type="curve"/>
      <point x="560" y="388"/>
      <point x="605" y="412"/>
      <point x="643" y="412" type="curve" smooth="yes"/>
      <point x="667" y="412"/>
      <point x="684" y="398"/>
      <point x="674" y="357" type="curve"/>
      <point x="740" y="355"/>
      <point x="820" y="377"/>
      <point x="823" y="391" type="curve" smooth="yes"/>
      <point x="844" y="480"/>
      <point x="810" y="549"/>
    </contour>
    <contour>
      <point x="724" y="0" type="curve"/>
      <point x="731" y="29"/>
      <point x="740" y="63"/>
      <point x="749" y="97" type="curve" smooth="yes"/>
      <point x="823" y="391" type="line"/>
      <point x="828" y="412"/>
      <point x="796" y="438"/>
      <point x="696" y="448" type="curve"/>
      <point x="689" y="417"/>
      <point x="682" y="387"/>
      <point x="674" y="357" type="curve" smooth="yes"/>
      <point x="584" y="11" type="line" smooth="yes"/>
      <point x="582" y="5"/>
      <point x="586" y="0"/>
      <point x="592" y="0" type="curve" smooth="yes"/>
      <point x="638" y="0"/>
      <point x="678" y="0"/>
    </contour>
  </outline>
</glyph>
<glyph name="n" format="1">
  <advance width="600"/>
  <unicode hex="006E"/>
  <outline>
    <contour>
      <point x="150" y="0" type="curve"/>
      <point x="282" y="527" type="line" smooth="yes"/>
      <point x="283" y="530"/>
      <point x="283" y="533"/>
      <point x="281" y="535" type="curve" smooth="yes"/>
      <point x="280" y="537"/>
      <point x="277" y="538"/>
      <point x="274" y="538" type="curve" smooth="yes"/>
      <point x="235" y="538"/>
      <point x="192" y="538"/>
      <point x="144" y="538" type="curve"/>
      <point x="137" y="512"/>
      <point x="129" y="477"/>
      <point x="119" y="439" type="curve" smooth="yes"/>
      <point x="12" y="11" type="line" smooth="yes"/>
      <point x="10" y="5"/>
      <point x="14" y="0"/>
      <point x="20" y="0" type="curve" smooth="yes"/>
      <point x="64" y="0"/>
      <point x="107" y="0"/>
    </contour>
    <contour>
      <point x="453" y="549" type="curve" smooth="yes"/>
      <point x="388" y="549"/>
      <point x="329" y="520"/>
      <point x="257" y="442" type="curve" smooth="yes"/>
      <point x="226" y="410"/>
      <point x="194" y="364"/>
      <point x="204" y="297" type="curve"/>
      <point x="276" y="381"/>
      <point x="328" y="409"/>
      <point x="370" y="409" type="curve" smooth="yes"/>
      <point x="403" y="409"/>
      <point x="414" y="393"/>
      <point x="405" y="360" type="curve"/>
      <point x="527" y="360"/>
      <point x="549" y="374"/>
      <point x="553" y="392" type="curve" smooth="yes"/>
      <point x="574" y="473"/>
      <point x="543" y="549"/>
    </contour>
    <contour>
      <point x="456" y="0" type="curve"/>
      <point x="463" y="29"/>
      <point x="472" y="62"/>
      <point x="481" y="96" type="curve" smooth="yes"/>
      <point x="553" y="392" type="line"/>
      <point x="565" y="436"/>
      <point x="487" y="461"/>
      <point x="420" y="424" type="curve"/>
      <point x="417" y="406"/>
      <point x="413" y="389"/>
      <point x="405" y="360" type="curve" smooth="yes"/>
      <point x="318" y="11" type="line" smooth="yes"/>
      <point x="316" y="5"/>
      <point x="320" y="0"/>
      <point x="326" y="0" type="curve" smooth="yes"/>
      <point x="370" y="0"/>
      <point x="413" y="0"/>
    </contour>
    <contour>
      <point x="435" y="711" type="move" name="caronslovak"/>
    </contour>
    <contour>
      <point x="427" y="549" type="move" name="top"/>
    </contour>
    <contour>
      <point x="176" y="-1" type="move" name="bottom"/>
    </contour>
  </outline>
</glyph>
<glyph name="p" format="1">
  <advance width="600"/>
  <unicode hex="0070"/>
  <outline>
    <contour>
      <point x="95" y="-203" type="curve"/>
      <point x="278" y="527" type="line" smooth="yes"/>
      <point x="279" y="530"/>
      <point x="279" y="533"/>
      <point x="277" y="535" type="curve" smooth="yes"/>
      <point x="276" y="537"/>
      <point x="273" y="538"/>
      <point x="270" y="538" type="curve"/>
      <point x="228" y="538"/>
      <point x="186" y="538"/>
      <point x="144" y="538" type="curve"/>
      <point x="137" y="508"/>
      <point x="128" y="474"/>
      <point x="119" y="437" type="curve" smooth="yes"/>
      <point x="-39" y="-192" type="line" smooth="yes"/>
      <point x="-40" y="-199"/>
      <point x="-36" y="-203"/>
      <point x="-30" y="-203" type="curve"/>
      <point x="12" y="-203"/>
      <point x="53" y="-203"/>
    </contour>
    <contour>
      <point x="425" y="549" type="curve" smooth="yes"/>
      <point x="368" y="549"/>
      <point x="313" y="522"/>
      <point x="259" y="470" type="curve" smooth="yes"/>
      <point x="206" y="418"/>
      <point x="181" y="378"/>
      <point x="190" y="345" type="curve"/>
      <point x="270" y="399"/>
      <point x="319" y="422"/>
      <point x="373" y="422" type="curve" smooth="yes"/>
      <point x="417" y="422"/>
      <point x="437" y="400"/>
      <point x="423" y="342" type="curve"/>
      <point x="537" y="326"/>
      <point x="557" y="329"/>
      <point x="560" y="340" type="curve" smooth="yes"/>
      <point x="588" y="453"/>
      <point x="537" y="549"/>
    </contour>
    <contour>
      <point x="308" y="-10" type="curve" smooth="yes"/>
      <point x="416" y="-10"/>
      <point x="489" y="54"/>
      <point x="526" y="207" type="curve" smooth="yes"/>
      <point x="560" y="340" type="line" smooth="yes"/>
      <point x="576" y="404"/>
      <point x="537" y="477"/>
      <point x="467" y="477" type="curve" smooth="yes"/>
      <point x="438" y="477"/>
      <point x="419" y="466"/>
      <point x="413" y="444" type="curve"/>
      <point x="429" y="413"/>
      <point x="439" y="401"/>
      <point x="423" y="342" type="curve" smooth="yes"/>
      <point x="390" y="208" type="line" smooth="yes"/>
      <point x="373" y="141"/>
      <point x="339" y="114"/>
      <point x="292" y="114" type="curve" smooth="yes"/>
      <point x="244" y="114"/>
      <point x="205" y="127"/>
      <point x="159" y="186" type="curve"/>
      <point x="140" y="164"/>
      <point x="134" y="144"/>
      <point x="133" y="133" type="curve" smooth="yes"/>
      <point x="127" y="82"/>
      <point x="197" y="-10"/>
    </contour>
  </outline>
</glyph>
<glyph name="q" format="1">
  <advance width="600"/>
  <unicode hex="0071"/>
  <outline>
    <contour>
      <point x="293" y="549" type="curve" smooth="yes"/>
      <point x="188" y="549"/>
      <point x="113" y="489"/>
      <point x="77" y="342" type="curve" smooth="yes"/>
      <point x="36" y="183" type="line" smooth="yes"/>
      <point x="21" y="117"/>
      <point x="62" y="62"/>
      <point x="133" y="62" type="curve" smooth="yes"/>
      <point x="162" y="62"/>
      <point x="182" y="74"/>
      <point x="187" y="95" type="curve"/>
      <point x="173" y="123"/>
      <point x="161" y="134"/>
      <point x="174" y="184" type="curve" smooth="yes"/>
      <point x="211" y="330" type="line" smooth="yes"/>
      <point x="226" y="393"/>
      <point x="261" y="421"/>
      <point x="311" y="421" type="curve" smooth="yes"/>
      <point x="354" y="421"/>
      <point x="396" y="402"/>
      <point x="427" y="356" type="curve"/>
      <point x="442" y="366"/>
      <point x="451" y="382"/>
      <point x="453" y="398" type="curve" smooth="yes"/>
      <point x="462" y="458"/>
      <point x="394" y="549"/>
    </contour>
    <contour>
      <point x="150" y="-10" type="curve" smooth="yes"/>
      <point x="214" y="-10"/>
      <point x="276" y="19"/>
      <point x="340" y="79" type="curve" smooth="yes"/>
      <point x="395" y="131"/>
      <point x="411" y="178"/>
      <point x="400" y="208" type="curve"/>
      <point x="314" y="141"/>
      <point x="265" y="116"/>
      <point x="216" y="116" type="curve" smooth="yes"/>
      <point x="177" y="116"/>
      <point x="162" y="135"/>
      <point x="174" y="184" type="curve"/>
      <point x="110" y="208"/>
      <point x="37" y="186"/>
      <point x="36" y="183" type="curve" smooth="yes"/>
      <point x="7" y="66"/>
      <point x="53" y="-10"/>
    </contour>
    <contour>
      <point x="405" y="-203" type="curve"/>
      <point x="565" y="438" type="line" smooth="yes"/>
      <point x="573" y="471"/>
      <point x="582" y="505"/>
      <point x="590" y="538" type="curve"/>
      <point x="548" y="538"/>
      <point x="506" y="538"/>
      <point x="464" y="538" type="curve" smooth="yes"/>
      <point x="461" y="538"/>
      <point x="458" y="537"/>
      <point x="455" y="535" type="curve" smooth="yes"/>
      <point x="453" y="533"/>
      <point x="451" y="530"/>
      <point x="450" y="527" type="curve" smooth="yes"/>
      <point x="270" y="-192" type="line" smooth="yes"/>
      <point x="268" y="-199"/>
      <point x="273" y="-203"/>
      <point x="279" y="-203" type="curve" smooth="yes"/>
      <point x="321" y="-203"/>
      <point x="363" y="-203"/>
    </contour>
  </outline>
</glyph>
<glyph name="r" format="1">
  <advance width="450"/>
  <unicode hex="0072"/>
  <outline>
    <contour>
      <point x="168" y="0" type="curve"/>
      <point x="301" y="527" type="line" smooth="yes"/>
      <point x="302" y="530"/>
      <point x="302" y="533"/>
      <point x="300" y="535" type="curve" smooth="yes"/>
      <point x="299" y="537"/>
      <point x="296" y="538"/>
      <point x="293" y="538" type="curve" smooth="yes"/>
      <point x="253" y="538"/>
      <point x="198" y="538"/>
      <point x="150" y="538" type="curve"/>
      <point x="143" y="512"/>
      <point x="135" y="477"/>
      <point x="125" y="439" type="curve" smooth="yes"/>
      <point x="17" y="11" type="line" smooth="yes"/>
      <point x="16" y="5"/>
      <point x="19" y="0"/>
      <point x="25" y="0" type="curve" smooth="yes"/>
      <point x="70" y="0"/>
      <point x="124" y="0"/>
    </contour>
    <contour>
      <point x="229" y="287" type="curve"/>
      <point x="296" y="376"/>
      <point x="341" y="396"/>
      <point x="411" y="396" type="curve" smooth="yes"/>
      <point x="429" y="396"/>
      <point x="447" y="395"/>
      <point x="464" y="393" type="curve"/>
      <point x="481" y="393" type="line"/>
      <point x="493" y="441"/>
      <point x="502" y="501"/>
      <point x="513" y="539" type="curve"/>
      <point x="516" y="546"/>
      <point x="513" y="550"/>
      <point x="505" y="550" type="curve" smooth="yes"/>
      <point x="474" y="550" type="line" smooth="yes"/>
      <point x="390" y="550"/>
      <point x="328" y="506"/>
      <point x="269" y="430" type="curve" smooth="yes"/>
      <point x="235" y="385"/>
      <point x="218" y="352"/>
    </contour>
    <contour>
      <point x="265" y="549" type="move" name="top"/>
    </contour>
    <contour>
      <point x="265" y="-1" type="move" name="bottom"/>
    </contour>
  </outline>
</glyph>
<glyph name="s" format="1">
  <advance width="550"/>
  <unicode hex="0073"/>
  <outline>
    <contour>
      <point x="378" y="549" type="curve" smooth="yes"/>
      <point x="371" y="549" type="line" smooth="yes"/>
      <point x="231" y="549"/>
      <point x="129" y="500"/>
      <point x="102" y="393" type="curve" smooth="yes"/>
      <point x="90" y="348"/>
      <point x="138" y="309"/>
      <point x="217" y="309" type="curve"/>
      <point x="220" y="324"/>
      <point x="230" y="361"/>
      <point x="235" y="377" type="curve" smooth="yes"/>
      <point x="242" y="405"/>
      <point x="279" y="419"/>
      <point x="351" y="419" type="curve" smooth="yes"/>
      <point x="417" y="419"/>
      <point x="456" y="408"/>
      <point x="504" y="388" type="curve"/>
      <point x="523" y="388" type="line"/>
      <point x="532" y="428"/>
      <point x="542" y="464"/>
      <point x="550" y="503" type="curve"/>
      <point x="552" y="508"/>
      <point x="552" y="510"/>
      <point x="550" y="513" type="curve" smooth="yes"/>
      <point x="541" y="524"/>
      <point x="476" y="549"/>
    </contour>
    <contour>
      <point x="360" y="314" type="curve" smooth="yes"/>
      <point x="276" y="327" type="line" smooth="yes"/>
      <point x="234" y="334"/>
      <point x="229" y="355"/>
      <point x="235" y="377" type="curve" smooth="yes"/>
      <point x="240" y="399"/>
      <point x="246" y="423"/>
      <point x="254" y="453" type="curve"/>
      <point x="172" y="453"/>
      <point x="112" y="434"/>
      <point x="102" y="393" type="curve"/>
      <point x="81" y="310"/>
      <point x="121" y="247"/>
      <point x="229" y="232" type="curve" smooth="yes"/>
      <point x="307" y="219" type="line" smooth="yes"/>
      <point x="361" y="211"/>
      <point x="366" y="186"/>
      <point x="361" y="166" type="curve" smooth="yes"/>
      <point x="355" y="142"/>
      <point x="349" y="117"/>
      <point x="343" y="89" type="curve"/>
      <point x="430" y="91"/>
      <point x="481" y="102"/>
      <point x="493" y="148" type="curve" smooth="yes"/>
      <point x="510" y="223"/>
      <point x="472" y="299"/>
    </contour>
    <contour>
      <point x="246" y="120" type="curve" smooth="yes"/>
      <point x="154" y="120"/>
      <point x="106" y="134"/>
      <point x="50" y="164" type="curve"/>
      <point x="31" y="164" type="line"/>
      <point x="23" y="129"/>
      <point x="15" y="93"/>
      <point x="4" y="47" type="curve" smooth="yes"/>
      <point x="3" y="44"/>
      <point x="3" y="42"/>
      <point x="5" y="39" type="curve" smooth="yes"/>
      <point x="15" y="25"/>
      <point x="106" y="-12"/>
      <point x="214" y="-12" type="curve" smooth="yes"/>
      <point x="224" y="-12" type="line" smooth="yes"/>
      <point x="366" y="-12"/>
      <point x="462" y="28"/>
      <point x="493" y="148" type="curve" smooth="yes"/>
      <point x="505" y="203"/>
      <point x="455" y="242"/>
      <point x="379" y="242" type="curve"/>
      <point x="372" y="214"/>
      <point x="365" y="185"/>
      <point x="361" y="166" type="curve" smooth="yes"/>
      <point x="353" y="138"/>
      <point x="326" y="120"/>
    </contour>
    <contour>
      <point x="277" y="549" type="move" name="top"/>
    </contour>
    <contour>
      <point x="277" y="-1" type="move" name="bottom"/>
    </contour>
  </outline>
</glyph>
<glyph name="t" format="1">
  <advance width="500"/>
  <unicode hex="0074"/>
  <outline>
    <contour>
      <point x="233" y="700" type="curve"/>
      <point x="112" y="220" type="line" smooth="yes"/>
      <point x="87" y="120"/>
      <point x="134" y="42"/>
      <point x="264" y="62" type="curve"/>
      <point x="232" y="109"/>
      <point x="224" y="147"/>
      <point x="243" y="221" type="curve" smooth="yes"/>
      <point x="362" y="689" type="line" smooth="yes"/>
      <point x="364" y="695"/>
      <point x="360" y="700"/>
      <point x="354" y="700" type="curve" smooth="yes"/>
      <point x="315" y="700"/>
      <point x="274" y="700"/>
    </contour>
    <contour>
      <point x="403" y="127" type="curve"/>
      <point x="384" y="127" type="line"/>
      <point x="350" y="127"/>
      <point x="358" y="127"/>
      <point x="314" y="127" type="curve" smooth="yes"/>
      <point x="247" y="127"/>
      <point x="224" y="143"/>
      <point x="243" y="221" type="curve"/>
      <point x="141" y="244"/>
      <point x="117" y="238"/>
      <point x="112" y="220" type="curve" smooth="yes"/>
      <point x="76" y="71"/>
      <point x="146" y="0"/>
      <point x="285" y="0" type="curve" smooth="yes"/>
      <point x="360" y="0" type="line" smooth="yes"/>
      <point x="363" y="0"/>
      <point x="366" y="1"/>
      <point x="369" y="3" type="curve" smooth="yes"/>
      <point x="371" y="5"/>
      <point x="373" y="8"/>
      <point x="374" y="11" type="curve" smooth="yes"/>
      <point x="383" y="51"/>
      <point x="392" y="86"/>
    </contour>
    <contour>
      <point x="109" y="538" type="line"/>
      <point x="99" y="497"/>
      <point x="90" y="465"/>
      <point x="80" y="425" type="curve" smooth="yes"/>
      <point x="79" y="422"/>
      <point x="79" y="419"/>
      <point x="81" y="417" type="curve" smooth="yes"/>
      <point x="82" y="415"/>
      <point x="85" y="414"/>
      <point x="88" y="414" type="curve"/>
      <point x="474" y="414" type="line"/>
      <point x="485" y="454"/>
      <point x="492" y="486"/>
      <point x="502" y="527" type="curve" smooth="yes"/>
      <point x="504" y="533"/>
      <point x="500" y="538"/>
      <point x="494" y="538" type="curve"/>
    </contour>
    <contour>
      <point x="504" y="711" type="move" name="caronslovak"/>
    </contour>
    <contour>
      <point x="219" y="-1" type="move" name="bottom"/>
    </contour>
  </outline>
</glyph>
<glyph name="v" format="1">
  <advance width="600"/>
  <unicode hex="0076"/>
  <outline>
    <contour>
      <point x="610" y="538" type="curve" smooth="yes"/>
      <point x="481" y="538" type="line"/>
      <point x="403" y="387"/>
      <point x="325" y="239"/>
      <point x="245" y="88" type="curve"/>
      <point x="215" y="29"/>
      <point x="203" y="14"/>
      <point x="170" y="0" type="curve"/>
      <point x="329" y="0" type="line"/>
      <point x="425" y="174"/>
      <point x="522" y="346"/>
      <point x="618" y="520" type="curve"/>
      <point x="623" y="529"/>
      <point x="620" y="538"/>
    </contour>
    <contour>
      <point x="228" y="538" type="curve" smooth="yes"/>
      <point x="107" y="538" type="line"/>
      <point x="116" y="363"/>
      <point x="125" y="189"/>
      <point x="134" y="14" type="curve"/>
      <point x="134" y="5"/>
      <point x="140" y="0"/>
      <point x="150" y="0" type="curve" smooth="yes"/>
      <point x="176" y="0" type="line" smooth="yes"/>
      <point x="230" y="0"/>
      <point x="327" y="27"/>
      <point x="351" y="125" type="curve"/>
      <point x="317" y="125"/>
      <point x="285" y="125"/>
      <point x="259" y="125" type="curve" smooth="yes"/>
      <point x="252" y="125"/>
      <point x="250" y="128"/>
      <point x="249" y="136" type="curve"/>
      <point x="247" y="264"/>
      <point x="243" y="392"/>
      <point x="240" y="521" type="curve"/>
      <point x="240" y="532"/>
      <point x="236" y="538"/>
    </contour>
  </outline>
</glyph>
<glyph name="w" format="1">
  <advance width="800"/>
  <unicode hex="0077"/>
  <outline>
    <contour>
      <point x="112" y="538" type="curve"/>
      <point x="104" y="363"/>
      <point x="96" y="189"/>
      <point x="87" y="14" type="curve"/>
      <point x="87" y="4"/>
      <point x="93" y="0"/>
      <point x="103" y="0" type="curve"/>
      <point x="154" y="0" type="line" smooth="yes"/>
      <point x="200" y="21"/>
      <point x="200" y="37"/>
      <point x="205" y="52" type="curve"/>
      <point x="220" y="209"/>
      <point x="234" y="366"/>
      <point x="248" y="524" type="curve"/>
      <point x="249" y="529"/>
      <point x="248" y="533"/>
      <point x="246" y="536" type="curve" smooth="yes"/>
      <point x="244" y="537"/>
      <point x="241" y="538"/>
      <point x="237" y="538" type="curve"/>
      <point x="193" y="538"/>
      <point x="155" y="538"/>
    </contour>
    <contour>
      <point x="415" y="538" type="curve"/>
      <point x="341" y="387"/>
      <point x="268" y="238"/>
      <point x="194" y="88" type="curve"/>
      <point x="166" y="34"/>
      <point x="155" y="21"/>
      <point x="129" y="0" type="curve"/>
      <point x="260" y="0" type="line"/>
      <point x="343" y="160"/>
      <point x="423" y="318"/>
      <point x="507" y="489" type="curve"/>
      <point x="522" y="523"/>
      <point x="523" y="531"/>
      <point x="522" y="538" type="curve" smooth="yes"/>
      <point x="490" y="538"/>
      <point x="448" y="538"/>
    </contour>
    <contour>
      <point x="428" y="477" type="curve"/>
      <point x="427" y="322"/>
      <point x="427" y="169"/>
      <point x="427" y="14" type="curve"/>
      <point x="427" y="4"/>
      <point x="433" y="0"/>
      <point x="442" y="0" type="curve"/>
      <point x="496" y="0" type="line" smooth="yes"/>
      <point x="528" y="26"/>
      <point x="532" y="36"/>
      <point x="533" y="44" type="curve"/>
      <point x="534" y="204"/>
      <point x="535" y="362"/>
      <point x="536" y="523" type="curve"/>
      <point x="536" y="531"/>
      <point x="532" y="538"/>
      <point x="522" y="538" type="curve" smooth="yes"/>
      <point x="505" y="538"/>
      <point x="492" y="529"/>
    </contour>
    <contour>
      <point x="704" y="538" type="curve"/>
      <point x="643" y="390"/>
      <point x="582" y="243"/>
      <point x="521" y="95" type="curve"/>
      <point x="499" y="44"/>
      <point x="482" y="28"/>
      <point x="462" y="0" type="curve"/>
      <point x="602" y="0" type="line"/>
      <point x="680" y="172"/>
      <point x="760" y="343"/>
      <point x="838" y="513" type="curve"/>
      <point x="845" y="527"/>
      <point x="842" y="534"/>
      <point x="840" y="536" type="curve" smooth="yes"/>
      <point x="838" y="537"/>
      <point x="836" y="538"/>
      <point x="833" y="538" type="curve"/>
      <point x="789" y="538"/>
      <point x="748" y="538"/>
    </contour>
    <contour>
      <point x="463" y="549" type="move" name="top"/>
    </contour>
  </outline>
</glyph>
<glyph name="z" format="1">
  <advance width="550"/>
  <unicode hex="007A"/>
  <outline>
    <contour>
      <point x="139" y="538" type="line"/>
      <point x="129" y="496"/>
      <point x="122" y="467"/>
      <point x="112" y="425" type="curve" smooth="yes"/>
      <point x="111" y="421"/>
      <point x="112" y="418"/>
      <point x="113" y="417" type="curve" smooth="yes"/>
      <point x="115" y="415"/>
      <point x="118" y="414"/>
      <point x="121" y="414" type="curve" smooth="yes"/>
      <point x="395" y="414" type="line" smooth="yes"/>
      <point x="455" y="414"/>
      <point x="496" y="411"/>
      <point x="547" y="421" type="curve"/>
      <point x="570" y="527" type="line" smooth="yes"/>
      <point x="571" y="530"/>
      <point x="571" y="533"/>
      <point x="569" y="535" type="curve" smooth="yes"/>
      <point x="568" y="537"/>
      <point x="565" y="538"/>
      <point x="562" y="538" type="curve" smooth="yes"/>
    </contour>
    <contour>
      <point x="406" y="451" type="curve"/>
      <point x="281" y="338"/>
      <point x="159" y="226"/>
      <point x="33" y="115" type="curve"/>
      <point x="14" y="45"/>
      <point x="123" y="46"/>
      <point x="176" y="92" type="curve" smooth="yes"/>
      <point x="338" y="233"/>
      <point x="546" y="419"/>
      <point x="547" y="421" type="curve"/>
      <point x="551" y="446"/>
      <point x="498" y="451"/>
    </contour>
    <contour>
      <point x="436" y="0" type="line"/>
      <point x="446" y="43"/>
      <point x="453" y="69"/>
      <point x="463" y="112" type="curve"/>
      <point x="465" y="118"/>
      <point x="461" y="123"/>
      <point x="455" y="123" type="curve" smooth="yes"/>
      <point x="194" y="123" type="line" smooth="yes"/>
      <point x="133" y="123"/>
      <point x="89" y="130"/>
      <point x="33" y="115" type="curve"/>
      <point x="5" y="13" type="line" smooth="yes"/>
      <point x="3" y="6"/>
      <point x="4" y="4"/>
      <point x="6" y="2" type="curve" smooth="yes"/>
      <point x="8" y="0"/>
      <point x="11" y="0"/>
      <point x="14" y="0" type="curve" smooth="yes"/>
    </contour>
    <contour>
      <point x="287" y="549" type="move" name="top"/>
    </contour>
  </outline>
</glyph>
<glyph name="braceleft" format="1">
  <advance width="500"/>
  <unicode hex="007B"/>
  <outline>
    <contour>
      <point x="434" y="634" type="curve" smooth="yes"/>
      <point x="503" y="634"/>
      <point x="486" y="634"/>
      <point x="543" y="634" type="curve"/>
      <point x="563" y="634" type="line"/>
      <point x="573" y="672"/>
      <point x="582" y="710"/>
      <point x="592" y="749" type="curve"/>
      <point x="594" y="756"/>
      <point x="591" y="760"/>
      <point x="584" y="760" type="curve" smooth="yes"/>
      <point x="408" y="760" type="line" smooth="yes"/>
      <point x="326" y="760"/>
      <point x="281" y="697"/>
      <point x="272" y="659" type="curve" smooth="yes"/>
      <point x="271" y="655" type="line" smooth="yes"/>
      <point x="269" y="646"/>
      <point x="275" y="640"/>
      <point x="389" y="601" type="curve"/>
      <point x="397" y="627"/>
      <point x="408" y="634"/>
    </contour>
    <contour>
      <point x="407" y="443" type="curve" smooth="yes"/>
      <point x="428" y="527"/>
      <point x="379" y="556"/>
      <point x="389" y="596" type="curve" smooth="yes"/>
      <point x="390" y="600"/>
      <point x="403" y="652"/>
      <point x="408" y="671" type="curve"/>
      <point x="278" y="669"/>
      <point x="273" y="665"/>
      <point x="272" y="659" type="curve" smooth="yes"/>
      <point x="261" y="615" type="line" smooth="yes"/>
      <point x="238" y="524"/>
      <point x="290" y="506"/>
      <point x="274" y="444" type="curve" smooth="yes"/>
      <point x="261" y="391"/>
      <point x="196" y="363"/>
      <point x="87" y="363" type="curve" smooth="yes"/>
      <point x="55" y="363" type="line"/>
      <point x="34" y="281" type="line" smooth="yes"/>
      <point x="32" y="272"/>
      <point x="36" y="269"/>
      <point x="43" y="269" type="curve" smooth="yes"/>
      <point x="63" y="269" type="line" smooth="yes"/>
      <point x="283" y="269"/>
      <point x="383" y="348"/>
    </contour>
    <contour>
      <point x="335" y="156" type="curve" smooth="yes"/>
      <point x="360" y="255"/>
      <point x="300" y="331"/>
      <point x="79" y="331" type="curve" smooth="yes"/>
      <point x="68" y="331"/>
      <point x="58" y="331"/>
      <point x="47" y="331" type="curve"/>
      <point x="26" y="248" type="line" smooth="yes"/>
      <point x="24" y="241"/>
      <point x="27" y="237"/>
      <point x="34" y="237" type="curve" smooth="yes"/>
      <point x="55" y="237" type="line" smooth="yes"/>
      <point x="164" y="237"/>
      <point x="215" y="205"/>
      <point x="202" y="154" type="curve" smooth="yes"/>
      <point x="186" y="93"/>
      <point x="126" y="75"/>
      <point x="103" y="-16" type="curve" smooth="yes"/>
      <point x="92" y="-60" type="line" smooth="yes"/>
      <point x="91" y="-66"/>
      <point x="94" y="-70"/>
      <point x="222" y="-71" type="curve"/>
      <point x="228" y="-46"/>
      <point x="234" y="-22"/>
      <point x="241" y="3" type="curve" smooth="yes"/>
      <point x="251" y="43"/>
      <point x="314" y="72"/>
    </contour>
    <contour>
      <point x="267" y="-35" type="curve" smooth="yes"/>
      <point x="241" y="-35"/>
      <point x="234" y="-28"/>
      <point x="239" y="-2" type="curve"/>
      <point x="106" y="-41"/>
      <point x="95" y="-47"/>
      <point x="93" y="-56" type="curve" smooth="yes"/>
      <point x="92" y="-60" type="line" smooth="yes"/>
      <point x="83" y="-98"/>
      <point x="95" y="-161"/>
      <point x="178" y="-161" type="curve" smooth="yes"/>
      <point x="353" y="-161" type="line" smooth="yes"/>
      <point x="360" y="-161"/>
      <point x="365" y="-157"/>
      <point x="367" y="-150" type="curve"/>
      <point x="396" y="-35" type="line"/>
      <point x="376" y="-35" type="line"/>
      <point x="319" y="-35"/>
      <point x="336" y="-35"/>
    </contour>
  </outline>
</glyph>
<glyph name="bar" format="1">
  <advance width="300"/>
  <unicode hex="007C"/>
  <outline>
    <contour>
      <point x="202" y="760" type="curve"/>
      <point x="193" y="725"/>
      <point x="185" y="690"/>
      <point x="176" y="654" type="curve" smooth="yes"/>
      <point x="-25" y="-149" type="line" smooth="yes"/>
      <point x="-27" y="-155"/>
      <point x="-23" y="-160"/>
      <point x="-17" y="-160" type="curve" smooth="yes"/>
      <point x="27" y="-160"/>
      <point x="70" y="-160"/>
      <point x="113" y="-160" type="curve"/>
      <point x="341" y="749" type="line" smooth="yes"/>
      <point x="341" y="752"/>
      <point x="341" y="755"/>
      <point x="340" y="757" type="curve" smooth="yes"/>
      <point x="338" y="759"/>
      <point x="335" y="760"/>
      <point x="332" y="760" type="curve" smooth="yes"/>
      <point x="289" y="760"/>
      <point x="246" y="760"/>
    </contour>
  </outline>
</glyph>
<glyph name="braceright" format="1">
  <advance width="500"/>
  <unicode hex="007D"/>
  <outline>
    <contour>
      <point x="89" y="-2" type="curve" smooth="yes"/>
      <point x="21" y="-2"/>
      <point x="37" y="-2"/>
      <point x="-20" y="-2" type="curve"/>
      <point x="-40" y="-2" type="line"/>
      <point x="-49" y="-40"/>
      <point x="-59" y="-78"/>
      <point x="-68" y="-117" type="curve"/>
      <point x="-70" y="-124"/>
      <point x="-67" y="-128"/>
      <point x="-60" y="-128" type="curve" smooth="yes"/>
      <point x="115" y="-128" type="line" smooth="yes"/>
      <point x="198" y="-128"/>
      <point x="242" y="-65"/>
      <point x="252" y="-27" type="curve" smooth="yes"/>
      <point x="253" y="-23" type="line" smooth="yes"/>
      <point x="255" y="-14"/>
      <point x="249" y="-8"/>
      <point x="134" y="31" type="curve"/>
      <point x="127" y="6"/>
      <point x="115" y="-2"/>
    </contour>
    <contour>
      <point x="117" y="189" type="curve" smooth="yes"/>
      <point x="96" y="105"/>
      <point x="145" y="76"/>
      <point x="135" y="36" type="curve" smooth="yes"/>
      <point x="134" y="32"/>
      <point x="121" y="-19"/>
      <point x="116" y="-39" type="curve"/>
      <point x="245" y="-37"/>
      <point x="250" y="-33"/>
      <point x="252" y="-27" type="curve" smooth="yes"/>
      <point x="263" y="17" type="line" smooth="yes"/>
      <point x="285" y="108"/>
      <point x="234" y="126"/>
      <point x="249" y="188" type="curve" smooth="yes"/>
      <point x="263" y="241"/>
      <point x="328" y="269"/>
      <point x="437" y="269" type="curve" smooth="yes"/>
      <point x="469" y="269" type="line"/>
      <point x="489" y="352" type="line" smooth="yes"/>
      <point x="492" y="360"/>
      <point x="488" y="363"/>
      <point x="480" y="363" type="curve" smooth="yes"/>
      <point x="460" y="363" type="line" smooth="yes"/>
      <point x="241" y="363"/>
      <point x="141" y="284"/>
    </contour>
    <contour>
      <point x="189" y="477" type="curve" smooth="yes"/>
      <point x="164" y="377"/>
      <point x="224" y="301"/>
      <point x="445" y="301" type="curve" smooth="yes"/>
      <point x="456" y="301"/>
      <point x="466" y="301"/>
      <point x="477" y="301" type="curve"/>
      <point x="498" y="384" type="line" smooth="yes"/>
      <point x="499" y="391"/>
      <point x="496" y="395"/>
      <point x="489" y="395" type="curve" smooth="yes"/>
      <point x="468" y="395" type="line" smooth="yes"/>
      <point x="359" y="395"/>
      <point x="309" y="427"/>
      <point x="322" y="478" type="curve" smooth="yes"/>
      <point x="337" y="540"/>
      <point x="398" y="557"/>
      <point x="421" y="649" type="curve" smooth="yes"/>
      <point x="431" y="692" type="line" smooth="yes"/>
      <point x="433" y="698"/>
      <point x="430" y="702"/>
      <point x="302" y="703" type="curve"/>
      <point x="295" y="678"/>
      <point x="289" y="654"/>
      <point x="283" y="629" type="curve" smooth="yes"/>
      <point x="273" y="589"/>
      <point x="210" y="560"/>
    </contour>
    <contour>
      <point x="256" y="667" type="curve" smooth="yes"/>
      <point x="283" y="667"/>
      <point x="290" y="660"/>
      <point x="285" y="634" type="curve"/>
      <point x="418" y="674"/>
      <point x="428" y="680"/>
      <point x="430" y="688" type="curve" smooth="yes"/>
      <point x="431" y="692" type="line" smooth="yes"/>
      <point x="441" y="730"/>
      <point x="428" y="793"/>
      <point x="346" y="793" type="curve" smooth="yes"/>
      <point x="170" y="793" type="line" smooth="yes"/>
      <point x="163" y="793"/>
      <point x="158" y="789"/>
      <point x="156" y="782" type="curve"/>
      <point x="128" y="667" type="line"/>
      <point x="148" y="667" type="line"/>
      <point x="205" y="667"/>
      <point x="188" y="667"/>
    </contour>
  </outline>
</glyph>
<glyph name="asciitilde" format="1">
  <advance width="600"/>
  <unicode hex="007E"/>
  <outline>
    <contour>
      <point x="439" y="313" type="curve" smooth="yes"/>
      <point x="355" y="313"/>
      <point x="318" y="413"/>
      <point x="214" y="413" type="curve" smooth="yes"/>
      <point x="161" y="413"/>
      <point x="121" y="397"/>
      <point x="90" y="370" type="curve" smooth="yes"/>
      <point x="80" y="361"/>
      <point x="79" y="356"/>
      <point x="76" y="345" type="curve" smooth="yes"/>
      <point x="68" y="314"/>
      <point x="59" y="276"/>
      <point x="49" y="238" type="curve"/>
      <point x="68" y="238" type="line"/>
      <point x="104" y="272"/>
      <point x="138" y="287"/>
      <point x="176" y="287" type="curve" smooth="yes"/>
      <point x="261" y="287"/>
      <point x="298" y="187"/>
      <point x="402" y="187" type="curve" smooth="yes"/>
      <point x="455" y="187"/>
      <point x="494" y="203"/>
      <point x="525" y="230" type="curve" smooth="yes"/>
      <point x="535" y="239"/>
      <point x="537" y="244"/>
      <point x="540" y="255" type="curve" smooth="yes"/>
      <point x="547" y="286"/>
      <point x="557" y="324"/>
      <point x="566" y="361" type="curve"/>
      <point x="548" y="361" type="line"/>
      <point x="511" y="327"/>
      <point x="478" y="313"/>
    </contour>
  </outline>
</glyph>
<glyph name="exclamdown" format="1">
  <advance width="400"/>
  <unicode hex="00A1"/>
  <outline>
    <contour>
      <point x="148" y="256" type="line"/>
      <point x="119" y="182"/>
      <point x="90" y="109"/>
      <point x="61" y="36" type="curve"/>
      <point x="14" y="-151" type="line" smooth="yes"/>
      <point x="13" y="-158"/>
      <point x="16" y="-162"/>
      <point x="22" y="-162" type="curve" smooth="yes"/>
      <point x="86" y="-162"/>
      <point x="135" y="-162"/>
      <point x="173" y="-162" type="curve"/>
      <point x="182" y="-124"/>
      <point x="191" y="-89"/>
      <point x="200" y="-52" type="curve" smooth="yes"/>
      <point x="222" y="36" type="line"/>
      <point x="246" y="246"/>
      <point x="245" y="249"/>
      <point x="242" y="253" type="curve" smooth="yes"/>
      <point x="241" y="255"/>
      <point x="239" y="256"/>
      <point x="235" y="256" type="curve"/>
    </contour>
    <contour>
      <point x="176" y="547" type="curve"/>
      <point x="132" y="371" type="line" smooth="yes"/>
      <point x="131" y="365"/>
      <point x="134" y="360"/>
      <point x="140" y="360" type="curve" smooth="yes"/>
      <point x="198" y="360"/>
      <point x="259" y="360"/>
      <point x="316" y="360" type="curve"/>
      <point x="360" y="536" type="line" smooth="yes"/>
      <point x="362" y="542"/>
      <point x="358" y="547"/>
      <point x="352" y="547" type="curve" smooth="yes"/>
      <point x="295" y="547"/>
      <point x="233" y="547"/>
    </contour>
  </outline>
</glyph>
<glyph name="cent" format="1">
  <advance width="600"/>
  <unicode hex="00A2"/>
  <outline>
    <contour>
      <point x="418" y="387" type="line"/>
      <point x="567" y="762" type="line" smooth="yes"/>
      <point x="570" y="771"/>
      <point x="566" y="775"/>
      <point x="560" y="775" type="curve" smooth="yes"/>
      <point x="512" y="775"/>
      <point x="492" y="775"/>
      <point x="443" y="775" type="curve"/>
      <point x="435" y="743"/>
      <point x="428" y="711"/>
      <point x="420" y="679" type="curve"/>
      <point x="354" y="416" type="line" smooth="yes"/>
      <point x="352" y="408"/>
      <point x="354" y="404"/>
      <point x="361" y="402" type="curve" smooth="yes"/>
    </contour>
    <contour>
      <point x="328" y="311" type="line"/>
      <point x="179" y="-64" type="line" smooth="yes"/>
      <point x="176" y="-73"/>
      <point x="180" y="-77"/>
      <point x="186" y="-77" type="curve" smooth="yes"/>
      <point x="234" y="-77"/>
      <point x="255" y="-77"/>
      <point x="303" y="-77" type="curve"/>
      <point x="311" y="-45"/>
      <point x="319" y="-13"/>
      <point x="327" y="19" type="curve"/>
      <point x="392" y="281" type="line" smooth="yes"/>
      <point x="394" y="289"/>
      <point x="393" y="294"/>
      <point x="385" y="296" type="curve" smooth="yes"/>
    </contour>
    <contour>
      <point x="435" y="631" type="curve" smooth="yes"/>
      <point x="270" y="631"/>
      <point x="137" y="531"/>
      <point x="100" y="383" type="curve" smooth="yes"/>
      <point x="82" y="313" type="line" smooth="yes"/>
      <point x="44" y="159"/>
      <point x="116" y="70"/>
      <point x="294" y="70" type="curve" smooth="yes"/>
      <point x="314" y="70"/>
      <point x="320" y="91"/>
      <point x="324" y="202" type="curve"/>
      <point x="229" y="202"/>
      <point x="201" y="240"/>
      <point x="221" y="321" type="curve" smooth="yes"/>
      <point x="236" y="380" type="line" smooth="yes"/>
      <point x="258" y="468"/>
      <point x="320" y="498"/>
      <point x="400" y="498" type="curve" smooth="yes"/>
      <point x="458" y="498"/>
      <point x="501" y="485"/>
      <point x="546" y="463" type="curve"/>
      <point x="565" y="463" type="line"/>
      <point x="575" y="502"/>
      <point x="585" y="541"/>
      <point x="594" y="581" type="curve" smooth="yes"/>
      <point x="596" y="585"/>
      <point x="595" y="588"/>
      <point x="593" y="590" type="curve" smooth="yes"/>
      <point x="581" y="606"/>
      <point x="529" y="631"/>
    </contour>
    <contour>
      <point x="156" y="264" type="curve"/>
      <point x="99" y="132"/>
      <point x="152" y="70"/>
      <point x="294" y="70" type="curve" smooth="yes"/>
      <point x="384" y="70"/>
      <point x="452" y="92"/>
      <point x="473" y="109" type="curve" smooth="yes"/>
      <point x="476" y="111"/>
      <point x="477" y="114"/>
      <point x="478" y="117" type="curve"/>
      <point x="488" y="156"/>
      <point x="498" y="195"/>
      <point x="508" y="235" type="curve"/>
      <point x="489" y="235" type="line"/>
      <point x="432" y="214"/>
      <point x="382" y="202"/>
      <point x="324" y="202" type="curve" smooth="yes"/>
      <point x="244" y="202"/>
      <point x="194" y="224"/>
    </contour>
  </outline>
</glyph>
<glyph name="sterling" format="1">
  <advance width="600"/>
  <unicode hex="00A3"/>
  <outline>
    <contour>
      <point x="461" y="588" type="curve" smooth="yes"/>
      <point x="511" y="588"/>
      <point x="541" y="578"/>
      <point x="581" y="557" type="curve"/>
      <point x="599" y="557" type="line"/>
      <point x="607" y="587"/>
      <point x="617" y="629"/>
      <point x="629" y="676" type="curve" smooth="yes"/>
      <point x="630" y="679"/>
      <point x="630" y="681"/>
      <point x="629" y="683" type="curve" smooth="yes"/>
      <point x="619" y="696"/>
      <point x="572" y="720"/>
      <point x="492" y="720" type="curve" smooth="yes"/>
      <point x="341" y="720"/>
      <point x="235" y="646"/>
      <point x="208" y="536" type="curve" smooth="yes"/>
      <point x="201" y="511" type="line" smooth="yes"/>
      <point x="198" y="498"/>
      <point x="206" y="494"/>
      <point x="334" y="508" type="curve"/>
      <point x="348" y="566"/>
      <point x="385" y="588"/>
    </contour>
    <contour>
      <point x="201" y="511" type="curve" smooth="yes"/>
      <point x="176" y="407"/>
      <point x="155" y="323"/>
      <point x="127" y="213" type="curve" smooth="yes"/>
      <point x="113" y="156"/>
      <point x="74" y="125"/>
      <point x="29" y="125" type="curve" smooth="yes"/>
      <point x="22" y="125"/>
      <point x="16" y="125"/>
      <point x="10" y="125" type="curve"/>
      <point x="6" y="125" type="line"/>
      <point x="-4" y="87"/>
      <point x="-11" y="56"/>
      <point x="-23" y="11" type="curve" smooth="yes"/>
      <point x="-25" y="3"/>
      <point x="-21" y="0"/>
      <point x="-14" y="0" type="curve" smooth="yes"/>
      <point x="-9" y="0" type="line" smooth="yes"/>
      <point x="115" y="0"/>
      <point x="222" y="62"/>
      <point x="265" y="234" type="curve" smooth="yes"/>
      <point x="289" y="328"/>
      <point x="311" y="416"/>
      <point x="334" y="508" type="curve" smooth="yes"/>
      <point x="343" y="545"/>
      <point x="351" y="579"/>
      <point x="360" y="615" type="curve"/>
      <point x="286" y="615"/>
      <point x="218" y="577"/>
    </contour>
    <contour>
      <point x="-9" y="0" type="curve"/>
      <point x="167" y="0"/>
      <point x="271" y="0"/>
      <point x="405" y="0" type="curve" smooth="yes"/>
      <point x="470" y="0" type="line" smooth="yes"/>
      <point x="478" y="0"/>
      <point x="482" y="3"/>
      <point x="484" y="11" type="curve"/>
      <point x="493" y="49"/>
      <point x="503" y="87"/>
      <point x="512" y="125" type="curve"/>
      <point x="492" y="125" type="line"/>
      <point x="467" y="125"/>
      <point x="447" y="125"/>
      <point x="415" y="125" type="curve" smooth="yes"/>
      <point x="318" y="125"/>
      <point x="244" y="125"/>
      <point x="92" y="125" type="curve"/>
      <point x="-18" y="8"/>
      <point x="-16" y="0"/>
    </contour>
    <contour>
      <point x="95" y="403" type="line"/>
      <point x="85" y="363"/>
      <point x="83" y="356"/>
      <point x="73" y="316" type="curve" smooth="yes"/>
      <point x="73" y="313"/>
      <point x="73" y="310"/>
      <point x="74" y="308" type="curve" smooth="yes"/>
      <point x="76" y="306"/>
      <point x="79" y="305"/>
      <point x="82" y="305" type="curve" smooth="yes"/>
      <point x="459" y="305" type="line"/>
      <point x="469" y="345"/>
      <point x="471" y="352"/>
      <point x="481" y="392" type="curve" smooth="yes"/>
      <point x="482" y="398"/>
      <point x="479" y="403"/>
      <point x="473" y="403" type="curve" smooth="yes"/>
    </contour>
  </outline>
</glyph>
<glyph name="currency" format="1">
  <advance width="600"/>
  <unicode hex="00A4"/>
  <outline>
    <contour>
      <point x="289" y="423" type="curve"/>
      <point x="267" y="453"/>
      <point x="241" y="488"/>
      <point x="217" y="519" type="curve" smooth="yes"/>
      <point x="216" y="521"/>
      <point x="214" y="522"/>
      <point x="212" y="522" type="curve" smooth="yes"/>
      <point x="210" y="522"/>
      <point x="208" y="521"/>
      <point x="205" y="519" type="curve" smooth="yes"/>
      <point x="176" y="495"/>
      <point x="144" y="469"/>
      <point x="119" y="450" type="curve"/>
      <point x="142" y="420"/>
      <point x="169" y="384"/>
      <point x="191" y="355" type="curve" smooth="yes"/>
      <point x="194" y="351"/>
      <point x="198" y="351"/>
      <point x="203" y="355" type="curve" smooth="yes"/>
      <point x="230" y="376"/>
      <point x="264" y="403"/>
    </contour>
    <contour>
      <point x="386" y="423" type="curve"/>
      <point x="392" y="416"/>
      <point x="432" y="363"/>
      <point x="438" y="355" type="curve" smooth="yes"/>
      <point x="441" y="351"/>
      <point x="445" y="351"/>
      <point x="450" y="355" type="curve" smooth="yes"/>
      <point x="487" y="384"/>
      <point x="532" y="420"/>
      <point x="569" y="450" type="curve"/>
      <point x="552" y="473"/>
      <point x="535" y="495"/>
      <point x="518" y="519" type="curve" smooth="yes"/>
      <point x="516" y="521"/>
      <point x="514" y="522"/>
      <point x="512" y="522" type="curve" smooth="yes"/>
      <point x="510" y="522"/>
      <point x="508" y="521"/>
      <point x="506" y="519" type="curve" smooth="yes"/>
      <point x="467" y="488"/>
      <point x="423" y="453"/>
    </contour>
    <contour>
      <point x="324" y="175" type="curve"/>
      <point x="346" y="145"/>
      <point x="373" y="110"/>
      <point x="396" y="79" type="curve" smooth="yes"/>
      <point x="397" y="77"/>
      <point x="399" y="76"/>
      <point x="401" y="76" type="curve" smooth="yes"/>
      <point x="403" y="76"/>
      <point x="405" y="77"/>
      <point x="408" y="79" type="curve" smooth="yes"/>
      <point x="438" y="104"/>
      <point x="470" y="129"/>
      <point x="494" y="148" type="curve"/>
      <point x="471" y="178"/>
      <point x="444" y="214"/>
      <point x="422" y="244" type="curve" smooth="yes"/>
      <point x="419" y="248"/>
      <point x="415" y="248"/>
      <point x="410" y="244" type="curve" smooth="yes"/>
      <point x="383" y="222"/>
      <point x="349" y="195"/>
    </contour>
    <contour>
      <point x="227" y="175" type="curve"/>
      <point x="221" y="182"/>
      <point x="182" y="235"/>
      <point x="175" y="244" type="curve" smooth="yes"/>
      <point x="172" y="248"/>
      <point x="168" y="248"/>
      <point x="163" y="244" type="curve" smooth="yes"/>
      <point x="126" y="214"/>
      <point x="81" y="178"/>
      <point x="44" y="148" type="curve"/>
      <point x="61" y="125"/>
      <point x="78" y="103"/>
      <point x="96" y="79" type="curve" smooth="yes"/>
      <point x="97" y="77"/>
      <point x="99" y="76"/>
      <point x="101" y="76" type="curve" smooth="yes"/>
      <point x="103" y="76"/>
      <point x="105" y="77"/>
      <point x="108" y="79" type="curve" smooth="yes"/>
      <point x="146" y="110"/>
      <point x="190" y="145"/>
    </contour>
    <contour>
      <point x="287" y="215" type="curve"/>
      <point x="234" y="215"/>
      <point x="211" y="239"/>
      <point x="221" y="279" type="curve" smooth="yes"/>
      <point x="232" y="322" type="line" smooth="yes"/>
      <point x="242" y="363"/>
      <point x="278" y="386"/>
      <point x="329" y="386" type="curve" smooth="yes"/>
      <point x="362" y="386"/>
      <point x="379" y="385"/>
      <point x="400" y="382" type="curve"/>
      <point x="417" y="436"/>
      <point x="415" y="475"/>
      <point x="351" y="475" type="curve"/>
      <point x="246" y="475"/>
      <point x="164" y="418"/>
      <point x="142" y="330" type="curve" smooth="yes"/>
      <point x="128" y="272" type="line" smooth="yes"/>
      <point x="105" y="183"/>
      <point x="159" y="127"/>
      <point x="264" y="127" type="curve"/>
      <point x="273" y="127"/>
      <point x="288" y="187"/>
    </contour>
    <contour>
      <point x="329" y="386" type="curve"/>
      <point x="382" y="386"/>
      <point x="405" y="363"/>
      <point x="395" y="322" type="curve" smooth="yes"/>
      <point x="384" y="279" type="line" smooth="yes"/>
      <point x="374" y="239"/>
      <point x="338" y="215"/>
      <point x="287" y="215" type="curve" smooth="yes"/>
      <point x="254" y="215"/>
      <point x="238" y="216"/>
      <point x="216" y="220" type="curve"/>
      <point x="199" y="167"/>
      <point x="201" y="127"/>
      <point x="264" y="127" type="curve"/>
      <point x="370" y="127"/>
      <point x="452" y="183"/>
      <point x="474" y="272" type="curve" smooth="yes"/>
      <point x="488" y="330" type="line" smooth="yes"/>
      <point x="511" y="418"/>
      <point x="457" y="475"/>
      <point x="351" y="475" type="curve"/>
      <point x="339" y="475"/>
      <point x="327" y="417"/>
    </contour>
  </outline>
</glyph>
<glyph name="brokenbar" format="1">
  <advance width="300"/>
  <unicode hex="00A6"/>
  <outline>
    <contour>
      <point x="202" y="760" type="curve"/>
      <point x="194" y="727"/>
      <point x="186" y="694"/>
      <point x="178" y="661" type="curve" smooth="yes"/>
      <point x="107" y="380" type="line" smooth="yes"/>
      <point x="106" y="374"/>
      <point x="110" y="369"/>
      <point x="116" y="369" type="curve" smooth="yes"/>
      <point x="158" y="369"/>
      <point x="201" y="369"/>
      <point x="246" y="369" type="curve"/>
      <point x="341" y="749" type="line" smooth="yes"/>
      <point x="341" y="752"/>
      <point x="341" y="755"/>
      <point x="340" y="757" type="curve" smooth="yes"/>
      <point x="338" y="759"/>
      <point x="335" y="760"/>
      <point x="332" y="760" type="curve" smooth="yes"/>
      <point x="288" y="760"/>
      <point x="245" y="760"/>
    </contour>
    <contour>
      <point x="70" y="231" type="curve"/>
      <point x="-25" y="-149" type="line"/>
      <point x="-27" y="-155"/>
      <point x="-23" y="-160"/>
      <point x="-17" y="-160" type="curve" smooth="yes"/>
      <point x="26" y="-160"/>
      <point x="69" y="-160"/>
      <point x="113" y="-160" type="curve"/>
      <point x="208" y="220" type="line" smooth="yes"/>
      <point x="210" y="227"/>
      <point x="207" y="231"/>
      <point x="200" y="231" type="curve" smooth="yes"/>
      <point x="156" y="231"/>
      <point x="113" y="231"/>
    </contour>
  </outline>
</glyph>
